<?xml version="1.0" standalone="no"?>
<!DOCTYPE svg PUBLIC "-//W3C//DTD SVG 1.1//EN" "http://www.w3.org/Graphics/SVG/1.1/DTD/svg11.dtd" >
<svg xmlns="http://www.w3.org/2000/svg" xmlns:xlink="http://www.w3.org/1999/xlink" version="1.1">
<metadata>
Created by FontForge 20200427 at Mon Nov 15 10:15:29 2004
 By www
4.1 (c)1990-92 by Richard A. Ware. All Rights Reserved.
</metadata>
<defs>
<font id="PhoenixScriptFLF" horiz-adv-x="639" >
  <font-face 
    font-family="PhoenixScriptFLF"
    font-weight="500"
    font-stretch="normal"
    units-per-em="1000"
    panose-1="2 0 6 3 6 0 0 2 0 3"
    ascent="800"
    descent="-200"
    x-height="367"
    cap-height="641"
    bbox="-244 -305 1181 829"
    underline-thickness="30"
    underline-position="-175"
    unicode-range="U+0005-E009"
  />
<missing-glyph horiz-adv-x="500" 
 />
    <glyph glyph-name=".notdef" horiz-adv-x="500" 
 />
    <glyph glyph-name="breve" horiz-adv-x="365" 
d="M199 476q-34 0 -64.5 7t-50.5 21q-4 3 -7 3.5t-5 0.5q-3 0 -6.5 -3.5t-3.5 -7.5q0 -7 7 -14q23 -20 56.5 -31t68.5 -11q38 0 73 11t61 30q8 6 8 14q0 3 -2.5 6t-7.5 3t-15 -5q-22 -12 -51.5 -18t-60.5 -6z" />
    <glyph glyph-name="dotaccent" horiz-adv-x="260" 
d="M211 508q0 14 -4 22.5t-20 8.5t-32 -7.5t-29.5 -19t-22 -25t-8.5 -25.5q0 -34 37 -34q20 0 35 8t24.5 20t14.5 26t5 26z" />
    <glyph glyph-name="ring" horiz-adv-x="305" 
d="M84 463q0 -29 18 -49t55 -20q33 0 57 9.5t39.5 25t23.5 34.5t8 37q0 32 -20.5 55.5t-57.5 23.5q-26 0 -48.5 -10.5t-39 -27t-26 -37.5t-9.5 -41zM114 463q0 10 7.5 23t20 24t29 19t34.5 8q21 0 33 -11t12 -28q0 -11 -5.5 -23t-16 -21.5t-26.5 -16t-36 -6.5q-28 0 -40 8
t-12 24z" />
    <glyph glyph-name="hungarumlaut" unicode="&#xa;" horiz-adv-x="305" 
d="M134 629q-6 -14 -13.5 -32.5t-15 -38t-14.5 -37t-12 -30.5q-2 -6 -2 -9q0 -10 8 -10q7 0 13 9q7 10 19.5 27t26 34.5t25 34t17.5 26.5t6 17q0 11 -10 17.5t-23 6.5q-8 0 -14.5 -3.5t-10.5 -11.5zM230 619q-6 -14 -13.5 -32.5t-15 -38t-14.5 -37t-12 -30.5q-2 -6 -2 -9
q0 -10 8 -10t13 8q7 11 20 28t26.5 35t26 35t18.5 28q3 5 3.5 8.5t0.5 7.5q0 9 -10.5 15.5t-22.5 6.5q-19 0 -26 -15z" />
    <glyph glyph-name="ogonek" horiz-adv-x="335" 
d="M125 -86q0 17 18 40t47 46h-64q-21 -18 -33.5 -40t-12.5 -44q0 -15 8 -27.5t20 -21.5t27 -14t29 -5q19 0 19 12q0 15 -31 25q-27 7 -27 29z" />
    <glyph glyph-name="caron" horiz-adv-x="351" 
d="M216 460q-4 0 -9 6q-12 14 -25 31t-28 34q-4 4 -6 4q-4 0 -4 -5v-5q0 -2 1 -7q1 -6 6.5 -24t13 -37t15 -34t13.5 -15q10 0 35 13.5t53 31.5t52.5 36.5t34.5 27.5q7 6 7 9q0 2 -2 2t-9 -3q-12 -5 -30.5 -13.5t-37.5 -17t-36.5 -17t-29.5 -13.5q-9 -4 -14 -4z" />
    <glyph glyph-name="dotlessi" unicode="&#xd;" horiz-adv-x="341" 
d="M301 376q-8 0 -18 -5q-26 -15 -61 -40.5t-72.5 -57t-75.5 -65.5t-71 -67q-10 -10 -10 -18q0 -5 3.5 -7.5t7.5 -2.5q6 0 12 6q63 60 107.5 97t62.5 51q-19 -26 -37 -53t-32 -55t-22.5 -55.5t-8.5 -55.5q0 -33 14.5 -55t41.5 -22q26 0 57 16.5t60.5 40t55.5 49t43 42.5
q6 6 8.5 12t2.5 11q0 9 -8 9q-7 0 -14 -8q-17 -18 -39 -38.5t-43.5 -37.5t-41.5 -28t-33 -11q-11 0 -15.5 10t-4.5 21q0 23 18 58.5t43 74.5t51.5 78t43.5 69q5 10 5 18q0 6 -9 12.5t-21 6.5z" />
    <glyph glyph-name="fraction" horiz-adv-x="438" 
d="M727 630q-9 0 -20 -3t-23 -11q-44 -28 -107.5 -76.5t-137 -106.5t-151.5 -121.5t-150.5 -122t-134 -107t-102.5 -77.5q-19 -15 -19 -25q0 -7 7.5 -11t19.5 -4q23 0 46 15q31 21 88 64.5t128 99.5t151 119.5t158 124.5t148 113.5t122 86.5q12 9 12 19q0 9 -9.5 16t-25.5 7
z" />
    <glyph glyph-name="fi" horiz-adv-x="651" 
d="M185 112q11 -9 24.5 -18t44.5 -9q25 0 43.5 12t31.5 24q9 9 31 29t47.5 42.5t49.5 43t38 31.5q-19 -26 -37 -54t-32 -56t-22.5 -54.5t-8.5 -50.5q0 -32 13 -56.5t45 -24.5q25 0 56 17t60.5 40.5t55.5 48.5t42 42q6 6 8.5 12t2.5 11q0 9 -8 9q-7 0 -14 -8
q-17 -18 -38.5 -38t-43 -37t-41.5 -28.5t-33 -11.5q-12 0 -16.5 9t-4.5 22q0 24 18 59t42.5 72.5t49 73.5t38.5 61l9 16.5t3 11.5q0 10 -9 16.5t-20 6.5q-5 0 -10 -2t-15 -7q-16 -9 -40.5 -28t-52.5 -42.5t-57 -48.5t-53.5 -46.5t-42 -37t-21.5 -19.5q-32 -27 -58 -27
q-20 0 -42 14t-50 43q-3 3 -5 3q-6 0 -7 -13q-6 -65 -31.5 -136.5t-58.5 -132.5t-67.5 -100.5t-59.5 -39.5q-13 0 -13 15q0 17 15 54.5t38.5 85t52 99.5t55 99t48 83t30.5 52q48 41 96 86t93 92t85 94.5t72 92.5q11 15 11 32q0 16 -11 27t-29 11q-13 0 -27.5 -6.5
t-31.5 -21.5q-47 -43 -109 -113t-126.5 -153.5t-127 -173.5t-112 -173t-79.5 -152.5t-30 -111.5q0 -39 17 -52.5t49 -13.5q34 0 67.5 13t63.5 36.5t56.5 56.5t46.5 74q22 45 35 95.5t13 95.5q0 9 -0.5 17t-1.5 16zM777 538q0 16 -7 25.5t-19 9.5t-23 -7t-20 -16.5t-14.5 -21
t-5.5 -20.5q0 -29 29 -29q26 0 43 15.5t17 43.5z" />
    <glyph glyph-name="fl" horiz-adv-x="615" 
d="M184 120q10 -5 26 -10t47 -5q12 0 27 5t29.5 12.5t26 14.5t17.5 12q21 17 44 34.5t34 28.5q-5 -8 -16 -29t-23 -48t-21 -55.5t-9 -50.5q0 -44 43 -44q28 0 61.5 15.5t64 37t56 44t37.5 36.5q9 10 9 20t-8 10q-5 0 -13 -8q-15 -16 -33.5 -32t-37.5 -28.5t-38 -20.5t-36 -8
q-23 0 -23 14q0 11 11.5 38.5t26.5 59t31 62t25 48.5q16 13 45.5 39t64.5 58.5t70.5 69.5t64.5 72.5t47.5 67t18.5 53.5q0 19 -14.5 30.5t-38.5 11.5q-25 0 -54.5 -19.5t-61.5 -51.5t-64.5 -74t-62 -87t-55.5 -90.5t-45 -84.5q-7 -6 -20 -17.5t-28 -24.5t-31.5 -26.5
t-30.5 -24.5q-19 -14 -43.5 -25.5t-52.5 -11.5q-21 0 -41.5 8t-37.5 25q-7 7 -9 7q-6 0 -7 -13q-6 -65 -31.5 -136.5t-58.5 -132.5t-67.5 -100.5t-59.5 -39.5q-13 0 -13 15q0 17 15 54.5t38.5 85t52 99.5t55 99t48 83t30.5 52q48 41 95.5 85t92 90t84 92t71.5 91
q6 8 10 17.5t4 21.5q0 16 -11 27t-29 11q-13 0 -27.5 -6.5t-31.5 -21.5q-47 -43 -109 -113t-126.5 -153.5t-127 -173.5t-112 -173t-79.5 -152.5t-30 -111.5q0 -39 17 -52.5t49 -13.5q34 0 67.5 13t63.5 36.5t56.5 56.5t46.5 74q22 45 34.5 98t12.5 100v17q0 9 -2 17z
M811 611q-9 -26 -37.5 -63t-64.5 -75.5t-73 -75t-64 -62.5q9 18 26 44.5t38.5 56.5t44.5 60t44.5 56t39.5 44.5t28 24.5q4 2 6.5 2.5t4.5 0.5q8 0 8 -8q0 -2 -1 -5z" />
    <glyph glyph-name="Lslash" horiz-adv-x="526" 
d="M330 258l85.5 57t88.5 58q10 7 12.5 12.5t2.5 10.5q0 8 -8 14.5t-21 6.5q-11 0 -23 -6.5t-27 -16.5l-22 -14l-22 -14q42 63 90.5 124.5t94.5 104.5q20 20 20 38q0 13 -10 21t-25 8q-13 0 -28 -6.5t-30 -22.5q-20 -20 -44.5 -49.5t-52 -65t-55.5 -76t-53 -83.5
q-11 -18 -22.5 -37t-24.5 -38q-40 -26 -78 -53.5t-74 -53.5q-8 -6 -11 -13t-3 -12q0 -14 20 -14q11 0 24 7.5t28 16.5q5 3 10.5 6.5t11.5 6.5q-42 -60 -78.5 -107.5t-55.5 -68.5q-7 -8 -7 -20q0 -11 6 -18.5t17 -7.5h5q3 0 9 1q31 6 70 15.5t85 18.5t98.5 15.5t112.5 6.5
q32 0 48.5 15t16.5 32q0 12 -10 21.5t-32 9.5q-80 0 -156.5 -14t-133.5 -30q18 24 35 45.5t34.5 46.5t37.5 54t44 68z" />
    <glyph glyph-name="lslash" horiz-adv-x="303" 
d="M293 395q24 38 55 78.5t60 74t52 55t29 21.5q13 0 13 -9q0 -15 -38 -65t-125 -138q-11 -4 -22.5 -8t-23.5 -9zM404 432q27 28 52.5 56.5t44.5 55t30.5 49.5t11.5 40q0 19 -12 30.5t-41 11.5q-31 0 -70 -29.5t-79 -75.5t-79 -103.5t-70 -112.5q-38 -17 -76 -33l-76 -32
q-9 -4 -11.5 -12t-2.5 -13q0 -14 20 -14q11 0 28.5 1.5t33.5 6.5q8 2 16.5 5t16.5 5q-12 -11 -29.5 -26.5t-36 -32.5t-37.5 -35t-35 -34q-12 -12 -12 -22q0 -9 8 -9q6 0 16 8q14 13 31 29.5t33 31.5t29.5 27t19.5 16q-5 -9 -17 -33t-24 -52.5t-21.5 -57.5t-9.5 -49
q0 -44 43 -44q28 0 61.5 15.5t64 37t56 44t37.5 36.5q9 12 9 20q0 10 -8 10q-5 0 -13 -8q-15 -16 -33.5 -32t-37.5 -28.5t-38 -20.5t-36 -8q-23 0 -23 14q0 11 11.5 38.5t26.5 59t31 62t25 48.5q10 8 24 20t31 27q42 17 85.5 34t91.5 37q11 5 13 11.5t2 11.5q0 8 -8 14.5
t-21 6.5h-21q-11 0 -25 -3z" />
    <glyph glyph-name="Zcaron" horiz-adv-x="549" 
d="M184 55q23 25 70 69t104.5 97t121 111t120.5 111.5t101.5 97.5t65.5 69q8 10 8 14q0 14 -53 14q-33 0 -87.5 -6.5t-113 -15.5t-111.5 -18t-83 -13q-7 -1 -14.5 -6.5t-14 -14t-11 -17.5t-4.5 -17q0 -9 6 -14.5t21 -5.5q6 0 30 3.5t58 9t73 11.5t74.5 11.5t63 9t38.5 3.5
q-20 -19 -60 -55.5t-91.5 -83.5t-111 -101t-118.5 -108t-114 -104.5t-97 -90.5q-11 -10 -17.5 -18t-6.5 -20q0 -11 12.5 -18.5t35.5 -7.5t59.5 10.5t76.5 20.5q34 8 89 16.5t132 13.5q22 1 40 8.5t30.5 18t19.5 22t7 21.5q0 11 -9 19t-29 8q-45 0 -94 -7t-93 -16.5
t-77.5 -18.5t-46.5 -12zM566 725q-4 0 -9 6q-12 14 -25 31t-28 34q-4 4 -6 4q-4 0 -4 -5v-5q0 -2 1 -7q1 -6 6.5 -24t13 -37t15 -34t13.5 -15q10 0 35 13.5t53 31.5t52.5 36.5t34.5 27.5q7 6 7 9q0 2 -2 2t-9 -3q-12 -5 -30.5 -13.5t-37.5 -17t-36.5 -17t-29.5 -13.5
q-9 -4 -14 -4z" />
    <glyph glyph-name="zcaron" horiz-adv-x="438" 
d="M410 275q0 17 -5 33.5t-15.5 29.5t-26.5 21t-39 8q-37 0 -83.5 -27t-91.5 -64t-83 -74t-59 -58q-12 -12 -12 -21t10 -9q7 0 12 5q16 16 38 37t46 42.5t49 42t48 36.5t42.5 26t31.5 10q23 0 33.5 -19t10.5 -41q0 -29 -21 -60t-50 -57.5t-59.5 -45.5t-49.5 -24
q-9 -2 -13.5 -10t-4.5 -16q0 -10 6 -18t17 -9q29 -2 42 -15.5t16 -36.5q-14 -8 -35 -20.5t-45.5 -29.5t-49 -36.5t-44 -41t-32 -43.5t-12.5 -43q0 -28 18 -37.5t44 -9.5q55 0 97.5 28t71 70t43 91t14.5 91q17 10 42 26t51.5 35t51 39.5t41.5 38.5q9 9 9 19q0 11 -8 11
q-6 0 -12 -7q-22 -23 -48.5 -44.5t-52 -39.5t-47 -31.5t-33.5 -20.5q-5 34 -29 44q30 9 61.5 29t57 49.5t41.5 66.5t16 80zM201 -69q-4 -20 -19 -51t-36 -60t-45.5 -50.5t-48.5 -21.5q-14 0 -19 6t-5 17q0 14 18 35t44 44t56.5 44.5t54.5 36.5zM331 460q-4 0 -9 6
q-12 14 -25 31t-28 34q-4 4 -6 4q-4 0 -4 -5v-5q0 -2 1 -7q1 -6 6.5 -24t13 -37t15 -34t13.5 -15q10 0 35 13.5t53 31.5t52.5 36.5t34.5 27.5q7 6 7 9q0 2 -2 2t-9 -3q-12 -5 -30.5 -13.5t-37.5 -17t-36.5 -17t-29.5 -13.5q-9 -4 -14 -4z" />
    <glyph glyph-name="space" unicode=" " horiz-adv-x="338" 
 />
    <glyph glyph-name="exclam" unicode="!" horiz-adv-x="305" 
d="M509 673q-28 0 -46 -23t-46.5 -65t-61.5 -92t-67 -103.5t-61.5 -99.5t-44.5 -79.5t-17 -43.5q0 -12 7 -20t19 -8q17 0 31 26q14 24 37 57.5t52 72t61.5 80t64 81.5t61 77t51.5 65q8 10 11 16.5t3 17.5q0 21 -16 31t-38 10zM148 54q0 11 -3.5 18t-15.5 7q-13 0 -26 -6
t-23.5 -15.5t-17 -20t-6.5 -19.5q0 -28 29 -28q16 0 28 6.5t19.5 16t11.5 21t4 20.5z" />
    <glyph glyph-name="quotedbl" unicode="&#x22;" horiz-adv-x="301" 
d="M380 451q2 0 3 1q11 10 25 24t29.5 30t31 31.5t28.5 27.5q12 11 17.5 23t5.5 23t-5.5 18.5t-14.5 7.5q-6 0 -14 -5t-16 -17q-29 -44 -47 -73.5t-28 -48t-13.5 -27.5t-3.5 -12t2 -3zM309 442q2 0 4 3q7 11 17 33t21 47t21 49t18 39q4 8 4 20q0 11 -7.5 20t-18.5 9
q-8 0 -16.5 -7.5t-14.5 -26.5q-6 -18 -11.5 -47t-10 -57t-7.5 -49t-3 -24q0 -9 4 -9z" />
    <glyph glyph-name="numbersign" unicode="#" horiz-adv-x="660" 
d="M515 624q-16 -25 -38.5 -59t-46.5 -72q-8 -1 -30 -3t-47 -5t-49 -6t-36 -6q-27 -7 -40.5 -18.5t-13.5 -21.5q0 -12 20 -12q5 0 27 2.5t48 5.5t50.5 6t34.5 4q-5 -9 -14 -21.5t-18.5 -26.5t-19.5 -28.5t-18 -27.5q-14 -2 -32 -4t-37 -4.5t-37.5 -4.5t-33.5 -4
q-30 -4 -45.5 -15t-15.5 -19q0 -12 21 -12q35 1 70.5 4.5t73.5 7.5q-4 -5 -13.5 -18t-22 -30.5t-26 -38t-25.5 -40.5q-4 -7 -4 -13q0 -12 13 -12q9 0 21 8.5t22 26.5q6 12 18 30t24.5 36.5t24 34t17.5 23.5q33 2 68 3.5t55 2.5q-11 -18 -24.5 -39.5t-26 -41.5l-22.5 -36
t-13 -24q-3 -9 -3 -15q0 -12 10 -12q8 0 20 9.5t23 26.5q7 12 18 30t23 37t23 37t19 29q28 2 71.5 4.5t82.5 4.5q29 2 45 14.5t16 24.5q0 8 -6.5 13t-20.5 5q-2 0 -23.5 -1.5t-47.5 -3t-50.5 -3.5t-32.5 -3q6 10 15.5 23.5t19.5 27.5t19 27.5t15 24.5q18 1 55 3t89 6
q24 2 39.5 16t15.5 26q0 16 -22 15q-19 -1 -39.5 -2t-39.5 -2t-34.5 -2t-23.5 -2q23 32 46 62t52 69q6 9 6 16q0 12 -16 12q-9 0 -21 -7t-23 -23q-22 -34 -47 -68.5t-46 -66.5q-7 -1 -21 -2t-31.5 -2.5t-35.5 -3t-33 -2.5q4 6 15 20.5t25.5 33.5t31.5 41l34 44q7 8 7 17
q0 13 -17 13q-12 0 -29.5 -10t-31.5 -33zM492 348q-24 -1 -59.5 -3t-63.5 -5q18 26 36 51.5t36 51.5q11 1 28 2t35 2.5t34.5 3t25.5 2.5q-13 -24 -34.5 -51.5t-37.5 -53.5z" />
    <glyph glyph-name="dollar" unicode="$" horiz-adv-x="555" 
d="M54 95q0 -16 8 -32.5t24 -30t38.5 -22t52.5 -8.5q-6 -10 -15 -25.5t-16 -28.5q-5 -12 -5 -17q0 -8 4.5 -11.5t10.5 -3.5q8 0 18 6t16 18q8 16 18 33t18 32q46 2 94 19t87 45t64 64.5t25 77.5q0 22 -7.5 40.5t-19.5 36t-27 33t-31 31.5q6 11 22 40.5t34 64t34.5 66.5
t24.5 48q7 1 14.5 2t14.5 1q13 0 22.5 -4.5t9.5 -15.5q0 -13 -16 -21.5t-29 -13.5h6q21 0 43 5t41 14.5t31 22.5t12 29q0 26 -21.5 33t-46.5 7q-14 0 -29.5 -1.5t-27.5 -3.5q5 10 11.5 22t12.5 26q2 5 2 6v3q0 9 -11 9q-5 0 -11 -3t-10 -10q-8 -14 -19 -32.5t-16 -28.5
q-65 -6 -110.5 -28.5t-74.5 -52.5t-42 -63t-13 -60q0 -20 6.5 -35.5t17 -28.5t24 -24t26.5 -22q-6 -9 -24 -41t-40.5 -71.5t-45 -79.5t-37.5 -67q-18 0 -36.5 3.5t-34.5 11.5t-27.5 21.5t-14.5 34.5q-1 10 -8 10t-14 -9.5t-7 -20.5zM348 434q0 24 12.5 45.5t32.5 38.5
t44 28.5t47 16.5q-7 -13 -19.5 -36t-27 -50t-29 -54.5t-25.5 -48.5q-14 11 -24.5 25.5t-10.5 34.5zM407 208q0 -24 -11.5 -47.5t-32.5 -44.5t-49.5 -37.5t-62.5 -25.5l122 227q14 -16 24 -33t10 -39z" />
    <glyph glyph-name="percent" unicode="%" horiz-adv-x="698" 
d="M644 245q0 -25 -14.5 -61t-36.5 -69.5t-49.5 -57t-52.5 -23.5q-40 0 -40 43q0 22 13 55t33 67t44.5 63.5t48.5 46.5q6 4 6 9q0 4 -4.5 6t-10.5 2q-11 0 -29 -11.5t-38 -31t-41 -45.5t-37.5 -54.5t-27 -58.5t-10.5 -57q0 -33 17.5 -52.5t57.5 -19.5q48 0 88 25t69 61.5
t45.5 78t16.5 73.5q0 37 -19 53.5t-44 16.5q-26 0 -45 -13q-6 -3 -6 -8q0 -4 4 -4q2 0 5 1q4 2 13 2q17 0 30.5 -8.5t13.5 -28.5zM452 606q19 7 51.5 13t69 11t71.5 8.5t60 5.5q7 0 7 -7q0 -3 -3 -7q-37 -54 -105.5 -128.5t-154.5 -162.5q-47 -48 -96 -98t-94.5 -98
t-83.5 -92t-63 -79q-9 -14 -9 -23q0 -8 5 -12.5t13 -4.5t16 5t16 16q19 28 52 66t76 83t93.5 96t104.5 105q41 41 83 84.5t81 85.5t73.5 82t61.5 75q15 19 15 33q0 10 -8.5 13.5t-19.5 3.5q-16 0 -48 -4t-72.5 -10.5t-83.5 -14.5t-81 -16.5t-65.5 -17t-36.5 -14.5
q-7 -4 -7 -11q0 -8 8 -8q3 0 5 1q12 6 23 6q14 0 23 -9.5t9 -29.5q0 -27 -15.5 -62t-39 -66.5t-50 -53t-48.5 -21.5q-31 0 -31 44q0 21 10 52.5t26.5 65.5t37.5 64.5t42 50.5q6 5 6 11q0 7 -12 7q-16 0 -34.5 -13.5t-37 -35t-35.5 -49.5t-30 -56.5t-21 -56t-8 -48.5
q0 -33 15.5 -55t53.5 -22q46 0 86.5 24t70.5 59t47 75.5t17 73.5q0 26 -8 40.5t-28 25.5z" />
    <glyph glyph-name="ampersand" unicode="&#x26;" horiz-adv-x="567" 
d="M704 619q-9 0 -20.5 -5t-23.5 -16q-20 -18 -45 -46.5t-48.5 -57.5t-42.5 -53.5t-26 -33.5q-36 66 -113 66q-32 0 -71 -15t-73 -42t-57 -63.5t-23 -79.5q0 -28 12 -49.5t32 -36t45 -22t52 -7.5q13 0 20.5 0.5t14.5 2.5q-6 -8 -19 -25.5t-25.5 -38.5t-22.5 -42.5t-10 -36.5
q0 -9 13 -9q8 0 17 3t15 8q16 12 35 34.5t36 46.5t30.5 45t19.5 30q37 8 76 21.5t71 29.5t52 32t20 29q0 9 -6 9q-2 0 -8 -2q-21 -9 -46 -17t-47.5 -14t-41 -9.5t-26.5 -4.5q26 39 57 84.5t63.5 91.5t64 89t59.5 77q3 4 5.5 8t2.5 8q0 11 -18 11zM435 312q-16 -24 -30.5 -45
t-23.5 -34q-19 -8 -47 -8q-35 0 -61 19t-26 59q0 19 9 36.5t23 30.5t31 20.5t34 7.5q27 0 53 -20t38 -66z" />
    <glyph glyph-name="quotesingle" unicode="'" horiz-adv-x="210" 
d="M279 453q4 0 7 5q9 10 25 29.5t33.5 41.5t34 43.5t26.5 34.5q7 10 7 22q0 28 -22 28q-20 0 -34 -26q-10 -18 -24 -46t-26.5 -55t-21 -47.5t-8.5 -24.5q0 -5 3 -5z" />
    <glyph glyph-name="parenleft" unicode="(" horiz-adv-x="385" 
d="M95 -85q0 29 15.5 81.5t43 118t67 138.5t87 143t102.5 133t115 108q23 17 23 37q0 13 -11 13q-9 0 -20 -7q-51 -32 -106 -82.5t-108 -112.5t-100.5 -131.5t-83 -139t-56.5 -136.5t-21 -123q0 -26 2.5 -42.5t7 -26.5t9.5 -13.5t10 -3.5q17 0 20.5 14.5t3.5 31.5z" />
    <glyph glyph-name="parenright" unicode=")" horiz-adv-x="285" 
d="M-17 -124q21 0 62.5 30.5t92 83.5t104 124.5t97 154.5t71.5 173t28 180q0 44 -6.5 60t-20.5 16q-8 0 -18.5 -12t-12.5 -35q-5 -76 -25.5 -152t-52 -148.5t-71 -138.5t-82.5 -123.5t-86.5 -103.5t-81.5 -77q-14 -11 -14 -20q0 -12 16 -12z" />
    <glyph glyph-name="asterisk" unicode="*" horiz-adv-x="530" 
d="M609 606q-11 0 -23 -6q-9 -5 -26 -17t-35.5 -27t-35 -29.5t-25.5 -22.5q-5 20 -10.5 51.5t-8.5 69.5q-1 11 -7.5 16t-14.5 5q-14 0 -27.5 -10.5t-13.5 -27.5v-8t1 -8q5 -32 14 -60t15 -45q-8 -1 -27.5 -4.5t-42.5 -8t-46 -10t-38 -11.5q-23 -8 -33 -19.5t-10 -19.5
q0 -7 6 -7q2 0 5 1l6 2q18 5 40 10.5t43.5 10t39.5 7.5t27 4q-17 -12 -48.5 -40t-63.5 -69q-15 -19 -15 -32q0 -8 7 -8q10 0 24 15q17 18 37.5 36.5t40.5 35.5t37.5 30.5t27.5 21.5q5 -23 15 -57.5t24 -69.5q7 -17 20 -17q8 0 13.5 7.5t5.5 20.5q0 7 -3 16q-9 30 -16 61.5
t-12 51.5q6 1 14 1.5t19 0.5q22 0 50.5 -2.5t59.5 -9.5q5 -1 8.5 -1.5t7.5 -0.5q23 0 35 13.5t12 27.5q0 12 -8.5 18t-20.5 9t-26 3h-25q-32 0 -54.5 -4t-38.5 -7q22 14 49.5 27t59.5 30q19 10 19 29q0 11 -7.5 19t-20.5 8z" />
    <glyph glyph-name="plus" unicode="+" horiz-adv-x="444" 
d="M394 449q-8 -11 -18.5 -29.5t-22.5 -38.5t-23 -39.5t-19 -33.5q-12 -1 -26.5 -2.5t-29.5 -3t-28.5 -3t-23.5 -2.5q-27 -3 -42 -13t-15 -21q0 -6 5.5 -10.5t18.5 -4.5q24 0 51.5 0.5t55.5 2.5q-5 -8 -15.5 -24.5t-23.5 -35.5t-25.5 -38.5t-20.5 -34.5q-5 -9 -5 -18
q0 -14 15 -14q11 0 24.5 9t24.5 28q3 6 14.5 23t25 38t26.5 41.5t20 31.5h59t57 1q28 2 43 19.5t15 32.5q0 19 -17 19q-9 0 -24 -1.5t-32 -3.5t-35 -4.5t-32 -4.5q7 10 19 28.5t25 38t24.5 37.5t17.5 28q8 13 8 20q0 15 -20 15q-13 0 -26.5 -9t-24.5 -24z" />
    <glyph glyph-name="comma" unicode="," horiz-adv-x="230" 
d="M193 66q0 20 -9 31t-29 11q-31 0 -48.5 -20.5t-17.5 -54.5q0 -10 1.5 -17.5t1.5 -12.5q0 -13 -17 -31t-40 -36t-46 -33.5t-34 -23.5q-5 -4 -5 -8q0 -2 2 -3t4 -1q7 0 27.5 9t46.5 24.5t55 36t53 42.5t39.5 44.5t15.5 42.5z" />
    <glyph glyph-name="hyphen" unicode="-" horiz-adv-x="429" 
d="M493 251q0 16 -24 19q-20 2 -42 3.5t-45 1.5q-32 0 -63.5 -2t-60.5 -5.5t-54.5 -8t-44.5 -9.5q-14 -4 -22 -13t-8 -17q0 -10 13 -10q4 0 25 2t52 5t70 5t80 2q23 0 42 -1t31 -2q4 -1 7 -1h7q15 0 26 10t11 21z" />
    <glyph glyph-name="period" unicode="." horiz-adv-x="200" 
d="M162 62q0 12 -3.5 19.5t-17.5 7.5t-28 -6.5t-25.5 -16.5t-19 -22t-7.5 -22q0 -30 32 -30q18 0 31 7t21.5 17.5t12.5 23t4 22.5z" />
    <glyph glyph-name="slash" unicode="/" horiz-adv-x="370" 
d="M604 666q-11 0 -23.5 -5.5t-26.5 -17.5q-38 -35 -90.5 -91t-112 -122.5t-122 -138t-121 -137.5t-109 -122.5t-85.5 -91.5q-14 -14 -14 -25q0 -14 20 -14q11 0 25 6t27 18q27 26 73.5 76t103.5 113.5t121.5 135.5t127 140.5t120 129.5t100.5 102q9 8 12 13t3 10
q0 8 -8 14.5t-21 6.5z" />
    <glyph glyph-name="zero" unicode="0" horiz-adv-x="535" 
d="M602 504q0 -37 -15 -86.5t-40.5 -101.5t-60 -102.5t-74 -90t-82 -64t-84.5 -24.5q-74 0 -74 75q0 38 15.5 84.5t42 96.5t61 101.5t72.5 98.5t76 87t72 68q4 3 4 6q0 7 -10 7q-2 0 -11 -3q-44 -17 -91 -51t-91 -79t-83.5 -98t-69 -107t-46.5 -105.5t-17 -93.5
q0 -62 36 -92t105 -30q57 0 112.5 23.5t105 62.5t91 89t72 102.5t47.5 104t17 92.5q0 42 -13 69.5t-33 44t-44.5 23t-48.5 6.5q-20 0 -36 -4.5t-27 -12.5q-8 -5 -8 -12q0 -8 6 -8q3 0 7 2q8 4 19 6.5t24 2.5q44 0 59 -25.5t15 -61.5z" />
    <glyph glyph-name="one" unicode="1" horiz-adv-x="342" 
d="M266 461q2 0 8 4q22 16 46.5 32.5t49 32t47 29t40.5 22.5q-35 -52 -83.5 -119t-100 -139t-101.5 -143t-89 -132q-6 -9 -6 -18q0 -19 18 -32.5t37 -13.5t26 14q18 34 46.5 80t62.5 99t72 111t75.5 115.5t73.5 113t65 103.5q3 4 3 9q0 11 -12 19t-27 8q-12 0 -21 -6
q-21 -15 -52 -35.5t-64.5 -43.5t-66 -46.5t-56.5 -45.5q-3 -3 -3 -6q0 -4 4 -8t8 -4z" />
    <glyph glyph-name="two" unicode="2" horiz-adv-x="480" 
d="M418 266q52 39 89.5 71t61.5 60.5t35.5 55.5t11.5 57q0 94 -117 94q-40 0 -79 -9t-69.5 -25.5t-49.5 -38.5t-19 -48q0 -16 11.5 -25.5t35.5 -9.5h6q4 0 6 1q-3 5 -6 10.5t-3 11.5q0 15 15 27.5t36.5 20.5t45.5 12.5t42 4.5q26 0 38.5 -9.5t12.5 -36.5q0 -49 -41.5 -98.5
t-114.5 -109.5q-37 -30 -79.5 -60.5t-85.5 -60.5t-84 -58t-75 -53q-12 -9 -12 -25q0 -10 7 -17.5t25 -7.5q30 0 74 6.5t95 17t104 23.5t100 27q12 4 17.5 10.5t5.5 14.5t-5.5 14t-13.5 6q-6 0 -15 -3q-27 -7 -61 -13.5t-70.5 -12t-73.5 -8.5t-70 -4q19 15 49 35.5t66.5 45
t76 52t77.5 55.5z" />
    <glyph glyph-name="three" unicode="3" horiz-adv-x="460" 
d="M269 520q5 0 13 5q35 22 77 37t79 15q29 0 48.5 -10.5t19.5 -40.5q0 -24 -14.5 -47.5t-37 -46t-49.5 -42.5t-52 -36.5t-45 -27.5t-28 -16q-19 -12 -19 -19t18 -7h6q4 0 8 1q15 3 30 3q32 0 54 -13.5t22 -38.5q0 -22 -15.5 -43.5t-42 -42.5t-60.5 -40.5t-71.5 -36.5
t-75.5 -31t-72 -23q-22 -6 -22 -21q0 -6 4.5 -10.5t12.5 -4.5q5 0 8.5 0.5t6.5 1.5q39 9 85.5 23.5t94 32.5t92 40t79 47.5t55 54t20.5 59.5q0 26 -11 43t-27 27.5t-35 15.5t-35 7q9 6 28.5 17.5t44 28t50.5 36.5t47.5 43t35 47.5t13.5 50.5q0 36 -31 51t-79 15
q-26 0 -56 -5t-60 -13.5t-57 -20.5t-46 -25q-11 -7 -15.5 -15t-4.5 -14q0 -11 9 -11z" />
    <glyph glyph-name="four" unicode="4" horiz-adv-x="498" 
d="M200 224q30 28 65.5 61.5t77.5 77t90.5 99.5t104.5 130q10 13 10 26q0 12 -8 12q-7 0 -16 -12q-17 -21 -54.5 -58t-84.5 -81t-98.5 -91t-96.5 -88.5t-78.5 -73.5t-44.5 -45q-7 -9 -7 -11q0 -4 12 -5q42 -3 92 -3q37 0 72.5 2.5t66.5 7.5q-10 -16 -23.5 -37t-27.5 -43.5
t-28 -44.5t-24 -41q-4 -7 -4 -14q0 -12 12.5 -18t28.5 -6q15 0 28.5 5t18.5 14q10 20 25 45.5t30.5 52t30.5 52t27 45.5q22 6 47.5 14.5t46.5 20.5q13 8 19 18.5t6 19.5q0 13 -10 13q-3 0 -6 -1t-5 -2q-14 -5 -27.5 -8.5t-31.5 -6.5q10 16 26.5 39.5t36 51.5t40 59t38.5 61
q5 10 5 15q0 9 -7 13t-17 4t-20 -4t-16 -13q-26 -36 -52 -71t-49.5 -66t-42.5 -57t-32 -44q-45 -9 -79 -11.5t-67 -2.5z" />
    <glyph glyph-name="five" unicode="5" horiz-adv-x="480" 
d="M449 614q-22 0 -41.5 0.5t-35.5 1.5q-3 0 -14.5 -14.5t-27.5 -37t-34 -51t-34.5 -55.5t-29.5 -50t-17 -36q-1 -4 -1 -8q0 -6 6 -6q4 0 10 2q22 8 41 11.5t42 3.5q43 0 68 -19t25 -58q0 -46 -23.5 -88t-63 -76.5t-92.5 -60.5t-112 -41q-17 -4 -26.5 -12.5t-9.5 -16.5
q0 -9 16 -9h5q4 0 12 2q73 13 144 41.5t126.5 68t90 88.5t34.5 103q0 27 -9 51t-26.5 42.5t-44 29.5t-60.5 11q-23 0 -37 -3t-26 -6q-3 -1 -6 -1t-3 3t3 9q5 11 16.5 29.5t24 36.5t23.5 31t16 13q14 0 30.5 -1t33.5 -1q42 0 84.5 4.5t69.5 17.5q10 5 20 14t18.5 19t15 19.5
t8.5 14.5q2 6 2 8q0 3 -2 3t-4 -1q-17 -8 -40.5 -13t-51 -8t-57 -4t-56.5 -1z" />
    <glyph glyph-name="six" unicode="6" horiz-adv-x="480" 
d="M262 22q-39 0 -64.5 29.5t-25.5 78.5q0 41 18.5 87.5t50.5 94.5t73.5 95.5t87.5 90.5t93.5 79.5t91.5 62.5q18 10 18 21q0 8 -11 8q-9 0 -19 -5q-30 -14 -78 -45t-102.5 -73.5t-109.5 -94.5t-99 -109t-72 -116.5t-28 -116.5q0 -62 40 -99.5t106 -37.5q52 0 103 18t91 49
t64.5 71.5t24.5 84.5q0 42 -27 64.5t-69 22.5q-48 0 -83.5 -20.5t-59 -49t-35 -57.5t-11.5 -46q0 -14 12 -14q5 0 10 4t8 15q7 24 22 44.5t34 35.5t38.5 24t35.5 9q19 0 27.5 -11.5t8.5 -29.5q0 -33 -14.5 -62.5t-38 -52t-52.5 -36t-59 -13.5z" />
    <glyph glyph-name="seven" unicode="7" horiz-adv-x="435" 
d="M207 459q5 0 10 1t10 3q25 7 64.5 16t81 16.5t78 13t54.5 5.5q-16 -25 -44.5 -62t-64 -81.5t-74.5 -93t-77 -96t-72 -90.5t-58 -77q-2 -3 -3 -5.5t-1 -5.5q0 -14 15 -26.5t34 -12.5q11 0 22.5 5.5t20.5 18.5q16 22 47.5 66t71 99t82.5 116.5t82.5 118.5t71 104.5
t48.5 75.5q6 10 6 20q0 15 -53 15q-26 0 -67 -5.5t-84.5 -13t-83.5 -14.5t-65 -11q-12 -2 -23.5 -11.5t-21 -22t-15 -26t-5.5 -23.5q0 -17 13 -17z" />
    <glyph glyph-name="eight" unicode="8" horiz-adv-x="508" 
d="M296 405q0 40 25.5 80.5t64.5 69.5q15 10 15 18q0 6 -11 6q-6 0 -15.5 -2t-23.5 -7q-16 -6 -39.5 -24.5t-45 -44.5t-37 -56.5t-15.5 -59.5q0 -31 16 -57t38 -49q-10 -5 -28 -15t-38.5 -24t-42.5 -31t-39.5 -36.5t-28.5 -41.5t-11 -44q0 -44 32.5 -69.5t101.5 -25.5
q35 0 71.5 9t66.5 27.5t49 47t19 68.5q0 22 -6.5 42.5t-15.5 38.5t-20 34t-20 29q53 28 112 59t108.5 67.5t81.5 79.5t32 94q0 59 -27.5 88.5t-93.5 29.5q-25 0 -53.5 -6.5t-56 -17t-51.5 -23t-41 -24.5q-12 -9 -12 -17q0 -7 10 -7q8 0 17 4q37 17 73 25.5t65 8.5
q54 0 79.5 -22t25.5 -52q0 -35 -30 -70.5t-75 -69.5t-96 -63.5t-93 -52.5q-37 37 -37 86zM139 96q0 22 12 42t33 38.5t49.5 36.5t61.5 37q14 -21 25.5 -40.5t11.5 -54.5q0 -20 -8 -40t-23.5 -36.5t-38.5 -27t-52 -10.5t-50 15.5t-21 39.5z" />
    <glyph glyph-name="nine" unicode="9" horiz-adv-x="460" 
d="M584 526q-21 -21 -57.5 -48.5t-76 -51.5t-77 -40.5t-61.5 -16.5q-32 0 -32 22q0 15 17.5 37.5t46 47t65 49.5t76 44.5t78 32t70.5 12.5q20 0 26.5 -8t6.5 -19q0 -9 -1.5 -18t-5.5 -14q20 7 32 21t12 33q0 16 -18 27t-58 11q-44 0 -94 -12.5t-100 -34t-96.5 -49t-82 -57
t-56.5 -60t-21 -56.5q0 -32 23.5 -48.5t55.5 -16.5q26 0 56.5 9.5t60.5 23.5t57 29.5t48 28.5q-10 -14 -29.5 -40t-44.5 -59t-54 -70.5t-58 -74t-55 -69.5t-45 -57q-5 -7 -5 -13q0 -11 9.5 -19.5t21.5 -8.5t22 11q47 54 102 118t109 129.5t101.5 127.5t79.5 111q5 8 5 15
q0 13 -11.5 21.5t-22.5 8.5q-10 0 -19 -9z" />
    <glyph glyph-name="colon" unicode=":" horiz-adv-x="230" 
d="M172 71q0 12 -3.5 19.5t-17.5 7.5t-29.5 -8t-29 -20t-22.5 -25t-9 -23q0 -30 32 -30q18 0 32.5 8.5t25 21t16 26t5.5 23.5zM297 301q0 12 -4.5 20.5t-18.5 8.5t-29.5 -8t-29 -20t-22.5 -25t-9 -23q0 -14 9.5 -23t24.5 -9q17 0 31.5 8.5t25 21t16.5 26t6 23.5z" />
    <glyph glyph-name="semicolon" unicode=";" horiz-adv-x="234" 
d="M331 304q0 12 -4.5 20.5t-18.5 8.5t-31 -7.5t-32 -19.5t-25.5 -26t-10.5 -26q0 -14 9.5 -23t24.5 -9q17 0 33 9t28 22t19.5 27t7.5 24zM193 66q0 20 -9 31t-29 11q-31 0 -48.5 -20.5t-17.5 -54.5q0 -10 1.5 -17.5t1.5 -12.5q0 -13 -17 -31t-40 -36t-46 -33.5t-34 -23.5
q-5 -4 -5 -8q0 -2 2 -3t4 -1q7 0 27.5 9t46.5 24.5t55 36t53 42.5t39.5 44.5t15.5 42.5z" />
    <glyph glyph-name="less" unicode="&#x3c;" horiz-adv-x="472" 
d="M430 133q-24 17 -50.5 37.5t-50.5 40.5t-43.5 37.5t-28.5 29.5q-7 8 -7 17q0 11 21 19q24 10 62 22t80.5 24.5t86 24.5t79.5 21q18 4 18 17q0 8 -6 13t-19 5q-2 0 -6 -0.5t-9 -1.5q-21 -3 -65.5 -13t-98.5 -24t-109.5 -31.5t-97.5 -36.5q-23 -11 -23 -32q0 -10 6 -19
q21 -28 50 -53.5t60.5 -48.5t63.5 -42.5t59 -34.5q10 -5 17 -5q10 0 16.5 5t6.5 12q0 4 -2 8t-10 9z" />
    <glyph glyph-name="equal" unicode="=" horiz-adv-x="444" 
d="M444 185q16 0 25 9t9 20q0 17 -32.5 22.5t-83.5 5.5q-30 0 -72.5 -3t-81.5 -10t-66 -18t-27 -27q0 -9 11 -9q23 0 78.5 8t134.5 8q16 0 33 -1t32 -2t26 -2t14 -1zM509 320q18 0 28 9.5t10 24.5q0 11 -8.5 16.5t-21 8t-28.5 2.5h-31q-14 0 -40 -1.5t-57.5 -4.5t-63.5 -7.5
t-58.5 -11.5t-43.5 -16t-17 -20q0 -10 14 -10q10 0 35 2t56.5 5t66.5 5.5t67 2.5q31 0 54 -2.5t38 -2.5z" />
    <glyph glyph-name="greater" unicode="&#x3e;" horiz-adv-x="472" 
d="M527 278q0 15 -12 24q-29 23 -63.5 47t-66 44t-56 32.5t-34.5 12.5t-15 -6t-5 -12q0 -7 9 -12q17 -11 36 -24t37 -27t34.5 -27.5t30.5 -25.5q10 -8 10 -15q0 -8 -12 -14q-36 -19 -76 -37.5t-81.5 -35.5t-82.5 -32t-77 -27q-17 -6 -17 -20q0 -6 5 -11t15 -5q11 0 37.5 7
t62.5 18.5t77.5 26t82.5 30.5t78 32t63 29q20 11 20 28z" />
    <glyph glyph-name="question" unicode="?" horiz-adv-x="455" 
d="M426 569q22 0 38.5 -7.5t27.5 -19.5t16.5 -27t5.5 -30q0 -36 -32 -72t-86 -77q-22 -17 -46.5 -35t-48.5 -39t-45.5 -44t-36.5 -48q-4 -7 -4 -14q0 -10 9 -10q12 0 23 18q12 21 33 40t45.5 37t51.5 34.5t51 30.5q39 23 70 42.5t53 42t33.5 50t11.5 65.5q0 57 -38 92
t-113 35q-52 0 -92 -22t-67 -53.5t-41 -65.5t-14 -58q0 -13 5 -20t12 -7q9 0 17.5 9t10.5 21q6 33 23.5 57.5t39.5 41t45.5 25t41.5 8.5zM200 54q0 11 -3.5 18t-15.5 7q-13 0 -26 -6t-23.5 -15.5t-17 -20t-6.5 -19.5q0 -28 29 -28q16 0 28 6.5t19.5 16t11.5 21t4 20.5z" />
    <glyph glyph-name="at" unicode="@" horiz-adv-x="562" 
d="M435 228q0 9 11.5 27t30 41t41 49t45.5 50q-7 6 -22 12t-43 6q-18 0 -41 -2.5t-49.5 -11.5t-54.5 -26.5t-56 -47.5q-21 -23 -32.5 -47t-11.5 -50q0 -17 9 -28.5t30 -11.5q12 0 27.5 7.5t31.5 19t31.5 24.5t26.5 25q-8 -10 -12.5 -19t-4.5 -23q0 -30 35 -30q13 0 30.5 6
t36 15.5t36 21.5t30.5 23q16 14 35 32t35.5 40t27 46.5t10.5 51.5q0 51 -34 74.5t-86 23.5q-75 0 -146 -24.5t-126.5 -68.5t-89.5 -104.5t-34 -132.5q0 -46 27.5 -69t71.5 -23q38 0 80 16q18 7 18 18q0 6 -5 6q-3 0 -6 -1t-7 -3q-15 -7 -33.5 -11t-35.5 -4q-38 0 -62.5 19.5
t-24.5 58.5q0 63 33.5 118t86 96.5t118 65.5t129.5 24q53 0 79 -22t26 -57q0 -21 -9 -42t-23 -40.5t-30.5 -36t-31.5 -28.5q-14 -12 -30 -23t-32 -20t-29 -14.5t-21 -5.5q-6 0 -6 10zM323 267q0 15 13.5 38t45.5 47q29 22 54 28t43 6q17 0 27 -2q-15 -14 -37.5 -34.5
t-48.5 -43.5q-26 -21 -51.5 -39t-36.5 -18q-9 0 -9 18z" />
    <glyph glyph-name="A" unicode="A" horiz-adv-x="668" 
d="M502 -1q18 28 41.5 67.5t48 82t46.5 84.5t37 76q13 1 27 1h33q27 0 41.5 9.5t14.5 25.5q0 8 -7.5 14t-23.5 6h-33q-14 0 -25 -1q14 31 31 68t31.5 73.5t24 69t9.5 53.5q0 24 -12 30t-22 6q-28 0 -70 -22.5t-89.5 -57.5t-97 -78.5t-94 -85.5t-79.5 -78t-54 -57
q-36 -10 -68.5 -19.5t-62.5 -21.5q-11 -5 -17 -12.5t-6 -14.5q0 -9 10 -9q4 0 16.5 3.5t27 7.5t28 8t19.5 6q-12 -12 -35 -36.5t-50 -53t-53.5 -58t-46.5 -53.5q-12 -15 -12 -27q0 -11 9.5 -18t23.5 -7q12 0 25 6.5t24 20.5q24 34 52.5 68.5t58 67.5t57 63t50.5 54
q24 5 54.5 11t63.5 11.5t67 11t66 9.5q-11 -19 -29 -51.5t-40 -71t-46.5 -80t-48.5 -78.5q-12 -20 -12 -33q0 -14 10 -21.5t24 -7.5q16 0 33 9.5t30 29.5zM383 316q41 39 88 82t89.5 79t74.5 60t44 24q4 0 5 -3.5t1 -7.5q0 -12 -6.5 -33.5t-17 -48t-24 -55t-27.5 -54.5
q-58 -7 -119 -19.5t-108 -23.5z" />
    <glyph glyph-name="B" unicode="B" horiz-adv-x="681" 
d="M634 296q0 -31 -15.5 -61.5t-41 -58t-58 -50.5t-66 -40.5t-65.5 -27t-56 -9.5q-21 0 -28.5 7t-7.5 12q0 11 23.5 25.5t74.5 28.5q17 5 17 17q0 10 -14 10q-7 0 -12 -1q-26 -5 -56.5 -14.5t-56.5 -24t-43 -33t-17 -41.5q0 -22 25 -38.5t70 -16.5q72 0 145.5 29.5
t133.5 75.5t97.5 102.5t37.5 110.5q0 36 -27.5 57.5t-68.5 21.5q-14 0 -22.5 -1t-16.5 -3q34 16 76 38t78.5 48t61.5 54t25 56q0 37 -40.5 58t-108.5 21q-39 0 -82.5 -7t-90 -21t-93 -36.5t-91.5 -53.5q-17 -12 -25.5 -26t-8.5 -23q0 -12 10 -12q6 0 17 8q15 12 35 23t41 21
t41.5 19t37.5 17q-16 -18 -49 -58t-74.5 -90.5t-86 -106.5t-83.5 -106.5t-68 -90t-38 -56.5q-6 -11 -8 -16.5t-2 -9.5q0 -14 11.5 -21.5t27.5 -7.5q13 0 27 6.5t24 21.5q17 26 50 71.5t73.5 100.5t85 114.5t84.5 112.5t71.5 95l46.5 62q26 9 50 13.5t50 4.5q36 0 55.5 -13
t19.5 -33q0 -24 -20 -48.5t-51.5 -47.5t-70 -45t-75.5 -41q-19 0 -36 -2.5t-30.5 -7.5t-21.5 -13.5t-8 -20.5q0 -11 7 -17.5t26 -6.5q26 0 50.5 15t47.5 31q33 0 56.5 -11t23.5 -39z" />
    <glyph glyph-name="C" unicode="C" horiz-adv-x="566" 
d="M310 42q-47 0 -72.5 26.5t-25.5 75.5q0 37 24.5 83.5t64 94.5t89.5 94t100.5 81.5t96.5 57t78 21.5q42 0 42 -37q0 -14 -8.5 -29t-22.5 -30t-33 -29t-40 -26q-8 -5 -17 -6.5t-18.5 -2l-19 -1t-18.5 -4.5q-14 -6 -23 -15t-9 -21q0 -11 9 -13.5t17 -2.5q19 0 45 8.5
t54 24.5t56 37t49.5 47t35 54.5t13.5 58.5q0 29 -24.5 41.5t-58.5 12.5q-46 0 -107 -22.5t-125.5 -61.5t-127.5 -90t-112.5 -108t-80 -116.5t-30.5 -114.5q0 -68 40 -109.5t106 -41.5q56 0 106 14t92 35.5t75.5 46.5t57.5 48q16 16 16 27q0 9 -8 9t-20 -12
q-21 -22 -50.5 -41t-64.5 -33.5t-73.5 -22.5t-77.5 -8z" />
    <glyph glyph-name="D" unicode="D" horiz-adv-x="664" 
d="M234 511q14 0 36 15q44 29 100.5 51.5t119.5 22.5q39 0 75.5 -9t64 -27.5t44.5 -46t17 -63.5q0 -49 -20 -98.5t-52.5 -95t-74.5 -84.5t-86 -68.5t-86.5 -46t-75.5 -16.5q-62 0 -75 80q22 34 58.5 85.5t77.5 108.5t83.5 114t78.5 103q7 10 7 17q0 8 -7 12.5t-18 4.5
q-14 0 -23 -9q-41 -44 -96 -110t-113.5 -139.5t-114 -146.5t-96.5 -130q-7 -10 -7 -18t4.5 -16t11 -14.5t15 -11t17.5 -4.5q16 0 28 16q5 6 17 24.5t23 36.5q9 -33 38 -55t71 -22q52 0 108 18t109 51t101 78.5t84 100.5t57 118t21 130q0 44 -16.5 79.5t-47.5 60t-75 38
t-98 13.5q-33 0 -69.5 -6.5t-71.5 -18.5t-66.5 -28.5t-56.5 -37.5q-17 -14 -24.5 -26t-7.5 -20q0 -10 11 -10z" />
    <glyph glyph-name="E" unicode="E" horiz-adv-x="580" 
d="M364 260q38 62 75.5 114.5t82.5 94.5q21 20 21 39q0 12 -9 19.5t-23 7.5q-13 0 -28 -7t-30 -23q-39 -41 -77.5 -96.5t-83.5 -124.5q-24 -38 -54.5 -80.5t-60.5 -82t-56.5 -72t-42.5 -50.5q-7 -8 -7 -20q0 -11 6 -18.5t17 -7.5q12 0 49.5 9t90.5 19.5t115.5 19.5t124.5 9
q65 0 65 47q0 12 -10 21.5t-32 9.5q-80 0 -156.5 -14t-133.5 -30q32 38 72.5 92t84.5 124zM248 454q6 0 13 3.5t16 8.5q43 24 98 43.5t112 34t111 22t96 7.5q25 0 40 -1.5t23.5 -4t11 -6.5t2.5 -9q0 -10 -9.5 -21.5t-20.5 -19.5q57 15 89 37.5t32 55.5q0 26 -31.5 35
t-86.5 9q-53 0 -116 -11.5t-127.5 -31t-127.5 -46.5t-117 -57q-12 -7 -17.5 -15.5t-5.5 -16.5q0 -16 15 -16zM596 377q-19 0 -38 -3t-35.5 -6.5t-29 -7.5t-17.5 -5q-31 -9 -46.5 -26t-15.5 -28t12 -11q10 0 27.5 4.5t34.5 8.5q22 5 41.5 9.5t51.5 4.5q25 0 40 13t15 27
t-11.5 17t-28.5 3z" />
    <glyph glyph-name="F" unicode="F" horiz-adv-x="556" 
d="M386 364q16 24 35 51t37.5 53t35.5 49.5t29 40.5q27 6 58.5 12t65.5 6q92 0 92 -26q0 -13 -11.5 -22t-25.5 -17q48 14 78.5 39.5t30.5 61.5q0 9 -4.5 15.5t-16.5 11t-32.5 7t-52.5 2.5q-53 0 -116 -11.5t-127.5 -31t-127.5 -46.5t-117 -57q-12 -7 -18 -15.5t-6 -16.5
q0 -16 16 -16q5 0 9 1.5t11 5.5q20 11 46 22.5t52.5 21.5t51.5 18t44 14q-17 -24 -33 -46t-32 -45t-33 -47.5t-36 -52.5q-28 -9 -59.5 -19.5t-60.5 -24.5q-5 -2 -7.5 -6t-2.5 -7q0 -6 5 -6q2 0 8 2q23 9 46 14.5t46 10.5q-16 -23 -39 -55t-48.5 -68.5t-51 -75t-45.5 -72.5
q-3 -6 -3 -13q0 -14 12 -28t28 -14q19 0 31 19q25 36 54 80t57.5 88t54.5 83.5t45 66.5q31 6 55 8.5t45 4t40 1.5h43q8 0 16 5.5t14.5 13t10.5 16t4 14.5q0 10 -10 10q-60 0 -109 -10.5t-82 -19.5z" />
    <glyph glyph-name="G" unicode="G" 
d="M733 272q-5 0 -22.5 -2.5t-43.5 -6t-57.5 -8.5t-64 -10.5t-63.5 -10t-56 -8.5q-14 -2 -22 -10.5t-8 -16.5t8.5 -14t27.5 -6q8 0 23.5 1t33 3t35.5 4t32 4q-23 -29 -55 -56.5t-66.5 -48.5t-68.5 -34t-62 -13q-43 0 -69 26t-26 77q0 49 22 101.5t59.5 102.5t86.5 94t102 77
t106.5 52.5t101.5 19.5q32 0 46.5 -18t14.5 -46q-1 -28 -13.5 -58t-32.5 -54q-12 -15 -12 -28q0 -16 17 -16q10 0 21 9q38 34 60 82.5t22 93.5q0 42 -27 69.5t-90 27.5q-67 0 -136 -22.5t-134 -61.5t-122 -90.5t-99.5 -109.5t-67 -118.5t-24.5 -117.5q0 -78 42.5 -116.5
t116.5 -38.5q60 0 114 20.5t100 52.5t83 71t63 77q17 2 39 4.5t44 6.5q26 5 37.5 16.5t11.5 23.5q0 10 -7 17t-21 7z" />
    <glyph glyph-name="H" unicode="H" horiz-adv-x="657" 
d="M333 308q20 4 50 9t64 9t68.5 7t64.5 3q-21 -27 -47.5 -64t-55 -78.5t-56.5 -84t-51 -80.5q-5 -9 -6 -14.5t-1 -8.5q0 -13 13.5 -22t30.5 -9q22 0 33 17q36 54 70.5 105t65.5 96t56.5 82t42.5 63q26 0 45 -4t19 -14q0 -6 -11 -17q36 16 52 34t16 33q0 12 -6.5 19
t-17 10.5t-25 4.5t-29.5 1q14 19 33 43.5t39.5 51.5t41.5 55.5t39 55.5q5 8 7 16t2 13q0 14 -12 23.5t-34 9.5q-21 0 -40.5 -6.5t-39.5 -26.5q5 2 9 2h12q17 0 17 -9q0 -7 -7 -15q-18 -21 -37.5 -47t-40 -53.5t-40 -55.5t-35.5 -53q-43 -2 -82.5 -7t-73 -11.5t-60.5 -13
t-45 -11.5q14 20 38 51.5t51 67t54 70.5t48 62q4 4 4 9q0 10 -13 15.5t-29 5.5q-11 0 -22 -3t-18 -11q-28 -29 -62.5 -70t-68 -83.5t-63 -81t-47.5 -62.5q-12 -4 -26 -8t-26 -8.5t-20 -9.5t-8 -11q0 -8 6.5 -10t10.5 -2q8 0 18 2.5t21 5.5q-20 -25 -44 -59.5t-47.5 -70.5
t-43 -71t-31.5 -60q-7 -15 -7 -23q0 -12 11.5 -19.5t27.5 -7.5q13 0 26 6.5t21 21.5q13 25 38 63.5t53.5 81t58 83t51.5 68.5z" />
    <glyph glyph-name="I" unicode="I" horiz-adv-x="507" 
d="M371 78q-30 0 -59 -3t-49 -7q37 56 79 117t86 123t89 124t90 119q-6 8 -7 9q12 2 28 3t32 1q29 0 37 -2.5t8 -7.5q0 -7 -3.5 -12.5t-8.5 -10.5q27 9 44.5 28t17.5 46q0 20 -14.5 28t-36.5 8q-33 0 -76 -6t-85.5 -15t-79 -20t-57.5 -21q-18 -8 -26.5 -21.5t-8.5 -26.5
q0 -18 14 -18q4 0 8.5 1t14.5 7q9 5 23 9t29 7t29 5t23 2q-39 -53 -81.5 -111.5t-86 -119t-86 -123t-82.5 -124.5l7 -6q-10 -2 -24.5 -4t-30.5 -4.5t-31.5 -5.5t-27.5 -6q-14 -4 -21.5 -16t-7.5 -26q0 -11 5.5 -19t19.5 -8q7 0 41.5 6.5t81 14.5t99 16.5t95.5 12.5
q27 3 27 28q0 18 -9.5 23.5t-28.5 5.5z" />
    <glyph glyph-name="J" unicode="J" horiz-adv-x="492" 
d="M-79 -170q43 0 90 12.5t95.5 39t97 66.5t93.5 94q43 52 84 114t80 128.5t75 134.5t71 132q-2 2 -3.5 4.5t-3.5 4.5q12 2 28 3t32 1q31 0 38.5 -1.5t7.5 -8.5q0 -5 -4 -11.5t-9 -11.5q28 5 45 26.5t17 42.5q0 26 -16 33.5t-35 7.5q-33 0 -76 -6t-85.5 -15t-79 -20
t-57.5 -21q-18 -8 -26.5 -22.5t-8.5 -25.5q0 -8 4 -14t11 -6q5 0 15 5q12 7 27 12t30 8t29.5 5t24.5 3q-21 -50 -53 -112.5t-70.5 -127t-80 -125.5t-80.5 -107q-34 -41 -71.5 -72t-76 -52t-75.5 -32t-70 -11q-42 0 -72 18.5t-46 56.5q-7 17 -28 17q-11 0 -22 -11t-11 -29
q0 -19 10.5 -41.5t31.5 -41.5t51.5 -31.5t71.5 -12.5z" />
    <glyph glyph-name="K" unicode="K" horiz-adv-x="607" 
d="M79 -35q8 0 15.5 4t12.5 14q26 45 61 100t73.5 113.5t78 117.5t76.5 111.5t68 95t53 68.5q6 8 8 12t2 9q0 8 -4.5 15.5t-12 13.5t-16.5 10t-18 4q-15 0 -23 -11q-48 -64 -104 -146.5t-111.5 -167.5t-105.5 -165t-86 -140q-6 -10 -6 -22q0 -13 12.5 -24.5t26.5 -11.5z
M736 608q-19 -20 -62 -55t-98.5 -76.5t-117.5 -84.5t-117 -78q-2 -2 -4 -6.5t-4 -9.5q-8 -26 -12 -54.5t-4 -57.5q0 -50 10.5 -86t27 -59.5t38 -35t44.5 -11.5q27 0 53.5 13t50 32t44 40.5t37.5 37.5q7 7 7 15q0 13 -10 13q-4 0 -9 -5l-25 -25t-29 -26t-31 -20t-31 -8
q-27 0 -45 13t-28.5 33t-14.5 45.5t-4 50.5q0 23 2.5 48.5t8.5 53.5q33 19 85.5 50.5t108.5 66.5t107.5 71t83.5 66q12 11 12 27q0 15 -11 27.5t-28 12.5q-18 0 -35 -18z" />
    <glyph glyph-name="L" unicode="L" horiz-adv-x="526" 
d="M375 335q47 78 99.5 143.5t106.5 116.5q20 20 20 38q0 13 -10 21t-25 8q-13 0 -28 -6.5t-30 -22.5q-20 -20 -44.5 -49.5t-52 -65t-55.5 -76t-53 -83.5q-32 -53 -69 -109t-72.5 -106t-65.5 -88.5t-46 -56.5q-7 -8 -7 -20q0 -11 6 -18.5t17 -7.5h5q3 0 9 1q31 6 70 15.5
t85 18.5t98.5 15.5t112.5 6.5q32 0 48.5 15t16.5 32q0 12 -10 21.5t-32 9.5q-80 0 -156.5 -14t-133.5 -30q21 28 42.5 57.5t45 64t50 75.5t58.5 94z" />
    <glyph glyph-name="M" unicode="M" horiz-adv-x="938" 
d="M468 714q-21 0 -42.5 -15t-21.5 -46q0 -5 0.5 -10t0.5 -9q0 -42 -28.5 -109t-73 -145t-99 -160t-106.5 -155q-6 -8 -8.5 -16.5t-2.5 -16.5q0 -21 15 -36t35 -15q12 0 25 6.5t24 22.5q45 62 94.5 125.5t98 122t93.5 109.5t82 89t63 59.5t37 21.5q7 0 7 -11
q0 -20 -16.5 -68t-43.5 -107.5t-62.5 -122.5t-74.5 -113q-16 -22 -16 -41t12.5 -31t30.5 -12q12 0 25 6.5t24 21.5q66 84 130.5 155t119.5 123.5t95 82t55 29.5q9 0 9 -12q0 -5 -6 -24t-24 -55.5t-51 -92t-87 -133.5q-21 -31 -31 -64t-10 -64q0 -43 12 -62.5t33 -19.5
q19 0 35 11.5t16 29.5q0 9 -1 15.5t-3 11.5t-3 14t-1 23q0 26 6.5 52.5t21.5 47.5q31 44 64 99.5t60.5 110t45 101.5t17.5 75q0 30 -23 30q-22 0 -60.5 -18.5t-92 -60t-121.5 -109t-149 -166.5q37 57 65 115.5t46.5 111t27.5 96t9 70.5q0 47 -33 47q-34 0 -79.5 -31.5
t-94 -79.5t-97 -105.5t-89 -110t-69.5 -93t-39 -54.5q65 93 113 170t79.5 141t47 116.5t15.5 95.5q0 23 -8.5 29.5t-22.5 6.5z" />
    <glyph glyph-name="N" unicode="N" horiz-adv-x="686" 
d="M495 620q-22 0 -41 -16t-36 -43q-14 -22 -41 -60t-62 -86t-74 -101.5t-75.5 -104.5t-68.5 -96.5t-52 -77.5q-7 -11 -7 -24q0 -16 12 -26t24 -10q19 0 27 12q56 81 106.5 150.5t91 125.5t70 96.5t43.5 61.5q-9 -24 -22.5 -62t-25.5 -82t-21 -90t-9 -85q0 -63 16.5 -94
t58.5 -31q32 0 79 33.5t98.5 88.5t103 124.5t92 141t66 139t25.5 117.5q0 16 -8.5 23t-19.5 7q-34 0 -40 -34q-8 -42 -32.5 -99.5t-58.5 -119.5t-74.5 -123t-80 -109t-74.5 -78t-58 -30q-18 0 -25.5 15.5t-7.5 40.5q0 45 13 102t32.5 116t41 115t39.5 101q7 17 7 35
q0 19 -9 28t-23 9z" />
    <glyph glyph-name="O" unicode="O" 
d="M254 -16q68 0 133.5 24.5t123 65.5t106 94.5t83.5 111.5t54.5 116.5t19.5 109.5q0 41 -14 70.5t-37.5 48.5t-54.5 28t-66 9q-76 0 -128.5 -35t-69.5 -91q-54 -24 -107 -73.5t-95 -110.5t-68 -125.5t-26 -117.5q0 -69 38.5 -97t107.5 -28zM459 427q0 5 -1 8q-1 5 -1.5 11
t-0.5 12q0 11 1.5 23t6.5 22q15 11 28 17t30 14q8 3 13 11t5 16q0 6 -4 10.5t-13 4.5q-12 0 -24.5 -5.5t-18.5 -8.5q2 6 10.5 16t23.5 20.5t37 18t50 7.5q52 0 76 -24t24 -66q0 -40 -19.5 -93t-52.5 -109t-77 -110.5t-93 -97t-99.5 -68.5t-97.5 -26q-35 0 -50 13.5t-15 50.5
t18.5 89.5t49 105.5t69 100t78.5 74q5 -24 15.5 -36t21.5 -12q10 0 10 12z" />
    <glyph glyph-name="P" unicode="P" horiz-adv-x="597" 
d="M282 506q6 0 20 12q49 48 115.5 76t128.5 28q64 0 92.5 -27.5t28.5 -77.5q0 -56 -27 -99t-69 -72.5t-93 -45t-99 -15.5q-23 0 -35 3q19 31 43 66.5t46.5 69t42 62t30.5 46.5q7 11 7 20q0 13 -12 19.5t-27 6.5q-12 0 -23 -4t-17 -12q-14 -19 -34.5 -51.5t-43.5 -69
l-46 -73t-42 -63.5q-8 4 -17 7.5t-16 3.5q-8 0 -11.5 -5.5t-3.5 -10.5q0 -9 9 -16.5t17 -12.5q-12 -19 -33.5 -50t-45.5 -65.5t-46.5 -67t-37.5 -54.5q-5 -8 -6.5 -12.5t-1.5 -10.5q0 -11 12.5 -20.5t26.5 -9.5q17 0 27 15q17 25 42.5 61t52 72.5t48.5 68.5t32 49
q11 -4 30 -8.5t46 -4.5q62 0 127 22.5t118.5 62.5t87.5 95t34 119q0 61 -42.5 99.5t-134.5 38.5q-39 0 -81.5 -8.5t-82.5 -25t-74 -40t-57 -53.5q-12 -16 -12 -29q0 -9 7 -9z" />
    <glyph glyph-name="Q" unicode="Q" horiz-adv-x="562" 
d="M181 0q57 0 110 15t84 37q8 -21 21 -44.5t26.5 -43.5t26 -33t18.5 -13q8 0 8 8q0 5 -4 12q-25 38 -39 71t-25 65q29 15 65 43t72 65t70.5 80.5t61.5 88.5t43 89.5t16 84.5q0 34 -14.5 60.5t-39 45.5t-58 29t-72.5 10q-72 0 -122.5 -40t-70.5 -104q-56 -27 -107 -78.5
t-90 -111.5t-62 -121.5t-23 -109.5q0 -51 27.5 -78t77.5 -27zM323 284q0 -42 6.5 -85.5t22.5 -91.5q-12 -9 -29 -18.5t-37 -17.5t-41 -13t-40 -5q-21 0 -33 13t-12 43q0 33 14.5 76t39.5 88.5t58.5 89.5t70.5 79q-8 -35 -14 -74.5t-6 -83.5zM421 558q14 30 47.5 50t75.5 20
q23 0 45.5 -6.5t40 -18.5t28 -30t10.5 -42q0 -49 -26 -104t-67 -108t-91 -101t-99 -83q-9 27 -13 58.5t-4 66.5q0 54 8.5 111t22.5 110q35 26 62 38t34 12q5 0 5 -17q7 11 11 23t4 23q0 22 -21 22q-6 0 -16 -2t-20.5 -5.5t-20.5 -8t-16 -8.5z" />
    <glyph glyph-name="R" unicode="R" horiz-adv-x="632" 
d="M580 666q-49 0 -100.5 -10.5t-98 -31.5t-85 -52t-60.5 -71q-5 -12 -5 -19q0 -8 3 -14t8 -6q6 0 18 15q30 36 65 61t72 41.5t74.5 24t72.5 7.5q84 0 127 -31.5t43 -87.5q0 -52 -30.5 -92t-78 -67t-105 -41.5t-111.5 -16.5q-29 -2 -36.5 -24t-7.5 -64t6.5 -84t22 -79.5
t43 -69t69.5 -54.5q13 -7 29 -7q23 0 43.5 10.5t20.5 23.5q0 7 -9 15q-81 61 -114.5 132t-35.5 161q82 4 152.5 26t122.5 58t81 83.5t29 102.5q0 39 -16 69t-45.5 50.5t-71 31t-92.5 10.5zM155 -11q28 48 70.5 115.5t88.5 138.5t89.5 137.5t73.5 111.5q6 10 6 19
q0 13 -11 19.5t-24 6.5q-9 0 -17.5 -3t-13.5 -10q-17 -23 -42 -58.5t-55 -78.5t-63 -90.5t-64 -93.5t-58.5 -88.5t-46.5 -74.5q-4 -5 -4 -14t4 -18.5t11 -17t15.5 -12.5t16.5 -5q14 0 24 16z" />
    <glyph glyph-name="S" unicode="S" horiz-adv-x="537" 
d="M347 286q23 -29 42.5 -57t19.5 -61q0 -31 -14.5 -55t-39.5 -40.5t-58.5 -25t-70.5 -8.5q-49 0 -77.5 17.5t-28.5 43.5q0 16 9.5 31t26 28t37.5 22t45 13t24 14q0 5 -8.5 10t-24.5 5q-26 0 -55.5 -10.5t-55.5 -28.5t-43 -42.5t-17 -53.5q0 -59 35.5 -91t112.5 -32
q89 0 147.5 20t93 52t48 71.5t13.5 77.5q0 34 -19 65.5t-45 63.5q-15 17 -26.5 30t-19.5 25.5t-12 26t-4 31.5q0 31 28 60t67.5 52t81 37t68.5 14t35.5 -9t8.5 -26q0 -15 -10.5 -35t-25.5 -40.5t-32 -38t-31 -26.5q-15 -11 -15 -22q0 -7 5.5 -12t14.5 -5q8 0 21 7
q27 17 56 46.5t52.5 62.5t39 65.5t15.5 56.5q0 50 -62 50q-39 0 -84.5 -10.5t-91 -29t-87.5 -43.5t-74.5 -53t-52 -58.5t-19.5 -60.5q0 -38 18 -67.5t39 -56.5z" />
    <glyph glyph-name="T" unicode="T" 
d="M225 430q0 6 7 10q41 24 88 42t89 31t73.5 20.5t43.5 10.5q-44 -53 -94.5 -118t-100 -132t-93.5 -131t-74 -115q-5 -9 -6.5 -13t-1.5 -6q0 -8 6 -15t14.5 -12.5t19 -8.5t19.5 -3q17 0 21 10q20 41 56 97.5t78.5 117.5t86.5 120.5t79.5 107t58 77.5t22.5 32t-2.5 4t-4.5 4
q26 3 50.5 4t47.5 1q42 0 66 -0.5t36 -2t15 -4.5t3 -7q0 -9 -11 -22q32 14 47 34.5t15 39.5q0 25 -26.5 31.5t-76.5 6.5q-68 0 -138.5 -9.5t-140 -27.5t-136 -43.5t-124.5 -57.5q-14 -8 -24 -21.5t-10 -29.5q0 -17 8 -25.5t23 -10.5q-9 6 -9 14z" />
    <glyph glyph-name="U" unicode="U" horiz-adv-x="685" 
d="M537 642q-16 0 -31.5 -4.5t-27.5 -15.5q-45 -38 -91 -85.5t-88.5 -99t-79 -105t-64 -103.5t-43 -95t-15.5 -79q0 -37 21.5 -63t70.5 -26q39 0 83.5 18t89 48t87.5 70t80 85q-11 -29 -17.5 -57t-6.5 -54q0 -32 9 -50.5t31 -18.5q15 0 34.5 10.5t41 27t43.5 37t42 41.5
q9 9 9 18q0 12 -10 12q-6 0 -12 -7q-12 -13 -26.5 -25t-29.5 -21.5t-29 -15.5t-24 -6q-13 0 -16.5 7t-3.5 21q0 16 3.5 34t9 36t12 35t12.5 32q74 72 136 140t95 141q7 17 7 25q0 14 -10 22.5t-24 8.5q-10 0 -20.5 -4t-20.5 -13q-57 -50 -107.5 -121t-86.5 -148
q-12 -15 -34.5 -40.5t-51.5 -55t-62.5 -60t-67 -55t-65.5 -40t-57 -15.5q-50 0 -50 45q0 24 16 61.5t44 82t65.5 93.5t80 97t88 92.5t90.5 79.5q23 19 23 33t-15.5 22t-36.5 8z" />
    <glyph glyph-name="V" unicode="V" horiz-adv-x="598" 
d="M514 640q-17 0 -35.5 -7t-33.5 -23q-41 -42 -80.5 -95.5t-76 -110.5t-67.5 -114.5t-54 -109t-36 -93t-13 -65.5q0 -21 10.5 -33t27.5 -12q32 0 79 34t104 88t121.5 122t132 135t135.5 127t133 99q12 7 17.5 16.5t5.5 20.5q0 20 -16.5 33t-35.5 13q-26 0 -57 -21
q11 -8 11 -19t-11 -20q-56 -43 -115 -100t-116 -117t-109.5 -118t-94.5 -104t-71.5 -74t-41.5 -28q-7 0 -7 11q0 14 14 48t37.5 79t55 98t66.5 104.5t71 99t70 81.5q17 17 17 31q0 12 -10.5 18t-26.5 6z" />
    <glyph glyph-name="W" unicode="W" horiz-adv-x="925" 
d="M554 654q-18 0 -39.5 -11t-38.5 -25q-42 -35 -86.5 -80.5t-87 -95t-80.5 -102t-66.5 -101t-45 -92t-16.5 -75.5q0 -43 21 -71.5t63 -28.5q27 0 61.5 13t74 39.5t82 67t84.5 94.5q-14 -26 -27.5 -57t-13.5 -68q0 -57 32 -86t83 -29q41 0 87.5 23.5t94.5 63.5t95.5 92.5
t91 109t81 114.5t65 109t43 91.5t15.5 63.5q0 18 -12 29.5t-29 11.5q-16 0 -27 -6t-18.5 -15t-12 -21t-7.5 -24q-17 -56 -49.5 -120.5t-74 -128.5t-88.5 -123t-92.5 -104.5t-86.5 -73t-70 -27.5t-42 15.5t-13 51.5q0 30 20.5 71t56.5 92t85.5 112t107.5 131q18 21 18 41
q0 21 -13.5 30t-31.5 9q-20 0 -38 -13.5t-34 -38.5q-27 -42 -64.5 -93.5t-81 -105t-89 -104.5t-87 -90.5t-76.5 -63.5t-57 -24q-17 0 -30 14.5t-13 40.5q0 27 16 63t43 77t64 85.5t78 88.5t85 85t86 76q36 30 36 62q0 15 -9 23t-23 8z" />
    <glyph glyph-name="X" unicode="X" horiz-adv-x="568" 
d="M402 642q-10 0 -21 -4t-20.5 -10.5t-17 -16t-10.5 -21.5q-11 -48 -15 -94t-4 -88q0 -38 1.5 -65t4 -46.5t5.5 -34.5t5 -28q-21 -19 -55.5 -48.5t-72.5 -61.5t-75.5 -62.5t-65.5 -51.5q-11 -8 -15.5 -15.5t-4.5 -13.5q0 -17 22 -17q8 0 17 3t18 10q33 25 69 54.5
t69.5 57.5t61 51.5t43.5 37.5q18 -75 53.5 -130t94.5 -91q22 -13 43 -13q20 0 33 8.5t13 15.5q0 5 -1.5 8t-8.5 8q-33 27 -56 57t-39 63t-26.5 69t-18.5 75q10 8 35 29t58 49.5t71 62t75 67.5t69.5 65.5t54.5 55.5q11 11 16 20.5t5 25.5q0 15 -12.5 20.5t-27.5 5.5
q-40 0 -78 -43q11 4 21 4q17 0 17 -10q0 -6 -6 -13q-12 -14 -35 -37t-52 -50t-62 -56.5t-63.5 -56.5t-55.5 -49t-40 -34q-2 12 -3 24t-1.5 27t-1 34.5t-0.5 47.5q0 42 3 86.5t11 81.5q1 5 1.5 8.5t0.5 6.5q0 12 -7.5 17t-18.5 5z" />
    <glyph glyph-name="Y" unicode="Y" horiz-adv-x="730" 
d="M122 -196q-22 0 -31 10t-9 31q0 14 5.5 28.5t12 28t12 24.5t5.5 17q0 18 -24 18q-13 0 -30.5 -12t-33 -32t-26.5 -45.5t-11 -53.5q0 -47 27.5 -72.5t78.5 -25.5q60 0 124.5 38.5t130 100t128.5 139.5t119 156q87 121 154.5 218.5t115.5 154.5q8 9 8 20q0 12 -11 20t-25 8
q-9 0 -18 -4t-16 -13q-41 -51 -88.5 -99.5t-97 -91.5t-98 -79.5t-90.5 -63t-74.5 -41t-50.5 -14.5q-46 0 -46 57q0 35 26.5 83t66.5 98t87 95.5t89 76.5q32 24 32 52q0 21 -17 29t-29 8q-25 0 -48 -14.5t-37 -26.5q-48 -44 -96 -98t-86.5 -111.5t-62.5 -115t-24 -106.5
q0 -45 23.5 -67.5t65.5 -22.5q44 0 98.5 22.5t107.5 55t99.5 69t75.5 65.5q-19 -26 -55 -74.5t-82 -105.5t-98.5 -116.5t-103 -107.5t-96 -79t-77.5 -31z" />
    <glyph glyph-name="Z" unicode="Z" horiz-adv-x="549" 
d="M184 55q23 25 70 69t104.5 97t121 111t120.5 111.5t101.5 97.5t65.5 69q8 10 8 14q0 14 -53 14q-33 0 -87.5 -6.5t-113 -15.5t-111.5 -18t-83 -13q-7 -1 -14.5 -6.5t-14 -14t-11 -17.5t-4.5 -17q0 -9 6 -14.5t21 -5.5q6 0 30 3.5t58 9t73 11.5t74.5 11.5t63 9t38.5 3.5
q-20 -19 -60 -55.5t-91.5 -83.5t-111 -101t-118.5 -108t-114 -104.5t-97 -90.5q-11 -10 -17.5 -18t-6.5 -20q0 -11 12.5 -18.5t35.5 -7.5t59.5 10.5t76.5 20.5q34 8 89 16.5t132 13.5q22 1 40 8.5t30.5 18t19.5 22t7 21.5q0 11 -9 19t-29 8q-45 0 -94 -7t-93 -16.5
t-77.5 -18.5t-46.5 -12z" />
    <glyph glyph-name="bracketleft" unicode="[" horiz-adv-x="288" 
d="M407 610q8 13 17 16.5t22 3.5q9 0 22 -0.5t26.5 -1.5t25.5 -1.5t20 -0.5q17 0 26 6.5t9 16.5q0 7 -6 12.5t-20 6.5q-10 1 -24.5 2t-29.5 2t-29.5 2t-23.5 1q-17 0 -33.5 -5t-26.5 -20q-23 -34 -51.5 -82t-61 -104.5t-66 -118t-65 -122t-59 -117.5t-48.5 -104
q-13 -29 -13 -48q0 -22 14 -32.5t34 -13.5q10 -2 24.5 -4t31 -3.5t34 -2.5t33.5 -1q13 0 21 8t8 19q0 16 -9.5 19.5t-26.5 3.5q-29 0 -54 2t-41 6q-15 3 -15 17q0 4 1 8t3 9q13 33 36.5 82t53 106.5t62.5 119t65.5 119.5t62 108.5t51.5 85.5z" />
    <glyph glyph-name="backslash" unicode="\" horiz-adv-x="382" 
d="M436 -154q0 6 -1.5 14t-3.5 22q-7 44 -16.5 106.5t-20.5 134.5t-22.5 150t-23.5 152t-24 141t-22 118q-6 29 -19.5 42.5t-24.5 13.5q-7 0 -12 -4.5t-5 -11.5q0 -8 1 -13t3 -13q11 -57 24 -129t27 -150.5t27.5 -157.5t26 -150.5t23 -130.5t17.5 -96q5 -25 14 -41t23 -16
q9 0 9 19z" />
    <glyph glyph-name="bracketright" unicode="]" horiz-adv-x="395" 
d="M136 -46q-11 -18 -33 -20.5t-48 -2.5q-13 0 -27.5 1.5t-22.5 1.5q-14 0 -22 -6.5t-8 -14.5t6.5 -14t20.5 -8q15 -2 27.5 -3t24.5 -1q25 0 43 1.5t30.5 5t20.5 8.5t13 12q22 34 51.5 83t62.5 107t67.5 121.5t66.5 126t60 121t49 106.5q12 28 12 48q0 23 -14 34t-34 12
t-45.5 2t-61.5 1q-24 0 -34 -7.5t-10 -18.5q0 -8 6 -13t18 -5h106q17 0 17 -18q0 -3 -0.5 -8t-4.5 -17q-11 -32 -34 -82t-53.5 -108.5t-65 -122.5t-68.5 -123.5t-64 -111.5t-52 -87z" />
    <glyph glyph-name="asciicircum" unicode="^" horiz-adv-x="351" 
d="M394 523q4 0 5 -4q4 -15 9.5 -40.5t10 -52t8.5 -49t6 -31.5q3 -12 7 -12q6 0 7 14t1 31q0 25 -1.5 57.5t-4 63.5t-6 56.5t-7.5 37.5q-4 11 -11 11t-23 -13t-36.5 -34t-44.5 -47.5t-46.5 -53.5t-41.5 -52t-31 -43q-3 -5 -3 -8q0 -5 3 -5q2 0 6 4q3 3 17 16.5t34 32.5
t43 40t43.5 39t36 30t19.5 12z" />
    <glyph glyph-name="underscore" unicode="_" horiz-adv-x="400" 
d="M416 -35h-416v-30h416v30z" />
    <glyph glyph-name="grave" unicode="`" horiz-adv-x="305" 
d="M130 591q0 -5 2 -9.5t9 -10.5q9 -8 28.5 -23t40 -30t37.5 -26t21 -11q8 0 8 9q0 4 -15 22.5t-33.5 39t-35 38.5t-19.5 21q-8 8 -18 8t-17.5 -8.5t-7.5 -19.5z" />
    <glyph glyph-name="a" unicode="a" horiz-adv-x="465" 
d="M299 46q0 15 19.5 46.5t50.5 71t69.5 83.5t76.5 84q-11 14 -41 22.5t-78 8.5q-44 0 -92 -13t-94 -36t-87 -53.5t-72.5 -65.5t-50 -73t-18.5 -75q0 -24 13 -40t44 -16q22 0 55.5 19t68 45t66.5 53t51 44q-15 -19 -29.5 -42.5t-14.5 -58.5q0 -25 15 -41t44 -16
q25 0 54.5 16.5t56.5 39t50 45t35 34.5q14 14 14 24q0 8 -8 8t-15 -7q-17 -16 -39.5 -37t-46 -40.5t-45 -33t-34.5 -13.5q-18 0 -18 17zM95 97q0 20 24 52.5t81 80.5q64 53 115.5 71t80.5 18q14 0 24 -4q-27 -25 -68 -62.5t-83 -74.5q-24 -20 -48 -38.5t-45.5 -32.5
t-38.5 -22.5t-27 -8.5q-8 0 -11.5 6.5t-3.5 14.5z" />
    <glyph glyph-name="b" unicode="b" horiz-adv-x="526" 
d="M215 330q-21 -15 -50 -40t-59 -52.5t-57.5 -53.5t-45.5 -44q-14 -14 -14 -25q0 -8 8 -8t16 8q26 26 52.5 50.5t49.5 44.5t41.5 35t28.5 23q-16 -23 -31 -47.5t-26.5 -49.5t-18.5 -49t-7 -46q0 -40 26 -62t69 -22q37 0 70 11.5t59.5 28.5t47 36t33.5 35q23 -20 54 -20
q45 0 91 44q6 6 6 13q0 11 -10 11q-7 0 -14 -7q-32 -30 -66 -30q-25 0 -42 17q17 32 29.5 70.5t12.5 76.5q0 25 -7.5 47t-19.5 38.5t-27 25.5t-30 9q-11 0 -28 -5q22 24 49 51t53 55.5t49.5 57.5t38.5 55q8 14 10.5 24t2.5 15q0 17 -14 27t-33 10q-21 0 -40 -14
q-30 -24 -66.5 -69.5t-72 -96t-66.5 -99t-52 -79.5zM312 272q0 -37 10 -71t32 -54q-11 -15 -28 -32.5t-36.5 -32t-40.5 -24.5t-40 -10q-16 0 -26.5 9t-10.5 38q0 13 9 34t22.5 46t31 52t34.5 52t32 45.5t25 33.5q-14 -39 -14 -86zM403 274q0 -24 -6 -49.5t-17 -44.5
q-15 17 -21.5 43.5t-6.5 52.5q0 21 2.5 34t6.5 19.5t8 8.5t7 2q13 0 20 -21t7 -45z" />
    <glyph glyph-name="c" unicode="c" horiz-adv-x="359" 
d="M361 279q10 0 22.5 5.5t23.5 14t18 19t7 21.5q0 13 -12.5 20.5t-28.5 11.5t-32 4.5t-23 0.5q-40 0 -80 -13t-76.5 -34.5t-68.5 -50t-55 -59t-36.5 -61.5t-13.5 -58q0 -53 33 -81t87 -28q38 0 76.5 15t73.5 37.5t64.5 47t50.5 44.5q15 14 15 26q0 9 -7 9t-14 -7
q-21 -20 -48.5 -42t-59 -40t-64.5 -30t-63 -12q-26 0 -41 12.5t-15 38.5q0 38 25 78.5t59.5 73.5t72 54t61.5 21q9 0 16 -2t9 -7q3 -12 8 -20.5t16 -8.5z" />
    <glyph glyph-name="d" unicode="d" horiz-adv-x="429" 
d="M72 -13q22 0 47.5 10t50.5 26.5t47.5 36t38.5 39.5q-5 -15 -7.5 -27.5t-2.5 -23.5q0 -12 5 -20.5t12 -13.5t13 -7t8 -2q14 0 36 13t47 32t49.5 41.5t44.5 41.5q6 6 6 13q0 13 -10 13q-5 0 -11 -6q-16 -15 -34 -32t-35 -30.5t-32.5 -22.5t-26.5 -9q-10 0 -13.5 6t-3.5 14
q0 11 5 27t13.5 34t19 37.5t22.5 37.5q15 16 42 45t59.5 65t67.5 77t67 81.5t58.5 78t40.5 66.5q3 6 4.5 13.5t1.5 12.5q0 13 -9 20t-23 7t-29 -7t-29 -23q-29 -33 -59.5 -72.5t-58.5 -78t-50.5 -71.5t-34.5 -53q-17 3 -36 3q-72 0 -139 -30.5t-118.5 -77t-83 -101.5
t-31.5 -104q0 -36 18 -57.5t53 -21.5zM88 63q0 17 11.5 43.5t31.5 56.5t47.5 60.5t60 55t69 40t73.5 15.5q-17 -25 -29.5 -44.5t-23 -36t-19.5 -32.5t-19 -34q-16 -19 -40 -45t-49.5 -49.5t-50 -40t-40.5 -16.5q-22 0 -22 27z" />
    <glyph glyph-name="e" unicode="e" horiz-adv-x="351" 
d="M410 335q0 23 -16 37t-53 14q-42 0 -84 -15t-80 -40t-71.5 -57.5t-57.5 -68t-38 -70.5t-14 -66q0 -85 94 -85q38 0 79.5 14t80.5 35.5t73 47.5t57 50q14 15 14 25q0 9 -8 9t-15 -9q-21 -23 -50.5 -45.5t-61.5 -41.5t-64 -30.5t-58 -11.5q-44 0 -44 30q0 17 8 38.5
t21 42.5q52 6 103.5 26.5t92.5 48.5t66.5 60.5t25.5 61.5zM336 342q12 0 14.5 -3.5t2.5 -12.5q0 -16 -19 -38t-48 -41.5t-63.5 -33.5t-64.5 -14q18 26 42 51.5t49 46t48 33t39 12.5z" />
    <glyph glyph-name="f" unicode="f" horiz-adv-x="310" 
d="M482 679q-13 0 -27.5 -6.5t-31.5 -21.5q-47 -43 -109 -113t-126.5 -153.5t-127 -173.5t-112 -173t-79.5 -152.5t-30 -111.5q0 -39 17 -52.5t49 -13.5q59 0 110.5 34.5t89.5 88.5t60 119.5t22 128.5q0 9 -0.5 17t-1.5 16q10 -8 24 -17.5t45 -9.5q25 0 44 11.5t31 24.5
q6 6 8 11.5t2 9.5q0 10 -8 10q-6 0 -13 -7q-26 -27 -54 -27q-41 0 -96 57q-3 3 -6 3q-5 0 -6 -13q-6 -65 -31.5 -136.5t-58.5 -132.5t-67.5 -100.5t-59.5 -39.5q-13 0 -13 15q0 22 15 61.5t38.5 87t52 98.5t55 96t48 80t30.5 50q48 41 96 86t93 92t85 94.5t72 92.5
q11 15 11 32q0 16 -11 27t-29 11z" />
    <glyph glyph-name="g" unicode="g" horiz-adv-x="454" 
d="M-77 -216q0 -28 20 -49t67 -21q29 0 58 16.5t56 42.5t51 59.5t45.5 67t38.5 65t30 54.5q18 7 42 17.5t50.5 24t52.5 30.5t48 38q11 10 11 20q0 11 -10 11q-6 0 -12 -6q-16 -17 -38 -32t-44.5 -27t-42 -20.5t-31.5 -14.5q7 12 28.5 43.5t48 69.5t53 77t43.5 65
q2 3 2.5 5.5t0.5 4.5q0 4 -5 5.5t-13 1.5q-10 0 -21 -3t-16 -8q-22 -22 -48.5 -49t-54.5 -54t-56 -52.5t-52.5 -45.5t-45 -32t-32.5 -12q-28 0 -38.5 13t-10.5 43q0 35 24.5 77t71.5 78.5t115.5 61t155.5 24.5q26 0 26 19q0 11 -18.5 15.5t-74.5 4.5q-84 0 -154.5 -25.5
t-121.5 -66t-80 -90t-29 -98.5q0 -53 29.5 -78.5t69.5 -25.5q26 0 57 14.5t61.5 37t58.5 48.5t48 50q-9 -12 -22 -30t-27 -37.5t-28.5 -40t-26.5 -36.5q-65 -26 -121.5 -55t-98.5 -61t-66 -65.5t-24 -68.5zM17 -229q-8 0 -12.5 3t-4.5 12q0 25 20 53t50.5 55t66.5 51.5
t67 41.5q-19 -29 -45 -66.5t-52 -70.5t-50 -56t-40 -23z" />
    <glyph glyph-name="h" unicode="h" horiz-adv-x="458" 
d="M2 111q7 0 13 6l14.5 14.5t19.5 19t18.5 18.5t11.5 12q-43 -70 -67.5 -115t-24.5 -62q0 -10 9.5 -15t20.5 -5q14 0 18 7q50 65 88 110t68.5 75t56 47.5t50.5 27.5q6 2 8 2t2 -2t-2 -4q-11 -13 -30.5 -37.5t-39 -54t-34 -61t-14.5 -57.5q0 -25 17.5 -40.5t44.5 -15.5
t58.5 14t61.5 35t57 45t45 43q9 10 13 17.5t4 12.5q0 8 -7 8q-6 0 -14 -8q-21 -24 -47 -45.5t-50.5 -38t-46.5 -26t-36 -9.5t-14 18q0 10 8.5 27t22.5 38.5t31 45t34 47.5q15 21 30 41t26.5 37.5t18.5 30.5t7 21q0 15 -8.5 21t-25.5 6q-21 0 -58.5 -19.5t-80.5 -50.5
t-85 -68.5t-73 -74.5q23 38 44.5 72t47.5 76q28 27 62.5 60.5t72 73t74.5 84t70 93.5q13 19 17 28.5t4 15.5q0 11 -8 16.5t-19 5.5t-22.5 -4.5t-21.5 -14.5q-35 -33 -77 -82t-85.5 -104.5t-86 -112t-77.5 -105.5q-6 -5 -19 -18l-28.5 -28.5l-32 -32l-28.5 -28.5
q-14 -14 -14 -24q0 -9 8 -9z" />
    <glyph glyph-name="i" unicode="i" horiz-adv-x="341" 
d="M301 376q-8 0 -18 -5q-26 -15 -61 -40.5t-72.5 -57t-75.5 -65.5t-71 -67q-10 -10 -10 -18q0 -5 3.5 -7.5t7.5 -2.5q6 0 12 6q63 60 107.5 97t62.5 51q-19 -26 -37 -54t-32 -56t-22.5 -54.5t-8.5 -50.5q0 -36 14.5 -58.5t41.5 -22.5q26 0 57 16.5t60.5 40t55.5 49t43 42.5
q6 6 8.5 12t2.5 11q0 9 -8 9q-7 0 -14 -8q-17 -18 -39 -38.5t-43.5 -37.5t-41.5 -28t-33 -11q-11 0 -15.5 10t-4.5 21q0 23 18 58.5t43 74.5t51.5 78t43.5 69q5 10 5 18q0 6 -9 12.5t-21 6.5zM447 538q0 16 -7 25.5t-19 9.5t-23 -7t-20 -16.5t-14.5 -21t-5.5 -20.5
q0 -29 29 -29q26 0 43 15.5t17 43.5z" />
    <glyph glyph-name="j" unicode="j" horiz-adv-x="281" 
d="M301 385q-10 0 -17 -4q-31 -19 -68.5 -49t-75 -63.5t-73 -67t-62.5 -59.5q-13 -12 -13 -21t10 -9q7 0 12 5q29 28 57.5 54.5t53.5 49t45.5 39.5t33.5 26q-11 -19 -27 -46t-34 -57.5t-36.5 -61t-35 -57.5t-29 -47t-17.5 -29q-36 -20 -74.5 -48.5t-70 -60t-52 -63.5
t-20.5 -59q0 -26 15.5 -44t46.5 -18q27 0 57.5 25.5t61 65.5t60 89.5t55.5 98.5q23 14 49.5 31.5t52 36.5t49 38.5t41.5 37.5q8 8 11 14.5t3 10.5q0 9 -8 9q-5 0 -10 -5q-34 -32 -76 -64t-79 -52q5 9 18.5 30.5t31.5 50.5t39 62.5t41 66t37.5 61t29.5 47.5q2 5 4 8t2 8
q0 7 -12.5 13.5t-26.5 6.5zM449 559q0 16 -7 25.5t-19 9.5t-23 -7t-20 -16.5t-14.5 -21t-5.5 -20.5q0 -29 29 -29q26 0 43 15.5t17 43.5zM-119 -243q-7 0 -10 6.5t-3 13.5q0 16 9.5 33t27.5 36.5t43 42t57 50.5q-10 -16 -27 -46.5t-35 -60.5t-35 -52.5t-27 -22.5z" />
    <glyph glyph-name="k" unicode="k" horiz-adv-x="488" 
d="M404 642q-56 -79 -108 -161t-102 -163q-7 -6 -29 -26.5t-50 -46.5t-57.5 -53.5t-50.5 -47.5q-15 -14 -15 -24q0 -8 8 -8t16 7q17 15 32 30t30.5 30t33 31.5t39.5 34.5q-20 -32 -43 -69.5t-42.5 -72t-32.5 -61t-13 -35.5q0 -14 15 -24t33 -10q16 0 29 11q18 17 43.5 45.5
t51.5 58.5t47 55t30 34q-7 -26 -11.5 -59t-4.5 -61q0 -30 15.5 -55.5t40.5 -25.5q22 0 52 19.5t59 44t52.5 48.5t33.5 33q11 10 11 20t-10 10q-5 0 -9 -4q-10 -10 -28.5 -27.5t-39.5 -34.5t-41 -29.5t-32 -12.5q-4 0 -5 1q-13 5 -19 18t-6 42q0 19 2.5 42t7.5 53
q53 9 94.5 28.5t70 44t43 51t14.5 50.5q0 23 -18.5 38.5t-50.5 15.5q-40 0 -82 -27.5t-84 -71t-84 -97.5t-82 -107q-6 -7 -9 -7t-3 3t3 9q10 18 27 46t34.5 56.5t32.5 53.5t23 37q45 47 86 94t72.5 89.5t50 78t18.5 59.5q0 15 -9 23.5t-23 8.5q-11 0 -28.5 -8.5t-28.5 -24.5
zM469 373q10 0 14 -5.5t4 -12.5q0 -20 -15 -40.5t-39.5 -38t-56 -30t-64.5 -15.5q16 19 38.5 44t45 46.5t42.5 36.5t31 15z" />
    <glyph glyph-name="l" unicode="l" horiz-adv-x="303" 
d="M490 675q-25 0 -54 -18.5t-60.5 -49.5t-63 -72t-61 -85t-55 -88.5t-44.5 -83.5q-11 -9 -28.5 -25t-38.5 -35t-42.5 -39.5t-39.5 -38.5q-12 -12 -12 -22q0 -9 8 -9q6 0 16 8q14 13 31 29.5t33 31.5t29.5 27t19.5 16q-5 -9 -17 -33t-24 -52.5t-21.5 -57.5t-9.5 -49
q0 -44 43 -44q28 0 61.5 15.5t64 37t56 44t37.5 36.5q9 12 9 20q0 10 -8 10q-5 0 -13 -8q-15 -16 -33.5 -32t-37.5 -28.5t-38 -20.5t-36 -8q-23 0 -23 14q0 11 11.5 38.5t26.5 59t31 62t25 48.5q16 13 45.5 39t64.5 58.5t70.5 69.5t64.5 72.5t47.5 67t18.5 53.5
q0 19 -12 30.5t-41 11.5zM502 615q0 -9 -13 -30.5t-42 -56t-74.5 -82.5t-110.5 -111q10 25 29 56.5t42.5 63.5t49 62.5t47 54t38 38t21.5 14.5q13 0 13 -9z" />
    <glyph glyph-name="m" unicode="m" horiz-adv-x="862" 
d="M402 360q0 19 -12 25t-29 6q-24 0 -54.5 -13t-64 -34t-67.5 -48.5t-66.5 -55.5t-61 -55.5t-49.5 -48.5q-11 -11 -11 -21t9 -10q5 0 13 6q64 62 109 102t76 63t48.5 31.5t26.5 8.5q7 0 7 -8q0 -11 -13 -34.5t-33 -53.5t-44 -63t-45.5 -62.5t-37.5 -52.5t-21 -32
q-5 -10 -5 -13q0 -11 15.5 -17t32.5 -6q11 0 20 2.5t14 8.5q11 12 36 38.5t57 58.5t68 66.5t69.5 62.5t61 46t42.5 18q4 0 4 -5q0 -6 -13.5 -27t-34 -49t-44.5 -60t-45 -59t-36 -46.5t-17 -22.5q-3 -5 -3 -10q0 -11 13 -17.5t28 -6.5q20 0 31 12q25 31 58 63.5t68.5 63
t70.5 57.5t63.5 47.5t47.5 32t22 11.5q2 0 2 -2q0 -3 -3 -9q-5 -14 -25 -43t-42.5 -63.5t-40 -69t-17.5 -58.5q0 -12 5.5 -20t14 -12.5t18 -6t17.5 -1.5q31 0 68 17.5t72 41.5t64.5 49.5t44.5 42.5q9 9 9 19t-9 10q-5 0 -11 -6q-15 -15 -36.5 -33.5t-44.5 -34.5t-44.5 -27
t-36.5 -11q-12 0 -15 3.5t-3 9.5q0 10 9.5 29.5t23.5 44t31 51.5t31 52.5t23.5 47t9.5 35.5q0 20 -22 20q-25 0 -64 -21t-80.5 -50t-79.5 -59.5t-60.5 -49.5t-24.5 -21q17 19 39 48.5t42 59.5t33.5 57.5t13.5 44.5q0 22 -24 22q-18 0 -45 -12.5t-58 -32.5t-64 -45t-63 -50
t-55 -47t-40 -37q18 24 41 56.5t43.5 64t34.5 58t14 39.5z" />
    <glyph glyph-name="n" unicode="n" horiz-adv-x="610" 
d="M387 368q0 14 -10.5 19.5t-26.5 5.5q-27 0 -71.5 -26t-93.5 -64.5t-96.5 -81t-79.5 -75.5q-17 -17 -17 -29q0 -8 8 -8q7 0 14 7q34 33 70 65t70.5 59.5t64.5 49.5t53 35q10 5 14 5q6 0 6 -5q0 -9 -13 -32.5t-33 -54.5t-43.5 -65.5t-45.5 -66t-38.5 -56t-22.5 -35.5
q-1 -2 -1.5 -4.5t-0.5 -7.5q0 -11 14.5 -23t31.5 -12q14 0 22 11q27 36 68 81t86 88t87.5 79t72.5 54q5 2 8.5 4t7.5 2t4 -3q0 -2 -1 -5q-3 -9 -17.5 -27t-34 -42.5t-41 -52t-40 -54t-30.5 -50t-12 -39.5q0 -20 17.5 -30t40.5 -10q33 0 73 19.5t77 45.5t66.5 51.5t41.5 37.5
q8 8 8 17q0 10 -10 10q-6 0 -12 -6q-15 -16 -41 -34.5t-53 -35t-51 -27.5t-37 -11q-14 0 -14 8q0 10 13.5 30.5t33.5 47.5t43 57.5t43 59.5t33.5 55t13.5 43q0 14 -9 19t-25 5q-21 0 -48 -12.5t-57.5 -32.5t-61.5 -45t-59.5 -50t-52.5 -47t-39 -37q6 8 18.5 25t27.5 38
t30.5 44.5t28 45.5t20.5 41.5t8 31.5z" />
    <glyph glyph-name="o" unicode="o" horiz-adv-x="510" 
d="M182 -12q73 0 124.5 25t78.5 56q4 -1 10 -1.5t16 -0.5q34 0 63 14t55 40q10 10 10 18q0 11 -10 11q-5 0 -10 -5q-23 -24 -41.5 -35.5t-40.5 -11.5q-15 0 -24 3q44 42 63 86.5t19 86.5q0 22 -6.5 42t-18.5 35t-28.5 24t-36.5 9q-22 0 -40 -6.5t-39 -20.5q-3 0 -6 0.5
t-6 0.5q-23 0 -45 -7.5t-43 -19.5t-41 -27t-38 -31q-36 -32 -72.5 -65.5t-71.5 -67.5q-12 -11 -12 -22q0 -10 9 -10q6 0 12 6q20 19 40 39.5t37 34.5q-17 -25 -23.5 -49t-6.5 -47q0 -43 29 -73.5t94 -30.5zM144 99q0 37 17 69.5t39 58t44 42.5t32 25q-16 -21 -24.5 -44.5
t-8.5 -61.5q0 -23 6 -39.5t15.5 -28t22 -19.5t26.5 -14q-27 -27 -56 -42t-52 -15q-61 0 -61 69zM423 286q0 -32 -20 -77t-53 -88q-12 6 -23 13.5t-20 18t-14.5 25t-5.5 34.5q0 26 7.5 48.5t20.5 39.5t29.5 27t34.5 10q44 0 44 -51z" />
    <glyph glyph-name="p" unicode="p" horiz-adv-x="561" 
d="M-97 -290q12 0 26 7t27 22q26 30 58 80.5t64 107t61 111.5t50 95q10 12 37 41t61.5 59.5t72 53.5t68.5 23q23 0 36.5 -11.5t13.5 -32.5q0 -25 -13 -50.5t-34 -49t-48 -44t-54.5 -36t-53.5 -24t-46 -8.5h-5q-6 0 -12.5 -5t-12.5 -12t-10 -14.5t-4 -12.5q0 -6 6 -7
q23 -4 44 -5.5t41 -1.5q55 0 101 11.5t84.5 30t69.5 41.5t55 47q13 13 13 23q0 9 -9 9q-7 0 -15 -8q-53 -51 -114.5 -82.5t-117.5 -32.5q56 17 100 46t74 63t45.5 68.5t15.5 63.5q0 46 -28 77t-84 31q-29 0 -61.5 -16.5t-64 -40t-59 -50t-45.5 -46.5l15 24t35 55t39 61
t27 43q4 6 6 10t2 9q0 10 -9 16t-17 6t-11 -5q-26 -33 -67 -74t-87 -83t-90.5 -82.5t-76.5 -71.5q-12 -12 -12 -21t9 -9q5 0 13 6q26 24 56.5 51.5t59 54t53.5 49t41 36.5q-8 -16 -20 -37t-25 -43t-26 -43.5t-23 -38.5q-77 -80 -127 -146t-80 -116.5t-42 -84t-12 -48.5
q0 -19 10 -29t26 -10z" />
    <glyph glyph-name="q" unicode="q" horiz-adv-x="492" 
d="M2 111q7 0 15 8t22 21.5t29.5 28t29.5 27.5t23 20q-22 -27 -34 -59t-12 -58q0 -32 18 -50.5t54 -18.5q21 0 42.5 5.5t42 13.5t38 18.5t30.5 20.5q-8 -9 -27.5 -30t-44 -50t-51.5 -63t-49 -68.5t-36 -66.5t-14 -57q0 -29 18 -40.5t41 -11.5q63 0 100.5 52t37.5 154
q0 13 -0.5 24t-1.5 19q19 9 52 30t68.5 46.5t69 52.5t54.5 48q12 12 12 20q0 9 -10 9q-7 0 -12 -5q-24 -24 -57 -51t-66 -51t-61.5 -43t-42.5 -26q13 19 34 46t42 52.5t38.5 47t24.5 30.5q78 58 78 84q0 10 -10.5 17t-24.5 7q-9 0 -17.5 -3.5t-15.5 -11.5q-17 -19 -44 -46.5
t-57.5 -52.5t-63 -42.5t-59.5 -17.5q-38 0 -38 37q0 25 13.5 51t36.5 49.5t52.5 44t60.5 35.5t61.5 23.5t56.5 8.5q21 0 35.5 -2t25.5 -7q5 -2 8.5 -3.5t9.5 -1.5q12 0 19.5 9.5t7.5 19.5q0 16 -32.5 21.5t-83.5 5.5q-110 0 -212.5 -59t-217.5 -177q-14 -14 -14 -25
q0 -9 8 -9zM159 -226q0 13 7.5 30.5t19.5 38t27 42.5t29 45q-1 -17 -6 -37t-11.5 -40.5t-15 -39t-15.5 -31.5q-4 -6 -12 -14.5t-15 -8.5q-8 0 -8 15z" />
    <glyph glyph-name="r" unicode="r" horiz-adv-x="360" 
d="M204 352q0 -5 1 -9t2 -7q-19 -17 -45.5 -42.5t-55 -52.5t-56 -54t-47.5 -47q-12 -12 -12 -21t8 -9q6 0 17 9q22 22 49.5 48t55.5 52.5t53.5 51t44.5 43.5q6 -11 12.5 -23t6.5 -28q0 -15 -14 -37.5t-55 -64.5q-36 -37 -59 -67.5t-23 -58.5q0 -25 19 -39.5t44 -14.5
q24 0 52 10.5t57 29t58.5 43t55.5 52.5q11 11 11 21t-8 10q-6 0 -14 -8q-46 -48 -87.5 -76.5t-66.5 -28.5q-22 0 -22 15q0 10 7.5 22t19.5 25.5t27 28.5t30 32q29 34 46.5 60.5t17.5 52.5q0 17 -9.5 32t-23 29t-28.5 27.5t-27 27.5q-2 2 -6 2q-3 0 -9 -4t-12 -9.5t-10.5 -12
t-4.5 -10.5z" />
    <glyph glyph-name="s" unicode="s" horiz-adv-x="400" 
d="M304 418q-8 0 -13.5 -2.5t-13.5 -11.5q-17 -21 -51 -54t-73.5 -70t-79.5 -74t-69 -65q-13 -13 -13 -22q0 -8 8 -8t16 7q67 63 124.5 115.5t95.5 90.5q1 -3 1 -9q0 -17 -4.5 -48.5t-12 -67t-17 -69.5t-18.5 -56q-35 9 -67 14.5t-57 5.5q-19 0 -19 -19q0 -18 8.5 -41.5
t24 -44t37 -34.5t47.5 -14q21 0 38 13.5t30 31t20 33t9 18.5q4 -1 12 -1q22 0 45.5 10.5t44.5 24.5t37.5 28t22.5 21q10 11 10 22q0 9 -8 9q-6 0 -14 -9q-8 -8 -23 -20.5t-34 -24.5t-38.5 -21t-35.5 -9h-6q9 22 19.5 60t19.5 84t14.5 95.5t5.5 93.5q0 9 -6.5 13.5t-16.5 4.5
zM87 47q0 11 10 11q5 0 14.5 -1t20 -3l21 -4t18.5 -4q-3 -7 -7.5 -17t-10 -19t-11.5 -15.5t-13 -6.5q-6 0 -13.5 7t-13.5 16.5t-10.5 19.5t-4.5 16z" />
    <glyph glyph-name="t" unicode="t" horiz-adv-x="313" 
d="M286 423l-63 -79q-20 -18 -46 -41.5t-55 -50t-59.5 -55t-59.5 -56.5q-11 -10 -11 -20q0 -9 9 -9q5 0 10 4q14 12 33.5 30t40 37.5t39.5 38.5l33 33q-9 -12 -32.5 -43t-48 -67t-43.5 -71t-19 -57q0 -24 16 -39.5t45 -15.5q34 0 72.5 19t74 44t63 50.5t41.5 39.5
q8 8 10.5 13.5t2.5 9.5q0 8 -9 8q-7 0 -14 -7q-12 -12 -35.5 -34.5t-52 -44t-57.5 -38t-51 -16.5q-5 0 -9 2.5t-4 9.5q0 13 15 42.5t39 67t54.5 80.5t60 84t56 77.5t43.5 60.5q35 5 76.5 8t87.5 5q12 1 21 6.5t15 13t9 16t3 15.5q0 14 -8 14q-15 0 -39 -2.5t-48.5 -5.5
t-46 -6.5t-31.5 -5.5q17 21 39 49t42 54q4 5 5 8t1 5q0 10 -22 10q-18 0 -39.5 -6.5t-29.5 -15.5q-12 -15 -24.5 -32t-24.5 -32.5t-22 -29.5t-17 -23q-35 -5 -70.5 -13t-62.5 -16q-17 -5 -29.5 -17.5t-12.5 -21.5q0 -8 10 -8q2 0 3.5 0.5t3.5 0.5q28 5 60.5 11.5t61.5 11.5z
" />
    <glyph glyph-name="u" unicode="u" horiz-adv-x="463" 
d="M270 394q-12 0 -16 -6q-20 -24 -55.5 -59.5t-73 -71.5t-71 -67.5t-50.5 -48.5q-11 -11 -11 -21q0 -9 9 -9q7 0 14 7l20 20t31.5 30.5t29 28l12.5 12.5q-7 -10 -21 -29.5t-28 -43.5t-24.5 -48.5t-10.5 -45.5q0 -45 49 -45q24 0 54.5 15t60 35.5t52.5 40.5t32 30
q-8 -16 -15 -34t-7 -36q0 -21 10.5 -32t35.5 -11q23 0 50.5 13.5t53.5 32t48 38.5t33 33q9 10 9 19t-8 9q-7 0 -14 -8q-9 -12 -26.5 -27.5t-36.5 -29.5t-36 -23.5t-26 -9.5q-7 0 -9.5 3.5t-2.5 8.5q0 12 15 37.5t39 58t53.5 70t58.5 74.5q4 6 4 9q0 5 -5 11t-13 11.5
t-17.5 9t-17.5 3.5q-12 0 -18 -9q-14 -21 -38 -51t-53 -62t-60 -63.5t-60 -56.5t-53 -40.5t-38 -15.5q-16 0 -16 16q0 19 23 58t55 82t64.5 83.5t52.5 62.5q5 5 6 8.5t1 5.5q0 11 -15.5 19.5t-29.5 8.5z" />
    <glyph glyph-name="v" unicode="v" horiz-adv-x="457" 
d="M392 164q0 10 3 22q18 18 37 40.5t35.5 44t27 40.5t10.5 31q0 18 -10.5 27t-25.5 9q-24 0 -42.5 -19.5t-32 -45t-21 -51t-8.5 -37.5q-14 -17 -35.5 -43t-44.5 -50t-44 -41t-32 -17q-9 0 -13.5 11t-4.5 28q0 20 8.5 52t21.5 66t29 65.5t32 52.5q2 3 3.5 5.5t1.5 7.5
q0 6 -7.5 12t-21.5 6q-11 0 -21.5 -5t-19.5 -16q-12 -16 -30.5 -36t-39 -41.5t-42.5 -43.5t-42 -41t-36 -34.5t-25 -23.5q-12 -12 -12 -20q0 -10 10 -10q8 0 16 8q17 16 40 38t43.5 41.5t35 33l14.5 13.5q-7 -12 -14.5 -30t-13.5 -40t-10 -46t-4 -47q0 -42 15 -69t35 -27
t50.5 20.5t62 49t59 57.5t41.5 47v-6q0 -23 16.5 -37t36.5 -14q26 0 49 17q13 10 13 19q0 10 -10 10q-6 0 -11 -4q-20 -16 -39 -16q-33 0 -33 37z" />
    <glyph glyph-name="w" unicode="w" horiz-adv-x="643" 
d="M310 164q-6 -13 -13.5 -29.5t-14 -34t-10.5 -35t-4 -32.5q0 -29 14.5 -48t45.5 -19q19 0 41.5 11.5t45.5 29.5t45.5 40.5t42 44.5t35 41t24.5 30q0 -3 -0.5 -5.5t-0.5 -4.5q0 -23 13.5 -36.5t34.5 -13.5t39.5 11t18.5 21t-11 10q-5 0 -11 -3q-16 -10 -30 -10
q-10 0 -15.5 4.5t-8.5 11t-3.5 13t-0.5 11.5t0.5 10.5t1.5 11.5l36 44t32.5 42t23.5 37.5t9 31.5q0 12 -11 20.5t-28 8.5q-24 0 -41.5 -17t-29 -41t-18 -49.5t-7.5 -42.5q-13 -17 -38 -46t-52 -57t-51.5 -48.5t-37.5 -20.5q-9 0 -12 7t-3 18q0 18 15.5 53t35.5 73t39 72
t27 50q2 5 2.5 8t0.5 5q0 9 -9.5 14.5t-22.5 5.5q-11 0 -21.5 -4.5t-16.5 -15.5t-24.5 -37t-44 -59.5t-54.5 -69t-56 -65.5t-49.5 -49t-34.5 -19q-11 0 -14 7t-3 18q0 22 16.5 55.5t40.5 71t51 74.5t48 66q6 8 6.5 12t0.5 6q0 10 -10 15.5t-24 5.5q-11 0 -21 -3.5t-16 -11.5
q-17 -21 -46 -51t-60.5 -60.5t-60.5 -57.5t-45 -43q-15 -15 -15 -26q0 -9 8 -9q7 0 17 10q13 13 35 34.5t41 38.5q-5 -11 -15 -28.5t-20.5 -39t-18 -45.5t-7.5 -47q0 -32 12 -52.5t32 -20.5q22 0 52 20t62 50t62.5 65.5t53.5 66.5z" />
    <glyph glyph-name="x" unicode="x" horiz-adv-x="477" 
d="M-1 109q7 0 15 7q5 4 21.5 20t38.5 37t48 44t49.5 42.5t42.5 32t28 12.5q3 0 3 -8q0 -13 -2 -28.5t-5 -31.5t-6.5 -30.5t-6.5 -26.5q-45 -28 -99 -70.5t-102 -94.5q-5 -7 -5 -12q0 -8 5.5 -13.5t13.5 -5.5t14 7q16 18 37.5 39t44 40.5t45 36.5t39.5 29q-5 -20 -8.5 -45
t-3.5 -46q0 -27 7.5 -41t35.5 -14q31 0 67 15t70 35.5t62 42t42 34.5q10 9 10 17q0 5 -3.5 8t-8.5 3q-2 0 -6 -2q-14 -11 -36.5 -26.5t-46 -29.5t-44.5 -24t-32 -10q-14 0 -14 13q0 31 5 58.5t10 53.5q15 7 38 19t49 27t52 32t47 34t34 33.5t13 29.5q0 5 -6 9t-15 7t-19 4.5
t-18 1.5q-22 0 -22 -7q0 -3 6 -6t13 -6q3 -2 6 -4.5t3 -7.5q0 -4 -5 -11q-8 -11 -27 -26t-43 -31t-50.5 -31t-48.5 -25q3 15 7.5 34.5t8.5 39.5t6.5 38t2.5 31q0 16 -7.5 25.5t-18.5 9.5q-2 0 -6 -1t-14 -6q-35 -16 -79 -49t-87.5 -70.5t-81 -73.5t-59.5 -57
q-13 -13 -13 -22t9 -9z" />
    <glyph glyph-name="y" unicode="y" horiz-adv-x="490" 
d="M279 391q-9 0 -17.5 -3t-14.5 -11q-16 -21 -47.5 -52t-67 -64t-70 -64t-56.5 -53q-13 -13 -13 -20q0 -8 11 -8q7 0 15 6q32 31 66 61t57 52q-7 -11 -17.5 -28.5t-20 -38.5t-16.5 -43t-7 -43q0 -33 15.5 -52t50.5 -19q22 0 49.5 15.5t53.5 36.5t48 43.5t33 37.5
q-9 -14 -23.5 -35.5t-29 -44t-27.5 -42.5t-20 -31q-31 -15 -71.5 -39.5t-76.5 -55.5t-61 -68t-25 -79q0 -26 10.5 -35t29.5 -9q36 0 73 27.5t73 69.5t69 91.5t60 94.5q20 9 46.5 23.5t53.5 32t52 37t42 38.5q9 10 9 19q0 10 -9 10q-5 0 -10 -5q-16 -17 -36 -33.5
t-41.5 -30.5t-42.5 -26t-37 -19q8 11 23.5 32t35 47t40 54.5t40 55.5t35 49.5t23.5 35.5q3 5 5.5 9t2.5 7q0 9 -18 18t-36 9q-19 0 -26 -11q-14 -22 -37 -51.5t-51 -60.5t-58.5 -62t-58.5 -55t-51 -39t-37 -15q-12 0 -16.5 7t-4.5 19q0 14 9.5 35.5t24.5 46t34.5 51
t38.5 51.5t37 46.5t30 36.5q4 4 4 10q0 12 -15.5 21.5t-33.5 9.5zM202 -57q-11 -21 -32.5 -54.5t-45 -66t-43.5 -56t-29 -23.5t-9 16q0 15 13 37.5t35 48t51 51t60 47.5z" />
    <glyph glyph-name="z" unicode="z" horiz-adv-x="438" 
d="M410 275q0 17 -5 33.5t-15.5 29.5t-26.5 21t-39 8q-37 0 -83.5 -27t-91.5 -64t-83 -74t-59 -58q-12 -12 -12 -21t10 -9q7 0 12 5q16 16 38 37t46 42.5t49 42t48 36.5t42.5 26t31.5 10q23 0 33.5 -19t10.5 -41q0 -29 -21 -60t-50 -57.5t-59.5 -45.5t-49.5 -24
q-9 -2 -13.5 -10t-4.5 -16q0 -10 6 -18t17 -9q29 -2 42 -15.5t16 -36.5q-14 -8 -35 -20.5t-45.5 -29.5t-49 -36.5t-44 -41t-32 -43.5t-12.5 -43q0 -28 18 -37.5t44 -9.5q55 0 97.5 28t71 70t43 91t14.5 91q17 10 42 26t51.5 35t51 39.5t41.5 38.5q9 9 9 19q0 11 -8 11
q-6 0 -12 -7q-22 -23 -48.5 -44.5t-52 -39.5t-47 -31.5t-33.5 -20.5q-5 34 -29 44q30 9 61.5 29t57 49.5t41.5 66.5t16 80zM201 -69q-4 -20 -19 -51t-36 -60t-45.5 -50.5t-48.5 -21.5q-14 0 -19 6t-5 17q0 14 18 35t44 44t56.5 44.5t54.5 36.5z" />
    <glyph glyph-name="braceleft" unicode="{" horiz-adv-x="288" 
d="M380 598q20 18 48 26t60 8q18 0 26.5 7.5t8.5 16.5q0 8 -7 14.5t-21 6.5q-23 0 -42 -1.5t-36.5 -7t-34 -15t-34.5 -24.5q-31 -26 -50.5 -55t-35.5 -58q-17 -32 -29 -64.5t-39 -58.5q-24 -23 -46 -35t-42 -18q-8 -2 -13.5 -9.5t-5.5 -15.5t6 -14q26 -24 26 -66
q0 -62 -44 -115q-7 -8 -17.5 -21.5t-21 -30.5t-18 -37t-7.5 -41q0 -27 10.5 -47t28 -33t40 -19.5t46.5 -6.5q23 0 33 7t10 18q0 8 -7 14t-22 7q-37 1 -64.5 21t-27.5 49q0 21 14.5 47t47.5 68q21 26 33.5 59t12.5 64q0 21 -6 39t-13 26q-4 3 -5.5 4.5t-1.5 4.5q0 7 11 10
q18 5 34.5 13.5t36.5 26.5q15 13 24.5 28.5t17.5 32.5t15.5 34.5t16.5 34.5q16 29 36.5 55.5t47.5 50.5z" />
    <glyph glyph-name="bar" unicode="|" horiz-adv-x="272" 
d="M531 674q-11 0 -25 -8t-28 -26q-31 -42 -70 -97.5t-81.5 -118.5t-87 -129.5t-86 -129.5t-78.5 -118.5t-66 -96.5q-11 -17 -11 -26t9 -9q10 0 24.5 9.5t27.5 27.5q22 30 56.5 79t76 109t87.5 126t92 131.5t89 126t78 107.5q8 11 10.5 16.5t2.5 9.5q0 17 -20 17z" />
    <glyph glyph-name="braceright" unicode="}" horiz-adv-x="460" 
d="M198 -27q-23 -21 -51.5 -26.5t-65.5 -5.5q-17 0 -27 -9t-10 -19q0 -8 7 -14.5t23 -6.5q19 0 39 1.5t39.5 6t38.5 13.5t37 25q35 30 53 67.5t30 74.5q6 19 14 40.5t17 41.5t20 38t24 30q20 20 42 32.5t48 23.5q8 3 12.5 8t4.5 14q0 11 -9 21q-6 5 -16 17t-10 31
q0 6 5 33.5t30 63.5q16 23 28 46.5t12 47.5q0 27 -12.5 47.5t-32 34t-42 20.5t-42.5 7q-17 0 -27.5 -9t-10.5 -18q0 -6 5.5 -10.5t18.5 -4.5q48 0 73 -23t25 -51q0 -17 -9.5 -34t-23.5 -37q-15 -22 -23.5 -40t-12.5 -31.5t-4.5 -23t-0.5 -15.5q0 -19 5 -33.5t13 -19.5
q5 -3 5 -7q0 -6 -11 -11q-17 -6 -36 -19t-33 -27q-17 -15 -30 -35.5t-23.5 -43t-19 -45t-15.5 -41.5q-13 -35 -28 -67t-43 -58z" />
    <glyph glyph-name="asciitilde" unicode="~" horiz-adv-x="500" 
d="M107 284q6 0 10.5 1t9.5 3t25 12t50 10q17 0 38 -6t44 -14q22 -8 42.5 -14t37.5 -6q42 0 73.5 11t58.5 25q12 6 18.5 13.5t6.5 13.5q0 10 -16 10q-8 0 -18 -3q-22 -7 -43 -16.5t-43 -9.5q-13 0 -32.5 5.5t-42.5 12.5q-21 7 -42 12.5t-38 5.5q-28 0 -48.5 -3.5t-36.5 -8.5
t-29.5 -11.5t-27.5 -12.5q-13 -6 -13 -16q0 -5 4.5 -9.5t11.5 -4.5z" />
    <glyph glyph-name="quotesinglbase" unicode="&#x201a;" horiz-adv-x="305" 
d="M330 133q0 21 -10.5 33t-33.5 12q-29 0 -43.5 -19.5t-14.5 -47.5q0 -23 9 -45q2 -4 2 -14q0 -14 -8 -27.5t-21 -27t-28 -26t-29 -24.5q39 19 72 44t56 50.5t36 49.5t13 42z" />
    <glyph glyph-name="florin" unicode="&#x192;" horiz-adv-x="700" 
d="M23 0h534l186 534h-535z" />
    <glyph glyph-name="quotedblbase" unicode="&#x201e;" horiz-adv-x="380" 
d="M493 140q0 22 -8.5 35t-29.5 13q-29 0 -43.5 -19.5t-14.5 -48.5q0 -11 2 -21t4 -17q5 -13 5 -17q0 -14 -10 -29t-24 -29.5t-29 -27t-24 -22.5q36 19 67.5 42.5t54.5 48t36.5 48.5t13.5 44zM340 128q0 21 -10.5 33t-33.5 12q-29 0 -43.5 -19.5t-14.5 -47.5q0 -23 7 -39
q3 -8 3.5 -12t0.5 -8q0 -14 -8 -27.5t-21 -27t-28 -26t-29 -24.5q39 19 72 44t56 50.5t36 49.5t13 42z" />
    <glyph glyph-name="ellipsis" unicode="&#x2026;" horiz-adv-x="684" 
d="M162 62q0 12 -3.5 19.5t-17.5 7.5t-28 -6.5t-25.5 -16.5t-19 -22t-7.5 -22q0 -30 32 -30q18 0 31 7t21.5 17.5t12.5 23t4 22.5zM382 62q0 12 -3.5 19.5t-17.5 7.5t-28 -6.5t-25.5 -16.5t-19 -22t-7.5 -22q0 -30 32 -30q18 0 31 7t21.5 17.5t12.5 23t4 22.5zM607 62
q0 12 -3.5 19.5t-17.5 7.5t-28 -6.5t-25.5 -16.5t-19 -22t-7.5 -22q0 -30 32 -30q18 0 31 7t21.5 17.5t12.5 23t4 22.5z" />
    <glyph glyph-name="dagger" unicode="&#x2020;" horiz-adv-x="261" 
d="M239 507q9 2 23.5 5t28.5 5q-3 -5 -14.5 -23.5t-27 -45t-34 -58.5t-35.5 -62.5t-31 -57t-21 -43.5q-1 -2 -1.5 -4t-0.5 -7t5.5 -10.5t12.5 -5.5q12 0 19 17q8 21 22 50t30.5 60.5t33.5 63t31.5 58t25 45.5t14.5 25q5 1 9 1h9q21 0 31 -4l5 -2.5t3 -0.5q5 0 8 5.5t3 11.5
q0 9 -10.5 11t-24.5 2h-11q-5 0 -10 -1q3 5 9 15.5t13.5 22.5t14 24t11.5 21q2 4 2 6q0 5 -8 5q-11 0 -15 -6q-4 -8 -12 -21t-17 -27t-17 -26.5t-12 -18.5q-14 -1 -28 -3.5t-25 -5.5q-7 -2 -13.5 -8.5t-6.5 -10.5q0 -3 3 -3q4 0 8 1z" />
    <glyph glyph-name="daggerdbl" unicode="&#x2021;" horiz-adv-x="261" 
d="M203 437q9 2 21.5 4t29.5 3q-1 -2 -16 -26.5t-35 -58.5t-40 -70.5t-30 -61.5q-1 -2 -1.5 -4t-0.5 -6q0 -6 5.5 -11.5t12.5 -5.5q12 0 19 17q13 32 32.5 71t38 73.5t32 58.5t14.5 26q5 1 9 1h10q9 0 17 -1t14 -4q4 -2 7 -2q5 0 8 5.5t3 11.5q0 7 -5 9q-15 5 -30 5
q-5 0 -10.5 -0.5t-10.5 -1.5l28 50q5 1 9 1h10q20 0 30 -5q5 -2 8 -2q5 0 8 5.5t3 11.5q0 7 -5 9q-7 2 -15 3t-16 1h-10t-10 -1q1 2 6.5 12t13 22.5t15.5 26t13 22.5q2 3 2 7t-7 4q-5 0 -9.5 -1.5t-6.5 -4.5q-5 -8 -14 -22t-18 -28.5t-16.5 -26.5t-8.5 -14q-14 -2 -26.5 -3
t-27.5 -5q-7 -2 -13.5 -8.5t-6.5 -10.5q0 -3 3 -3h3q25 6 57 9l-31 -52h-5q-14 0 -26 -2.5t-23 -5.5q-7 -2 -13.5 -8.5t-6.5 -10.5q0 -3 3 -3q5 0 9 1z" />
    <glyph glyph-name="circumflex" unicode="&#x2c6;" horiz-adv-x="351" 
d="M237 492q4 0 9 -6q12 -14 25 -31t28 -34q4 -4 6 -4q4 0 4 5v4q0 3 -1 8q-2 6 -7 24t-12.5 37t-15 34t-13.5 15q-11 0 -35.5 -13.5t-52.5 -31.5t-52.5 -36.5t-34.5 -27.5q-7 -6 -7 -9q0 -2 2 -2q1 0 9 3q12 5 30.5 13.5t37.5 17t36.5 17t29.5 13.5q9 4 14 4z" />
    <glyph glyph-name="perthousand" unicode="&#x2030;" horiz-adv-x="960" 
d="M625 245q0 -25 -14.5 -61t-36.5 -69.5t-49.5 -57t-52.5 -23.5q-40 0 -40 43q0 22 13 55t33 67t45.5 64t49.5 47q4 3 4 6q0 4 -4.5 7t-10.5 3q-7 0 -14 -4q-33 -18 -63.5 -49.5t-54 -67.5t-37.5 -72.5t-14 -64.5q0 -33 17.5 -52.5t57.5 -19.5q48 0 88 25t69 61.5t45.5 78
t16.5 73.5q0 37 -19 53.5t-44 16.5q-19 0 -35 -8t-16 -14q0 -3 3 -3t8.5 1.5t10.5 1.5q17 0 30.5 -8.5t13.5 -28.5zM433 606q19 7 56 14t76 12t73 8.5t47 3.5q7 0 7 -7q0 -3 -2 -5.5t-4 -5.5q-35 -51 -103 -125t-154 -162q-47 -48 -96 -98t-94.5 -98t-83.5 -92t-63 -79
q-9 -14 -9 -23q0 -8 5 -12.5t13 -4.5t16 5t16 16q19 28 52 66t76 83t93.5 96t104.5 105q41 41 83 84.5t81 85.5t73.5 82t61.5 75q15 19 15 33q0 10 -8.5 13.5t-19.5 3.5q-16 0 -48 -4t-72.5 -10.5t-83.5 -14.5t-81 -16.5t-65.5 -17t-36.5 -14.5q-7 -4 -7 -11q0 -8 8 -8
q3 0 8 2q8 5 20 5q14 0 23 -9.5t9 -29.5q0 -27 -15.5 -62t-39 -66.5t-50 -53t-48.5 -21.5q-31 0 -31 44q0 21 10 52.5t26.5 65.5t37.5 64.5t42 50.5q6 5 6 11q0 7 -12 7q-11 0 -21 -7q-29 -21 -55.5 -51.5t-46.5 -65t-31.5 -70t-11.5 -65.5q0 -33 15.5 -55t53.5 -22
q46 0 86.5 24t70.5 59t47 75.5t17 73.5q0 26 -8 40.5t-28 25.5zM919 245q0 -25 -14.5 -61t-36.5 -69.5t-49.5 -57t-52.5 -23.5q-40 0 -40 43q0 22 13 55t33 67t45.5 64t49.5 47q4 3 4 6q0 4 -4.5 7t-10.5 3q-7 0 -14 -4q-33 -18 -63.5 -49.5t-54 -67.5t-37.5 -72.5
t-14 -64.5q0 -33 17.5 -52.5t57.5 -19.5q48 0 88 25t69 61.5t45.5 78t16.5 73.5q0 37 -19 53.5t-44 16.5q-19 0 -35 -7t-16 -15q0 -3 3 -3q5 0 9.5 1.5t9.5 1.5q17 0 30.5 -8.5t13.5 -28.5z" />
    <glyph glyph-name="Scaron" unicode="&#x160;" horiz-adv-x="537" 
d="M347 286q23 -29 42.5 -57t19.5 -61q0 -31 -14.5 -55t-39.5 -40.5t-58.5 -25t-70.5 -8.5q-49 0 -77.5 17.5t-28.5 43.5q0 16 9.5 31t26 28t37.5 22t45 13t24 14q0 5 -8.5 10t-24.5 5q-26 0 -55.5 -10.5t-55.5 -28.5t-43 -42.5t-17 -53.5q0 -59 35.5 -91t112.5 -32
q89 0 147.5 20t93 52t48 71.5t13.5 77.5q0 34 -19 65.5t-45 63.5q-15 17 -26.5 30t-19.5 25.5t-12 26t-4 31.5q0 31 28 60t67.5 52t81 37t68.5 14t35.5 -9t8.5 -26q0 -15 -10.5 -35t-25.5 -40.5t-32 -38t-31 -26.5q-15 -11 -15 -22q0 -7 5.5 -12t14.5 -5q8 0 21 7
q27 17 56 46.5t52.5 62.5t39 65.5t15.5 56.5q0 50 -62 50q-39 0 -84.5 -10.5t-91 -29t-87.5 -43.5t-74.5 -53t-52 -58.5t-19.5 -60.5q0 -38 18 -67.5t39 -56.5zM621 740q-4 0 -9 6q-12 14 -25 31t-28 34q-4 4 -6 4q-4 0 -4 -5v-5q0 -2 1 -7q1 -6 6.5 -24t13 -37t15 -34
t13.5 -15q10 0 35 13.5t53 31.5t52.5 36.5t34.5 27.5q7 6 7 9q0 2 -2 2t-9 -3q-12 -5 -30.5 -13.5t-37.5 -17t-36.5 -17t-29.5 -13.5q-9 -4 -14 -4z" />
    <glyph glyph-name="guilsinglleft" unicode="&#x2039;" horiz-adv-x="472" 
d="M373 65q0 11 -19.5 34.5t-44.5 49t-48 47.5t-30 31q-4 5 -4 11q0 10 13 19q17 11 50 28t65.5 35t56.5 34.5t24 25.5q0 5 -4.5 6.5t-9.5 1.5q-18 0 -55 -13.5t-78 -32.5t-77.5 -39t-53.5 -32q-13 -9 -13 -20q0 -2 1 -5t8 -11q13 -17 42.5 -46.5t62 -59t62 -51t43.5 -21.5
q9 0 9 8z" />
    <glyph glyph-name="OE" unicode="&#x152;" horiz-adv-x="882" 
d="M916 377q-19 0 -38 -3t-35.5 -6.5t-29 -7.5t-17.5 -5q-31 -9 -46.5 -26t-15.5 -28t12 -11q8 0 22 4.5t27 7.5q20 5 41.5 10t53.5 5q24 0 37.5 4.5t19.5 11t7.5 13.5t1.5 11q0 7 -4.5 11.5t-11 6t-13.5 2t-11 0.5zM1061 511q57 15 88.5 40t31.5 54q0 13 -10.5 21t-28 13
t-38.5 7t-42 2q-70 0 -150 -18.5t-155 -45.5q-7 12 -18 25.5t-28.5 25t-43.5 19t-63 7.5q-34 0 -66 -7.5t-58.5 -23.5t-46.5 -39.5t-29 -54.5q-57 -25 -111 -75t-95 -110.5t-66 -125t-25 -117.5q0 -57 33 -90.5t110 -33.5q75 0 155 34q-12 -10 -17 -20t-5 -19
q0 -11 5.5 -17.5t12.5 -6.5h8t8 1q36 7 75.5 16.5t85 18.5t97 15t111.5 6q32 0 48.5 15t16.5 32q0 12 -10 21.5t-32 9.5q-80 0 -156.5 -14t-133.5 -30q7 9 22.5 28.5t31 39.5t27 35l11.5 15q27 31 55.5 69t52.5 81t39.5 91t15.5 100v14q0 7 -1 15q24 7 53.5 14.5t61 13t63 9
t59.5 3.5q27 0 43 -1t24.5 -3.5t11.5 -6.5t3 -10q0 -9 -10 -20t-21 -22zM597 625q45 0 70.5 -18t33.5 -45q-13 -6 -30 -14t-35 -16t-34 -16t-26 -14q-12 -7 -18 -15.5t-6 -16.5q0 -16 16 -16q7 0 14 4q32 17 62 28.5t56 22.5q-3 -34 -22.5 -82.5t-52 -101.5t-75.5 -106
t-91.5 -95t-100 -68t-102.5 -26q-60 0 -60 60q0 37 18.5 89.5t48.5 106t69 101.5t80 76q5 -29 17 -38.5t20 -9.5q11 0 11 11q0 3 -2 9q-3 7 -3 17q0 14 3 27t7 24q14 10 27 16.5t30 14.5q5 2 10 9.5t5 18.5q0 14 -14 14q-12 0 -25.5 -6t-17.5 -8q2 6 11 16.5t24 21t35.5 18
t46.5 7.5z" />
    <glyph glyph-name="quoteleft" unicode="&#x2018;" horiz-adv-x="310" 
d="M253 512q0 25 14 39q17 17 26.5 39t9.5 42q0 17 -8 28.5t-27 11.5q-58 0 -58 -72q0 -21 3.5 -44.5t11 -46.5t20 -44.5t30.5 -37.5q-8 22 -15 44t-7 41z" />
    <glyph glyph-name="quoteright" unicode="&#x2019;" horiz-adv-x="380" 
d="M457 617q0 21 -10.5 33t-33.5 12q-29 0 -43.5 -19.5t-14.5 -47.5q0 -23 9 -45q2 -4 2 -14q0 -14 -8 -27.5t-21 -27t-28 -26t-29 -24.5q39 19 72 44t56 50.5t36 49.5t13 42z" />
    <glyph glyph-name="quotedblleft" unicode="&#x201c;" horiz-adv-x="380" 
d="M413 492q0 25 12 37q17 17 27 40.5t10 43.5q0 17 -8 27.5t-27 10.5q-24 0 -40 -17.5t-16 -52.5q0 -20 4 -44.5t12 -48.5t19.5 -45.5t27.5 -36.5q-8 21 -14.5 44t-6.5 42zM275 512q0 25 14 39q17 17 26.5 39t9.5 42q0 17 -8 28.5t-27 11.5q-58 0 -58 -72q0 -21 3.5 -44.5
t11 -46.5t20 -44.5t30.5 -37.5q-8 22 -15 44t-7 41z" />
    <glyph glyph-name="quotedblright" unicode="&#x201d;" horiz-adv-x="384" 
d="M451 617q0 21 -10.5 33t-33.5 12q-29 0 -43.5 -19.5t-14.5 -47.5q0 -23 9 -45q2 -4 2 -14q0 -14 -8 -27.5t-21 -27t-28 -26t-29 -24.5q39 19 72 44t56 50.5t36 49.5t13 42zM604 629q0 22 -8.5 35t-29.5 13q-29 0 -43.5 -19.5t-14.5 -48.5q0 -22 9 -44q1 -3 1.5 -5.5
t0.5 -5.5q0 -14 -10 -29t-24 -29.5t-29 -27t-24 -22.5q36 19 67.5 42.5t54.5 48t36.5 48.5t13.5 44z" />
    <glyph glyph-name="bullet" unicode="&#x2022;" horiz-adv-x="425" 
d="M242 372q-36 0 -66 -15t-51.5 -39t-33.5 -55.5t-12 -64.5q0 -61 40 -95t107 -34q40 0 70.5 13t51 34t30.5 48.5t10 56.5q0 37 -12 65t-32 47t-46.5 29t-55.5 10z" />
    <glyph glyph-name="endash" unicode="&#x2013;" horiz-adv-x="580" 
d="M577 249q0 8 -5.5 13.5t-18.5 7.5q-20 2 -46 3.5t-55 1.5q-41 0 -84.5 -2t-83.5 -5.5t-73 -8t-52 -9.5q-14 -4 -22 -14.5t-8 -19.5q0 -12 13 -12q5 0 11.5 0.5t12.5 1.5q14 1 44 3.5t67.5 4t79 3t79.5 1.5q24 0 49.5 -2t53.5 -2q16 0 27 11.5t11 23.5z" />
    <glyph glyph-name="emdash" unicode="&#x2014;" horiz-adv-x="729" 
d="M681 206q17 0 28.5 13t11.5 27q0 9 -3.5 15t-18.5 9t-45 4t-83 1q-56 0 -120.5 -2t-123 -5.5t-104 -8t-64.5 -9.5q-14 -4 -22 -16t-8 -23q0 -6 4 -11.5t8 -5.5q9 0 16.5 1t15.5 2q26 3 67 5.5t89.5 4.5t102.5 3t107 1q44 0 84 -2.5t58 -2.5z" />
    <glyph glyph-name="tilde" unicode="&#x2dc;" horiz-adv-x="435" 
d="M71 439q4 0 10 3q17 8 35 18t41 10q20 0 36 -6t29 -14t30.5 -15t38.5 -7q42 0 71 13t43 28q16 18 16 24q0 10 -9 10q-4 0 -10 -3q-20 -12 -41 -21t-63 -9q-26 0 -50 19q-12 9 -26 16t-36 7q-16 0 -33 -5t-32.5 -13t-28.5 -17t-22 -17q-3 -3 -5.5 -6t-2.5 -7q0 -8 9 -8z
" />
    <glyph glyph-name="trademark" unicode="&#x2122;" horiz-adv-x="606" 
d="M326 577q0 1 2 3q18 11 39 17t32 8q-11 -13 -23 -28.5l-24 -31t-23 -30.5t-18 -27q-2 -4 -2 -6q0 -4 5 -7t10 -3q3 0 6 5q5 10 16 26.5t23.5 34.5t26 36t24.5 32q0 2 -1 3q3 1 8 1h10h16t14 -1q4 0 4 -3q0 -2 -3 -5q15 7 15 18q0 7 -7 8q-4 1 -9 1h-9q-32 0 -66 -9
t-63 -24q-8 -5 -8 -14q0 -7 7 -7q-2 2 -2 3zM513 646q-16 0 -16 -17v-3q0 -10 -6.5 -26t-17 -35t-23.5 -38.5t-26 -36.5q-3 -5 -3 -8q0 -12 12 -12q6 0 12 7q15 19 31 39t30.5 37.5t27 30t19.5 17.5q4 2 5 2q2 0 2 -2q0 -3 -1 -6l-6 -15t-10 -23.5t-14 -28t-17 -26.5
q-4 -5 -4 -10q0 -10 10 -10q6 0 12 7q24 30 50 55t41 36q3 2 5 2t2 -5q0 -3 -3.5 -10.5t-9.5 -17.5t-13 -21.5t-14 -21.5q-10 -15 -10 -30q0 -12 4 -16t7 -4q5 0 8.5 2.5t3.5 5.5q0 4 -1 7t-1 9t1.5 13t5.5 12q7 10 15 23.5t15 26.5t11 24.5t4 17.5q0 8 -5 8t-9 -2
q-19 -8 -43 -29.5t-50 -53.5q18 28 27 54.5t9 39.5q0 11 -8 11q-4 0 -10 -3q-17 -8 -42 -35.5t-61 -74.5q31 44 46 74t15 51q0 9 -7 9z" />
    <glyph glyph-name="scaron" unicode="&#x161;" horiz-adv-x="400" 
d="M304 418q-8 0 -13.5 -2.5t-13.5 -11.5q-17 -21 -51 -54t-73.5 -70t-79.5 -74t-69 -65q-13 -13 -13 -22q0 -8 8 -8t16 7q67 63 124.5 115.5t95.5 90.5q1 -3 1 -9q0 -17 -4.5 -48.5t-12 -67t-17 -69.5t-18.5 -56q-35 9 -67 14.5t-57 5.5q-19 0 -19 -19q0 -18 8.5 -41.5
t24 -44t37 -34.5t47.5 -14q21 0 38 13.5t30 31t20 33t9 18.5q4 -1 12 -1q22 0 45.5 10.5t44.5 24.5t37.5 28t22.5 21q10 11 10 22q0 9 -8 9q-6 0 -14 -9q-8 -8 -23 -20.5t-34 -24.5t-38.5 -21t-35.5 -9h-6q9 22 19.5 60t19.5 84t14.5 95.5t5.5 93.5q0 9 -6.5 13.5t-16.5 4.5
zM87 47q0 11 10 11q5 0 14.5 -1t20 -3l21 -4t18.5 -4q-3 -7 -7.5 -17t-10 -19t-11.5 -15.5t-13 -6.5q-6 0 -13.5 7t-13.5 16.5t-10.5 19.5t-4.5 16zM321 505q-4 0 -9 6q-12 14 -25 31t-28 34q-4 4 -6 4q-4 0 -4 -5v-5q0 -2 1 -7q1 -6 6.5 -24t13 -37t15 -34t13.5 -15
q10 0 35 13.5t53 31.5t52.5 36.5t34.5 27.5q7 6 7 9q0 2 -2 2t-9 -3q-12 -5 -30.5 -13.5t-37.5 -17t-36.5 -17t-29.5 -13.5q-9 -4 -14 -4z" />
    <glyph glyph-name="guilsinglright" unicode="&#x203a;" horiz-adv-x="472" 
d="M492 255q-9 7 -28.5 20t-44.5 28.5t-52.5 31t-53 28.5t-46 21t-30.5 8q-9 0 -9 -8q0 -11 22 -29.5t51.5 -37.5t57.5 -36t40 -24q9 -5 9 -9q0 -7 -12 -14q-11 -6 -33 -17l-49 -24.5t-56 -28.5t-53 -29t-39 -26t-15 -20q0 -6 7 -6q10 0 34.5 8.5t56 22t66.5 30t68 33
t60 31.5t41 24q12 7 12 15q0 5 -4 8z" />
    <glyph glyph-name="oe" unicode="&#x153;" horiz-adv-x="687" 
d="M745 341q0 18 -16 31.5t-52 13.5q-32 0 -61.5 -8t-54 -19.5t-43 -23.5t-28.5 -20q-4 12 -11.5 24t-18 22t-24.5 16.5t-32 6.5q-35 0 -78 -27q-3 0 -6 0.5t-6 0.5q-27 0 -53.5 -11t-49 -25t-40 -28.5t-24.5 -20.5q-36 -32 -72.5 -65.5t-71.5 -67.5q-12 -11 -12 -22
q0 -10 9 -10q6 0 12 6q20 19 40 39t37 35q-14 -26 -22 -49.5t-8 -47.5q0 -51 34.5 -77.5t89.5 -26.5q40 0 79 12t75 31q8 -21 27 -33.5t59 -12.5q42 0 82.5 14t78 35.5t70.5 47.5t61 50q9 8 12.5 13.5t3.5 10.5q0 8 -9 8t-16 -7q-27 -24 -57 -47t-61 -41.5t-60.5 -29.5
t-55.5 -11t-35 8.5t-9 23.5q0 17 9.5 38t19.5 41q58 7 110 30.5t91.5 54t63 62.5t23.5 56zM276 294q-16 -21 -24.5 -42.5t-8.5 -49.5q0 -33 7 -53.5t17.5 -33t22 -19t21.5 -9.5q-26 -26 -54 -41.5t-52 -15.5q-28 0 -44.5 17.5t-16.5 52.5q0 32 13 60t32.5 52.5t43 45
t43.5 36.5zM671 342q10 0 14.5 -3.5t4.5 -8.5q0 -10 -16.5 -31t-43.5 -42.5t-62 -38t-72 -18.5q6 12 26 35.5t46.5 47.5t54 41.5t48.5 17.5zM419 294q0 -32 -20.5 -78t-54.5 -91l-20 12t-18.5 16.5t-13.5 25.5t-5 39q0 33 10 55.5t29 41.5q7 7 21.5 15t31.5 8q25 0 32.5 -14
t7.5 -30z" />
    <glyph glyph-name="Ydieresis" unicode="&#x178;" horiz-adv-x="730" 
d="M857 721q0 15 -6.5 26t-19.5 11q-20 0 -37 -17t-17 -36q0 -16 10.5 -25.5t30.5 -9.5q19 0 29 15.5t10 35.5zM722 721q0 15 -6.5 26t-19.5 11q-20 0 -37 -17t-17 -36q0 -16 10.5 -25.5t30.5 -9.5q19 0 29 15.5t10 35.5zM122 -196q-22 0 -31 10t-9 31q0 14 5.5 28.5t12 28
t12 24.5t5.5 17q0 18 -24 18q-13 0 -30.5 -12t-33 -32t-26.5 -45.5t-11 -53.5q0 -47 27.5 -72.5t78.5 -25.5q60 0 124.5 38.5t130 100t128.5 139.5t119 156q87 121 154.5 218.5t115.5 154.5q8 9 8 20q0 12 -11 20t-25 8q-9 0 -18 -4t-16 -13q-41 -51 -88.5 -99.5t-97 -91.5
t-98 -79.5t-90.5 -63t-74.5 -41t-50.5 -14.5q-46 0 -46 57q0 35 26.5 83t66.5 98t87 95.5t89 76.5q32 24 32 52q0 21 -17 29t-29 8q-25 0 -48 -14.5t-37 -26.5q-48 -44 -96 -98t-86.5 -111.5t-62.5 -115t-24 -106.5q0 -45 23.5 -67.5t65.5 -22.5q44 0 98.5 22.5t107.5 55
t99.5 69t75.5 65.5q-19 -26 -55 -74.5t-82 -105.5t-98.5 -116.5t-103 -107.5t-96 -79t-77.5 -31z" />
    <glyph glyph-name="exclamdown" unicode="&#xa1;" horiz-adv-x="369" 
d="M-24 -145q28 0 46 23q17 23 46 65t62 92t67 103.5t61.5 99.5t44.5 79.5t17 43.5q0 12 -7 20t-19 8q-17 0 -31 -26q-14 -24 -37 -57.5t-52 -72t-61.5 -80t-64 -81.5t-61 -77t-51.5 -65q-8 -10 -11 -16.5t-3 -17.5q0 -21 16 -31t38 -10zM337 474q0 -11 3.5 -18t15.5 -7
q13 0 26 6t23.5 15.5t17 20t6.5 19.5q0 28 -29 28q-16 0 -28 -6.5t-19.5 -16t-11.5 -21t-4 -20.5z" />
    <glyph glyph-name="cent" unicode="&#xa2;" horiz-adv-x="435" 
d="M389 231q-23 -18 -61 -37.5t-84 -23.5l148 223q17 -1 26.5 -3.5t21.5 -7.5q8 -4 12 -5t6 -1q14 0 25.5 10.5t11.5 21.5q0 9 -10 14.5t-22.5 9t-25 4.5t-16.5 1l13 19.5t12 17.5q2 2 2 6q0 8 -11 8q-8 0 -14 -8q-3 -4 -13 -18.5t-17 -25.5q-31 0 -76.5 -17t-88 -46.5
t-72.5 -69t-30 -83.5q0 -34 18 -57t50 -29q-7 -10 -14.5 -21.5t-15.5 -23.5q-3 -5 -3 -8q0 -8 9 -8q10 0 16 10q7 10 15.5 23.5t16.5 24.5q55 4 97.5 26t78.5 51q12 9 12 19q0 8 -7 8q-5 0 -10 -4zM196 213q0 30 19.5 61.5t46.5 57.5t55.5 43t46.5 17l-145 -219
q-12 2 -17.5 12.5t-5.5 27.5z" />
    <glyph glyph-name="sterling" unicode="&#xa3;" horiz-adv-x="668" 
d="M150 196q5 0 10 1q26 5 54.5 7t48.5 3q-14 -24 -36 -56t-57 -62q-6 1 -12 1h-11q-31 0 -51 -5.5t-31.5 -14t-16 -18.5t-4.5 -19q0 -16 15.5 -27t46.5 -11q28 0 53.5 9.5t41.5 17.5q22 -5 49 -17t57.5 -24.5t63.5 -22t68 -9.5q51 0 83 18t32 50q0 14 -7.5 25t-18.5 11
q-13 0 -24 -7q-17 -11 -35 -15.5t-36 -4.5q-24 0 -48.5 6t-48.5 14.5t-46 18t-41 16.5q26 21 54 55t51 78q11 1 28 2t48 1q14 0 25 -0.5t21 -0.5q9 0 14 5t5 12t-5 14.5t-26 7.5q-27 0 -53 -3.5t-43 -5.5q3 8 8.5 20t7.5 20q11 2 29 2.5t47 0.5q12 0 25.5 -0.5t20.5 -0.5
q8 0 13 5t5 12t-5 14.5t-27 7.5q-26 0 -52 -3t-43 -5q19 54 45.5 97.5t55.5 74t59 47t55 16.5q18 0 24 -8.5t6 -23.5q0 -25 -16.5 -56t-42.5 -53q-16 -15 -16 -28q0 -11 10 -19t24 -8q22 0 41 19q38 39 58 81t20 82q0 32 -19.5 51t-58.5 19q-45 0 -92.5 -20t-92 -58t-83 -94
t-65.5 -128q-8 -1 -22.5 -2.5t-32 -4.5t-36.5 -7t-36 -9q-11 -3 -11 -13q0 -6 8 -6q4 0 8 1q28 5 60.5 8.5t51.5 4.5q-4 -8 -10 -22t-9 -22q-8 -1 -22 -3t-31.5 -5t-37 -6.5t-36.5 -8.5q-11 -3 -11 -13q0 -6 8 -6z" />
    <glyph glyph-name="currency" unicode="&#xa4;" horiz-adv-x="628" 
d="M705 572q-13 -17 -29 -38.5t-28 -38.5q-29 -2 -61.5 -4t-65.5 -4.5t-64 -5.5t-55 -6q20 23 46.5 55t44.5 57q8 11 8 16q0 6 -6.5 8.5t-16.5 2.5q-18 0 -39 -6.5t-29 -15.5q-13 -15 -27.5 -33t-28 -35.5t-25.5 -33.5t-20 -26q-35 -5 -64.5 -9t-55.5 -9q-18 -3 -30 -15.5
t-12 -21.5q0 -10 11 -10q5 0 8.5 0.5t9.5 1.5q13 2 44 6.5t61 8.5l-58 -72q-20 -18 -46 -41.5t-55 -50t-59.5 -55t-59.5 -56.5q-11 -10 -11 -20q0 -9 9 -9q5 0 10 4q14 12 33.5 30t40 37.5t39.5 38.5l33 33q-10 -13 -33.5 -43t-48 -65.5t-43 -69t-18.5 -54.5
q0 -33 16.5 -46.5t44.5 -13.5q20 0 58 15.5t84 43.5t95.5 67t93.5 86q-33 -38 -56 -78.5t-23 -72.5q0 -21 7 -33.5t16.5 -18.5t20.5 -8t19 -2q12 0 26 3q31 6 62.5 22.5t61 38.5t55.5 45.5t46 43.5q8 8 10.5 13.5t2.5 9.5q0 8 -8 8t-15 -7q-18 -18 -43.5 -41t-52.5 -43.5
t-54 -34.5t-49 -14q-9 0 -9 11q0 14 15.5 44.5t40.5 69.5t56.5 83.5t62.5 86.5t59 78.5t46 60.5q46 2 79.5 2.5t71.5 0.5q12 0 21 5t15 12.5t9 16.5t3 16q0 15 -14 15q-8 0 -26 -1t-40 -2t-43.5 -2t-36.5 -2q11 13 27 33t29 34q2 3 4 6.5t2 9.5q0 8 -10.5 14t-25.5 6
q-16 0 -33 -7.5t-30 -24.5zM107 17q0 14 15 43t39 66.5t53.5 79.5t59 83t56 76.5t43.5 59.5q57 5 116.5 8.5t121.5 6.5l-139 -176q-14 -12 -40 -36t-59 -52.5t-70 -58.5t-72 -54.5t-65 -40.5t-49 -16q-10 0 -10 11z" />
    <glyph glyph-name="yen" unicode="&#xa5;" horiz-adv-x="524" 
d="M151 270q0 -4 7 -4q5 0 26.5 1t46.5 2.5t45.5 3t24.5 1.5q-8 -9 -15.5 -20.5t-15.5 -21.5q-11 -1 -28.5 -3t-37 -4t-40 -4.5t-36.5 -4.5q-8 -2 -17 -13t-9 -17q0 -4 5 -4q41 6 79.5 10.5t58.5 5.5q-10 -18 -25.5 -42t-30.5 -49.5t-25.5 -51t-10.5 -44.5q0 -12 4 -19
t10 -10.5t12 -4t11 -0.5q12 0 25 3.5t24 8.5t18 11t7 12q0 4 -6 9q-8 5 -8 19q0 15 9.5 38t23 46.5t27.5 45t22 34.5q17 2 55 5t108 7q7 0 7 10q0 6 -2.5 11t-7.5 5q-51 0 -86 -2.5t-51 -3.5q8 11 16 20.5t16 19.5q6 1 19.5 2t32.5 2.5t40.5 3t42.5 2.5q5 0 11 7.5t6 12.5
t-4.5 6t-21.5 1q-12 0 -28 -1t-31 -2t-28 -3t-20 -3q4 5 7 8.5t7 8.5q39 51 71.5 88t61 66.5t54 53.5t51.5 48q12 11 19 30t7 35q0 10 -3.5 17t-10.5 7q-11 0 -20 -7q-42 -31 -81.5 -71t-74.5 -80t-63.5 -75.5t-48.5 -57.5q-25 33 -48 83t-23 112q0 12 0.5 22t2.5 19
q3 12 3 15q0 13 -11 19t-26 6q-20 0 -38 -10.5t-18 -30.5t7.5 -58.5t21 -82t33.5 -84.5t46 -65q-6 -11 -11 -18q-5 -1 -22 -2t-39.5 -2.5t-46.5 -3t-43 -2.5q-6 0 -12.5 -8.5t-6.5 -13.5z" />
    <glyph glyph-name="brokenbar" unicode="&#xa6;" horiz-adv-x="148" 
d="M100 270h-54v-270h54v270zM46 377h54v297h-54v-297z" />
    <glyph glyph-name="section" unicode="&#xa7;" horiz-adv-x="384" 
d="M13 -89q30 0 73.5 16.5t83.5 42.5t68 58t28 64q0 15 -5.5 28.5t-14.5 25t-19 22t-19 19.5q31 5 65.5 18t63.5 33.5t48.5 48.5t19.5 64q0 17 -6.5 31.5t-17 27.5t-23 24.5t-24.5 23.5q-17 17 -29 32.5t-12 34.5q0 17 9 30t20.5 21.5t22.5 13t16 4.5q6 0 6 -6q0 -7 -8 -12
q26 3 48.5 10t39.5 16.5t26.5 21t9.5 23.5q0 7 -4.5 11.5t-18.5 4.5q-48 0 -90.5 -15.5t-74.5 -41t-50.5 -58.5t-18.5 -68q0 -14 3 -21q-18 -6 -49 -23.5t-60.5 -42t-51.5 -55t-22 -62.5q0 -31 20.5 -55.5t43.5 -46.5q26 -25 47.5 -48.5t21.5 -51.5t-18.5 -50t-45.5 -38.5
t-57 -26.5t-52 -13q-9 -2 -15.5 -7.5t-6.5 -12.5q0 -6 6.5 -10.5t22.5 -4.5zM249 433q33 -31 58 -58t25 -57q0 -18 -14 -34.5t-36.5 -30t-49.5 -24t-53 -14.5q-7 8 -16 17t-17.5 19t-14 22.5t-5.5 28.5q0 23 12.5 43.5t31 37.5t40 29.5t39.5 20.5z" />
    <glyph glyph-name="dieresis" unicode="&#xa8;" horiz-adv-x="341" 
d="M325 531q0 15 -6.5 26t-19.5 11q-20 0 -37 -17t-17 -36q0 -16 10.5 -25.5t30.5 -9.5q19 0 29 15.5t10 35.5zM190 531q0 15 -6.5 26t-19.5 11q-20 0 -37 -17t-17 -36q0 -16 10.5 -25.5t30.5 -9.5q19 0 29 15.5t10 35.5z" />
    <glyph glyph-name="copyright" unicode="&#xa9;" horiz-adv-x="452" 
d="M574 416q0 -21 -8.5 -41.5t-21 -39t-28 -34.5t-30.5 -28q-43 -36 -90.5 -51t-90.5 -15q-36 0 -36 33q0 24 16 50t38 47t45.5 34.5t39.5 13.5q6 0 10.5 -1t5.5 -4q2 -8 4.5 -14t10.5 -6q7 0 15.5 4t15 10t11 12.5t4.5 12.5q0 8 -6 13q-7 5 -24.5 8t-31.5 3q-38 0 -76 -18
t-68 -44.5t-48.5 -57.5t-18.5 -57q0 -34 21.5 -52t55.5 -18q24 0 51 5t54 14t52.5 23t46.5 32q16 14 34 31.5t33 38.5t25 45t10 51q0 51 -34 74.5t-86 23.5q-67 0 -132.5 -24t-117 -66.5t-83 -100.5t-31.5 -127q0 -51 34.5 -80.5t85.5 -29.5q32 0 65 12q8 3 13 8t5 9
q0 7 -5 7q-1 0 -3 -0.5t-7 -2.5q-13 -6 -27.5 -8.5t-28.5 -2.5q-45 0 -77 26t-32 69q0 60 30.5 113.5t78.5 93t107.5 62.5t118.5 23q53 0 79 -22t26 -57z" />
    <glyph glyph-name="ordfeminine" unicode="&#xaa;" horiz-adv-x="545" 
d="M130 216q9 0 18 3q5 2 22.5 11t43.5 9q15 0 34 -5.5t39 -12.5t38.5 -12.5t32.5 -5.5q37 0 65.5 10t52.5 22q22 13 22 25q0 9 -14 9q-7 0 -16 -3q-20 -6 -38.5 -14.5t-38.5 -8.5q-11 0 -28.5 5t-37.5 11q-19 6 -38 11t-33 5q-25 0 -43.5 -3t-33 -7.5t-26.5 -10.5t-24 -11
q-11 -6 -11 -15q0 -5 4 -8.5t10 -3.5zM388 339q0 11 13.5 33t35 49.5t48.5 58t54 58.5q-8 10 -29 16t-54 6q-47 0 -98 -20t-93.5 -51.5t-70.5 -71t-28 -78.5q0 -17 9 -28t31 -11q15 0 38.5 13t48 31.5t46.5 37.5t35 31q-11 -14 -20.5 -30.5t-9.5 -40.5q0 -17 10.5 -28.5
t30.5 -11.5q18 0 38 11.5t39.5 27t35 31.5t24.5 24q10 10 10 17q0 6 -6 6q-5 0 -10 -5q-12 -11 -28 -26t-32.5 -28.5t-31.5 -23t-24 -9.5q-12 0 -12 12zM245 375q0 14 16.5 37t56.5 56q45 37 81.5 49.5t56.5 12.5q11 0 16 -3q-19 -17 -47.5 -43.5t-57.5 -52.5
q-17 -14 -34 -27t-32 -22.5t-27 -15.5t-19 -6q-5 0 -7.5 4.5t-2.5 10.5z" />
    <glyph glyph-name="guillemotleft" unicode="&#xab;" horiz-adv-x="567" 
d="M368 56q0 8 -8.5 22.5t-22 32.5t-29.5 37t-31 36t-26.5 30.5t-15.5 19.5q-4 8 -4 10q0 9 13 20q11 8 30.5 20.5t42.5 27t46.5 29.5t43 28.5t32 24.5t12.5 18q0 5 -3.5 6t-7.5 1q-12 0 -34 -8t-49 -21t-57 -29t-57 -31.5t-48.5 -29.5t-32.5 -22q-13 -10 -13 -20
q0 -5 7 -15q12 -18 40.5 -50.5t60.5 -64.5t60.5 -56t42.5 -24q8 0 8 8zM559 65q0 11 -19.5 34.5t-44.5 48.5t-47 46.5t-28 29.5q-5 5 -6 8t-1 6q0 10 13 19q17 11 50 28t65.5 35t56.5 34.5t24 25.5q0 5 -4.5 6.5t-9.5 1.5q-18 0 -55 -13.5t-78 -32.5t-77.5 -39t-53.5 -32
q-13 -9 -13 -20q0 -5 2.5 -8t6.5 -8q13 -17 42.5 -46.5t62 -59t62 -51t43.5 -21.5q9 0 9 8z" />
    <glyph glyph-name="logicalnot" unicode="&#xac;" horiz-adv-x="830" 
d="M759 686q-11 0 -23.5 -5.5t-26.5 -17.5q-38 -35 -90.5 -91t-112 -122.5t-122 -138t-121 -137.5t-109 -122.5t-85.5 -91.5q-14 -14 -14 -25q0 -14 20 -14q11 0 25 6t27 18q27 26 73.5 76t104 114t122 135.5t128 141t121.5 131t103 104.5q9 9 9 18q0 8 -8 14.5t-21 6.5z
M297 546q2 0 6 2q30 23 66.5 45.5t61.5 36.5q-24 -37 -58 -84t-70.5 -97t-71.5 -100t-62 -92q-4 -7 -4 -13q0 -13 12.5 -22.5t25.5 -9.5q14 0 18 10q19 36 53.5 89.5t73.5 113.5t79 121t71 111q2 4 2 6q0 8 -8 13.5t-19 5.5q-10 0 -15 -4q-15 -11 -36.5 -25t-45 -30t-46 -33
t-39.5 -32q-2 -1 -2 -4q0 -2 3 -5t5 -3zM582 243q0 28 18 56.5t45 48.5q10 7 10 13q0 4 -7 4q-5 0 -11.5 -1t-15.5 -5q-11 -5 -27.5 -18t-31.5 -31t-26 -39t-11 -42t11 -39t26 -35q-11 -6 -32.5 -18.5t-43.5 -30.5t-38.5 -39.5t-16.5 -45.5q0 -31 23 -49t71 -18q24 0 49.5 6
t46.5 19t34.5 33.5t13.5 48.5q0 30 -15.5 56.5t-28.5 43.5q37 19 78.5 41t76 47.5t57 55.5t22.5 66q0 42 -19 62.5t-66 20.5q-17 0 -37 -4.5t-39 -12t-36 -16t-29 -17.5q-8 -6 -8 -12q0 -5 7 -5q4 0 12 3q26 12 51 18t45 6q38 0 56 -15.5t18 -36.5q0 -24 -21 -49
t-52.5 -48.5t-67.5 -44.5t-65 -37q-26 26 -26 60zM472 27q0 31 31.5 56.5t77.5 51.5q11 -15 18.5 -28.5t7.5 -38.5q0 -14 -5.5 -28t-16.5 -25.5t-27 -19t-36 -7.5t-35 11t-15 28z" />
    <glyph glyph-name="registered" unicode="&#xae;" horiz-adv-x="445" 
d="M217 362q0 -52 32.5 -85t98.5 -33q53 0 99.5 24.5t81.5 63t55 85.5t20 91q0 51 -34.5 80.5t-89.5 29.5q-60 0 -109 -26.5t-83 -65.5t-52.5 -83.5t-18.5 -80.5zM478 599q25 0 44.5 -8t33 -20.5t20.5 -29t7 -33.5q0 -41 -18.5 -83.5t-50 -77.5t-73.5 -57.5t-89 -22.5
q-58 0 -85.5 26.5t-27.5 71.5q0 30 16.5 70.5t47.5 77t75.5 61.5t99.5 25zM454 553q-29 0 -59 -12t-43 -35q-2 -2 -2 -5v-3q0 -7 3 -7t6 5q18 22 41 31t43 9q51 0 51 -36q0 -15 -9.5 -27.5t-24 -20.5t-31.5 -12.5t-32 -4.5q-13 0 -13 -12q0 -14 1 -28.5t5 -27.5t11.5 -24
t20.5 -18q7 -4 14 -4q6 0 12 3t6 6t-7 9q-21 16 -30.5 37t-10.5 47q50 2 83 25t33 56q0 23 -18.5 36t-49.5 13zM327 350q8 14 21 34.5t26.5 41.5t26.5 40.5t22 33.5q2 4 2 6q0 4 -3.5 6t-7.5 2q-6 0 -9 -4q-7 -10 -20 -28.5t-27 -39t-27.5 -40t-20.5 -32.5q-4 -5 -4 -10
t4 -10t9 -5t8 5z" />
    <glyph glyph-name="macron" unicode="&#xaf;" horiz-adv-x="352" 
d="M306 495h-199q-16 0 -25.5 -4.5t-9.5 -12.5q0 -13 35 -13h199q35 0 35 16q0 14 -35 14z" />
    <glyph glyph-name="degree" unicode="&#xb0;" horiz-adv-x="436" 
d="M246 519q0 -29 18 -49t55 -20q33 0 57 9.5t39.5 25t23.5 34.5t8 37q0 32 -20.5 55.5t-57.5 23.5q-26 0 -48.5 -10.5t-39 -27t-26 -37.5t-9.5 -41zM276 519q0 10 7.5 23t20 24t29 19t34.5 8q21 0 33 -11t12 -28q0 -11 -5.5 -23t-16 -21.5t-26.5 -16t-36 -6.5q-28 0 -40 8
t-12 24z" />
    <glyph glyph-name="twosuperior" unicode="&#xb2;" horiz-adv-x="515" 
d="M407 430q37 27 63 49.5t43 42.5t25 39t8 40q0 65 -82 65q-28 0 -55.5 -6.5t-49 -17.5t-34.5 -26.5t-13 -33.5q0 -25 33 -25q6 0 9 1q-2 3 -4.5 7t-2.5 8q0 11 10.5 19.5t25.5 14.5t32 9t30 3q17 0 26 -6.5t9 -25.5q0 -35 -29 -69.5t-80 -76.5q-26 -21 -55.5 -42.5
t-59.5 -42.5t-59 -40.5t-53 -36.5q-8 -6 -8 -18q0 -7 5 -12t17 -5q21 0 52 4.5t66.5 11.5t72.5 16.5t70 18.5q16 5 16 18q0 5 -3.5 9.5t-9.5 4.5q-2 0 -10 -2q-19 -5 -43 -9.5t-49.5 -8t-51 -6t-49.5 -3.5q13 10 34.5 24.5t47 32t53 36.5t53.5 39z" />
    <glyph glyph-name="threesuperior" unicode="&#xb3;" horiz-adv-x="515" 
d="M316 595q3 0 9 3q24 16 53.5 26.5t55.5 10.5q20 0 33.5 -7.5t13.5 -28.5q0 -25 -21.5 -49.5t-49 -45.5t-53 -36t-34.5 -20q-13 -9 -13 -13q0 -5 13 -5h9q10 3 21 3q23 0 38 -10t15 -27q0 -23 -23.5 -45.5t-59 -43t-76.5 -37t-76 -26.5q-16 -4 -16 -14q0 -11 12 -11
q4 0 6.5 0.5t4.5 0.5q41 10 92.5 27t97.5 40.5t77 51.5t31 61q0 18 -7.5 30t-19 19.5t-25 10.5t-24.5 5q9 6 34.5 21t51.5 36t46.5 46.5t20.5 52.5q0 26 -21.5 36.5t-55.5 10.5q-18 0 -39 -3.5t-41.5 -9.5t-39.5 -14.5t-33 -17.5q-8 -5 -11 -10.5t-3 -9.5q0 -8 7 -8z" />
    <glyph glyph-name="acute" unicode="&#xb4;" horiz-adv-x="305" 
d="M246 612q-11 -11 -24.5 -26l-27 -30t-26 -29.5t-21.5 -24.5q-5 -5 -5 -12q0 -9 9 -9q5 0 10 4q10 7 28 18.5t37 24.5t37 25.5t29 22.5q7 6 7 14q0 11 -11.5 20t-24.5 9q-10 0 -17 -7z" />
    <glyph glyph-name="mu" unicode="&#xb5;" horiz-adv-x="745" 
d="M759 685q-11 0 -23.5 -5.5t-26.5 -17.5q-38 -35 -90.5 -91t-112 -122.5t-122 -138t-121 -137.5t-109 -122t-85.5 -92q-14 -14 -14 -25q0 -14 20 -14q11 0 25 6t27 18q27 26 73.5 76t104 114t122 135.5t128 141t121.5 131t103 104.5q9 9 9 18q0 8 -8 14.5t-21 6.5z
M297 545q2 0 6 2q30 23 66.5 45.5t61.5 36.5q-24 -37 -58 -84t-70.5 -97t-71.5 -100t-62 -92q-4 -7 -4 -13q0 -13 12.5 -22.5t25.5 -9.5q14 0 18 10q19 36 53.5 89.5t73.5 113.5t79 121t71 111q2 4 2 6q0 8 -8 13.5t-19 5.5q-10 0 -15 -4q-15 -11 -36.5 -25t-45 -30t-46 -33
t-39.5 -32q-2 -1 -2 -4q0 -2 3 -5t5 -3zM627 165q37 27 63 49.5t43 42.5t25 39t8 40q0 65 -82 65q-28 0 -55.5 -6.5t-49 -17.5t-34.5 -26.5t-13 -33.5q0 -25 33 -25q6 0 9 1q-2 3 -4.5 7t-2.5 8q0 11 10.5 19.5t25.5 14.5t32 9t30 3q17 0 26 -6.5t9 -25.5q0 -35 -29 -69.5
t-80 -76.5q-26 -21 -55.5 -42.5t-59.5 -42.5t-59 -40.5t-53 -36.5q-8 -6 -8 -18q0 -7 5 -12t17 -5q21 0 52 4.5t66.5 11.5t72.5 16.5t70 18.5q16 5 16 18q0 5 -3.5 9.5t-9.5 4.5q-2 0 -10 -2q-19 -5 -43 -9.5t-49.5 -8t-51 -6t-49.5 -3.5q13 10 34.5 24.5t47 32t53 36.5
t53.5 39z" />
    <glyph glyph-name="paragraph" unicode="&#xb6;" horiz-adv-x="452" 
d="M76 -78q8 0 14.5 5t10.5 18q4 15 23.5 60.5t47 107t60.5 131.5t64.5 134t57.5 116t41 76q17 5 33.5 16t16.5 29q0 13 -5 24t-19 11q-82 0 -149 -24.5t-115 -61.5t-74 -81t-26 -83q0 -21 11 -39t30 -32.5t42.5 -25.5t49.5 -18q-4 -12 -15 -36.5t-25 -55t-29.5 -64
t-29.5 -63t-24.5 -53t-13.5 -33.5t-4.5 -19t-1.5 -14q0 -9 9 -17t20 -8zM201 -87q11 0 21.5 5.5t14.5 14.5q9 19 28 64t45 104.5t56.5 126.5t62 131.5t61.5 120.5t55 91q6 9 9 14.5t3 10.5q0 10 -9.5 15.5t-23.5 5.5q-11 0 -21 -4t-17 -12t-23 -38.5t-37.5 -74.5
t-47.5 -98.5t-52 -110.5t-50 -109.5t-43.5 -96.5t-31.5 -71.5t-14 -33.5q-3 -10 -6 -17.5t-3 -16.5q0 -11 7 -16t16 -5z" />
    <glyph glyph-name="periodcentered" unicode="&#xb7;" horiz-adv-x="355" 
d="M301 288q0 14 -4 22.5t-20 8.5t-32 -7.5t-29.5 -19t-22 -25t-8.5 -25.5q0 -34 37 -34q20 0 35 8t24.5 20t14.5 26t5 26z" />
    <glyph glyph-name="periodcentered" unicode="&#x2219;" horiz-adv-x="355" 
d="M301 288q0 14 -4 22.5t-20 8.5t-32 -7.5t-29.5 -19t-22 -25t-8.5 -25.5q0 -34 37 -34q20 0 35 8t24.5 20t14.5 26t5 26z" />
    <glyph glyph-name="cedilla" unicode="&#xb8;" horiz-adv-x="335" 
d="M260 -24q0 15 -3 24h-61q2 -5 3.5 -11t1.5 -15q0 -20 -14.5 -36.5t-37 -28.5t-51 -18.5t-55.5 -6.5q-17 0 -27.5 -3t-10.5 -16q0 -12 17 -15.5t40 -3.5q43 0 79 11.5t62.5 30t41.5 42t15 46.5z" />
    <glyph glyph-name="onesuperior" unicode="&#xb9;" horiz-adv-x="465" 
d="M297 546q2 0 6 2q30 23 66.5 45.5t61.5 36.5q-24 -37 -58 -84t-70.5 -97t-71.5 -100t-62 -92q-4 -7 -4 -13q0 -13 12.5 -22.5t25.5 -9.5q14 0 18 10q19 36 53.5 89.5t73.5 113.5t79 121t71 111q2 4 2 6q0 8 -8 13.5t-19 5.5q-10 0 -15 -4q-15 -11 -36.5 -25t-45 -30
t-46 -33t-39.5 -32q-2 -1 -2 -4q0 -2 3 -5t5 -3z" />
    <glyph glyph-name="ordmasculine" unicode="&#xba;" horiz-adv-x="545" 
d="M144 222q8 0 16 3q5 1 20.5 9.5t40.5 8.5q14 0 31 -5t35 -12q18 -6 34.5 -11t30.5 -5q34 0 59.5 9t47.5 20q20 11 20 22q0 8 -13 8h-6t-8 -2q-18 -5 -35.5 -13t-34.5 -8q-11 0 -26.5 4.5t-34.5 9.5q-17 6 -34 10.5t-31 4.5q-23 0 -39.5 -2.5t-29.5 -7t-24 -9.5l-22 -10
q-10 -4 -10 -13q0 -11 13 -11zM281 312q23 -3 47.5 1t46.5 12t40 19.5t29 23.5l12.5 -1t26.5 2q16 4 30.5 11.5t31.5 24.5q6 5 6.5 9.5t-1 7.5t-5.5 3t-7 -4q-11 -11 -21.5 -19.5t-27.5 -12.5q-8 -2 -16.5 0l-8.5 2q42 40 52.5 83t-1.5 73.5t-41.5 40t-68.5 -16.5
q-1 0 -1 -1h-1q-20 2 -40 -5t-37 -17.5t-30 -21t-18 -15.5q-23 -22 -40 -53.5t-20.5 -62.5t10.5 -54.5t53 -28.5zM368 526q-11 -15 -16.5 -30t-6.5 -35q-2 -33 10.5 -51t24.5 -23.5t14 -5.5q-22 -23 -46 -33.5t-44 -5.5q-17 5 -23.5 20.5t-4.5 36.5t14 44.5t33 43.5
q9 8 20 17.5t17.5 15t7.5 6.5zM458 552q12 -8 13.5 -24t-4.5 -36t-18.5 -43t-28.5 -44q-2 1 -12.5 6.5t-22 21t-9.5 40.5q3 43 27 67q1 1 9 6t21.5 9t24.5 -3z" />
    <glyph glyph-name="guillemotright" unicode="&#xbb;" horiz-adv-x="625" 
d="M474 255q-9 7 -29 20t-45.5 28.5t-53.5 31t-53.5 28.5t-45 21t-28.5 8q-6 0 -7.5 -3t-1.5 -5q0 -5 10.5 -15t27 -22.5t36 -26t38.5 -26t35 -22.5l24 -15q6 -4 7.5 -5.5t1.5 -3.5q0 -7 -12 -14q-11 -6 -33 -17l-49 -24.5t-56 -28.5t-53 -29t-39 -26t-15 -20q0 -6 7 -6
q10 0 34.5 8.5t56 22t66.5 30t68 33t60 31.5t41 24q12 7 12 15q0 5 -4 8zM684 255q-9 7 -28 21t-43.5 31t-52 35t-53 32.5t-46 24t-31.5 9.5q-10 0 -10 -9q0 -12 22.5 -32.5t52.5 -42.5t59 -41.5t43 -29.5q3 -2 3 -6q0 -7 -12 -15t-35 -21.5t-51.5 -30t-58.5 -34.5
t-54.5 -34.5t-40 -30.5t-15.5 -22q0 -6 6 -6q10 0 35 10t57.5 26.5t70 36.5t71.5 39.5t61.5 37t41.5 27.5q12 9 12 17q0 4 -4 8z" />
    <glyph glyph-name="onequarter" unicode="&#xbc;" horiz-adv-x="745" 
d="M759 686q-11 0 -23.5 -5.5t-26.5 -17.5q-38 -35 -90.5 -91t-112 -122.5t-122 -138t-121 -137.5t-109 -122.5t-85.5 -91.5q-14 -14 -14 -25q0 -14 20 -14q11 0 25 6t27 18q27 26 73.5 76t104 114t122 135.5t128 141t121.5 131t103 104.5q9 9 9 18q0 8 -8 14.5t-21 6.5z
M297 546q2 0 6 2q30 23 66.5 45.5t61.5 36.5q-24 -37 -58 -84t-70.5 -97t-71.5 -100t-62 -92q-4 -7 -4 -13q0 -13 12.5 -22.5t25.5 -9.5q14 0 18 10q19 36 53.5 89.5t73.5 113.5t79 121t71 111q2 4 2 6q0 8 -8 13.5t-19 5.5q-10 0 -15 -4q-15 -11 -36.5 -25t-45 -30t-46 -33
t-39.5 -32q-2 -1 -2 -4q0 -2 3 -5t5 -3zM489 143q21 19 46 42.5t54.5 54t63.5 70t73 90.5q7 8 7 18q0 9 -6 9q-5 0 -11 -9q-12 -15 -38 -40.5t-59 -56.5t-69 -64t-67.5 -62t-55 -51.5t-31.5 -31.5q-5 -5 -5 -7q0 -3 9 -4q14 -1 30.5 -1.5t33.5 -0.5q26 0 51 1.5t46 5.5
q-7 -11 -16 -25.5t-19 -30.5t-20 -31.5t-17 -28.5q-2 -4 -2 -10q0 -8 8.5 -12.5t19.5 -4.5t20.5 3.5t12.5 10.5q7 14 17.5 31.5t21.5 36.5t21.5 36.5t18.5 31.5q15 5 33 10.5t33 14.5q9 5 13 12.5t4 13.5q0 9 -7 9q-3 0 -7 -2q-11 -3 -20 -5.5t-22 -4.5q7 11 19 27.5
t25.5 36t28 41t26.5 42.5q2 4 3 6.5t1 4.5q0 6 -5 9t-12 3t-14 -3t-11 -9q-37 -51 -71.5 -96t-52.5 -71q-31 -6 -55 -7.5t-47 -1.5z" />
    <glyph glyph-name="onehalf" unicode="&#xbd;" horiz-adv-x="745" 
d="M759 685q-11 0 -23.5 -5.5t-26.5 -17.5q-38 -35 -90.5 -91t-112 -122.5t-122 -138t-121 -137.5t-109 -122t-85.5 -92q-14 -14 -14 -25q0 -14 20 -14q11 0 25 6t27 18q27 26 73.5 76t104 114t122 135.5t128 141t121.5 131t103 104.5q9 9 9 18q0 8 -8 14.5t-21 6.5z
M297 545q2 0 6 2q30 23 66.5 45.5t61.5 36.5q-24 -37 -58 -84t-70.5 -97t-71.5 -100t-62 -92q-4 -7 -4 -13q0 -13 12.5 -22.5t25.5 -9.5q14 0 18 10q19 36 53.5 89.5t73.5 113.5t79 121t71 111q2 4 2 6q0 8 -8 13.5t-19 5.5q-10 0 -15 -4q-15 -11 -36.5 -25t-45 -30t-46 -33
t-39.5 -32q-2 -1 -2 -4q0 -2 3 -5t5 -3zM627 165q37 27 63 49.5t43 42.5t25 39t8 40q0 65 -82 65q-28 0 -55.5 -6.5t-49 -17.5t-34.5 -26.5t-13 -33.5q0 -25 33 -25q6 0 9 1q-2 3 -4.5 7t-2.5 8q0 11 10.5 19.5t25.5 14.5t32 9t30 3q17 0 26 -6.5t9 -25.5q0 -35 -29 -69.5
t-80 -76.5q-26 -21 -55.5 -42.5t-59.5 -42.5t-59 -40.5t-53 -36.5q-8 -6 -8 -18q0 -7 5 -12t17 -5q21 0 52 4.5t66.5 11.5t72.5 16.5t70 18.5q16 5 16 18q0 5 -3.5 9.5t-9.5 4.5q-2 0 -10 -2q-19 -5 -43 -9.5t-49.5 -8t-51 -6t-49.5 -3.5q13 10 34.5 24.5t47 32t53 36.5
t53.5 39z" />
    <glyph glyph-name="threequarters" unicode="&#xbe;" horiz-adv-x="830" 
d="M877 686q-11 0 -23.5 -5.5t-26.5 -17.5q-38 -35 -90.5 -91t-112 -122.5t-122 -138t-121 -137.5t-109 -122.5t-85.5 -91.5q-14 -14 -14 -25q0 -14 20 -14q11 0 25 6t27 18q27 26 73.5 76t104 114t122 135.5t128 141t121.5 131t103 104.5q9 9 9 18q0 8 -8 14.5t-21 6.5z
M316 595q3 0 9 3q24 16 53.5 26.5t55.5 10.5q20 0 33.5 -7.5t13.5 -28.5q0 -25 -21.5 -49.5t-49 -45.5t-53 -36t-34.5 -20q-13 -9 -13 -13q0 -5 13 -5h9q10 3 21 3q23 0 38 -10t15 -27q0 -23 -23.5 -45.5t-59 -43t-76.5 -37t-76 -26.5q-16 -4 -16 -14q0 -11 12 -11
q4 0 6.5 0.5t4.5 0.5q41 10 92.5 27t97.5 40.5t77 51.5t31 61q0 18 -7.5 30t-19 19.5t-25 10.5t-24.5 5q9 6 34.5 21t51.5 36t46.5 46.5t20.5 52.5q0 26 -21.5 36.5t-55.5 10.5q-18 0 -39 -3.5t-41.5 -9.5t-39.5 -14.5t-33 -17.5q-8 -5 -11 -10.5t-3 -9.5q0 -8 7 -8z
M579 143q21 19 46 42.5t54.5 54t63.5 70t73 90.5q7 8 7 18q0 9 -6 9q-5 0 -11 -9q-12 -15 -38 -40.5t-59 -56.5t-69 -64t-67.5 -62t-55 -51.5t-31.5 -31.5q-5 -5 -5 -7q0 -3 9 -4q14 -1 30.5 -1.5t33.5 -0.5q26 0 51 1.5t46 5.5q-7 -11 -16 -25.5t-19 -30.5t-20 -31.5
t-17 -28.5q-2 -4 -2 -10q0 -8 8.5 -12.5t19.5 -4.5t20.5 3.5t12.5 10.5q7 14 17.5 31.5t21.5 36.5t21.5 36.5t18.5 31.5q15 5 33 10.5t33 14.5q9 5 13 12.5t4 13.5q0 9 -7 9q-3 0 -7 -2q-11 -3 -20 -5.5t-22 -4.5q7 11 19 27.5t25.5 36t28 41t26.5 42.5q2 4 3 6.5t1 4.5
q0 6 -5 9t-12 3t-14 -3t-11 -9q-37 -51 -71.5 -96t-52.5 -71q-31 -6 -55 -7.5t-47 -1.5z" />
    <glyph glyph-name="questiondown" unicode="&#xbf;" horiz-adv-x="455" 
d="M154 -47q-22 0 -38.5 7.5t-27.5 19.5t-16.5 27t-5.5 30q0 36 32 72t86 77q22 16 46.5 34.5t48.5 39.5t45.5 43.5t36.5 48.5q4 7 4 14q0 10 -9 10q-12 0 -23 -18q-12 -21 -33 -40t-45.5 -37t-51.5 -34.5t-51 -30.5q-39 -23 -70 -42.5t-53 -42t-33.5 -50t-11.5 -65.5
q0 -57 38 -92t113 -35q52 0 92 22t67 53.5t41 65.5t14 58q0 13 -5 20t-12 7q-9 0 -17.5 -9t-10.5 -21q-6 -33 -23.5 -58t-39.5 -41.5t-45.5 -24.5t-41.5 -8zM380 468q0 -11 3.5 -18t15.5 -7q13 0 26 6t23.5 15.5t17 20t6.5 19.5q0 28 -29 28q-16 0 -28 -6.5t-19.5 -16
t-11.5 -21t-4 -20.5z" />
    <glyph glyph-name="Agrave" unicode="&#xc0;" horiz-adv-x="668" 
d="M680 773q0 -9 10 -18q8 -7 25.5 -20.5t36 -27t34 -23.5t18.5 -10q8 0 8 8q0 4 -13.5 20.5t-30 35t-31.5 34.5t-18 19q-7 7 -16 7t-16 -7.5t-7 -17.5zM502 -1q18 28 41.5 67.5t48 82t46.5 84.5t37 76q13 1 27 1h33q27 0 41.5 9.5t14.5 25.5q0 8 -7.5 14t-23.5 6h-33
q-14 0 -25 -1q14 31 31 68t31.5 73.5t24 69t9.5 53.5q0 24 -12 30t-22 6q-28 0 -70 -22.5t-89.5 -57.5t-97 -78.5t-94 -85.5t-79.5 -78t-54 -57q-36 -10 -68.5 -19.5t-62.5 -21.5q-11 -5 -17 -12.5t-6 -14.5q0 -9 10 -9q4 0 16.5 3.5t27 7.5t28 8t19.5 6q-12 -12 -35 -36.5
t-50 -53t-53.5 -58t-46.5 -53.5q-12 -15 -12 -27q0 -11 9.5 -18t23.5 -7q12 0 25 6.5t24 20.5q24 34 52.5 68.5t58 67.5t57 63t50.5 54q24 5 54.5 11t63.5 11.5t67 11t66 9.5q-11 -19 -29 -51.5t-40 -71t-46.5 -80t-48.5 -78.5q-12 -20 -12 -33q0 -14 10 -21.5t24 -7.5
q16 0 33 9.5t30 29.5zM383 316q41 39 88 82t89.5 79t74.5 60t44 24q4 0 5 -3.5t1 -7.5q0 -12 -6.5 -33.5t-17 -48t-24 -55t-27.5 -54.5q-58 -7 -119 -19.5t-108 -23.5z" />
    <glyph glyph-name="Aacute" unicode="&#xc1;" horiz-adv-x="668" 
d="M812 789q-9 -9 -19.5 -21t-21.5 -24t-21 -23.5t-17 -19.5q-3 -3 -3.5 -5.5t-0.5 -4.5q0 -7 7 -7q3 0 8 3q8 6 22 15t29.5 19.5t30 20.5t23.5 18q5 4 5 11q0 9 -9 16t-20 7q-8 0 -13 -5zM502 -1q18 28 41.5 67.5t48 82t46.5 84.5t37 76q13 1 27 1h33q27 0 41.5 9.5
t14.5 25.5q0 8 -7.5 14t-23.5 6h-33q-14 0 -25 -1q14 31 31 68t31.5 73.5t24 69t9.5 53.5q0 24 -12 30t-22 6q-28 0 -70 -22.5t-89.5 -57.5t-97 -78.5t-94 -85.5t-79.5 -78t-54 -57q-36 -10 -68.5 -19.5t-62.5 -21.5q-11 -5 -17 -12.5t-6 -14.5q0 -9 10 -9q4 0 16.5 3.5
t27 7.5t28 8t19.5 6q-12 -12 -35 -36.5t-50 -53t-53.5 -58t-46.5 -53.5q-12 -15 -12 -27q0 -11 9.5 -18t23.5 -7q12 0 25 6.5t24 20.5q24 34 52.5 68.5t58 67.5t57 63t50.5 54q24 5 54.5 11t63.5 11.5t67 11t66 9.5q-11 -19 -29 -51.5t-40 -71t-46.5 -80t-48.5 -78.5
q-12 -20 -12 -33q0 -14 10 -21.5t24 -7.5q16 0 33 9.5t30 29.5zM383 316q41 39 88 82t89.5 79t74.5 60t44 24q4 0 5 -3.5t1 -7.5q0 -12 -6.5 -33.5t-17 -48t-24 -55t-27.5 -54.5q-58 -7 -119 -19.5t-108 -23.5z" />
    <glyph glyph-name="Acircumflex" unicode="&#xc2;" horiz-adv-x="668" 
d="M796 753q4 0 9 -6q12 -14 25 -31t28 -34q4 -4 6 -4q4 0 4 5v4q0 3 -1 8q-2 6 -7 24t-12.5 37t-15 34t-13.5 15q-11 0 -35.5 -13.5t-52.5 -31.5t-52.5 -36.5t-34.5 -27.5q-7 -6 -7 -9q0 -2 2 -2q1 0 9 3q12 5 30.5 13.5t37.5 17t36.5 17t29.5 13.5q9 4 14 4zM502 -1
q18 28 41.5 67.5t48 82t46.5 84.5t37 76q13 1 27 1h33q27 0 41.5 9.5t14.5 25.5q0 8 -7.5 14t-23.5 6h-33q-14 0 -25 -1q14 31 31 68t31.5 73.5t24 69t9.5 53.5q0 24 -12 30t-22 6q-28 0 -70 -22.5t-89.5 -57.5t-97 -78.5t-94 -85.5t-79.5 -78t-54 -57q-36 -10 -68.5 -19.5
t-62.5 -21.5q-11 -5 -17 -12.5t-6 -14.5q0 -9 10 -9q4 0 16.5 3.5t27 7.5t28 8t19.5 6q-12 -12 -35 -36.5t-50 -53t-53.5 -58t-46.5 -53.5q-12 -15 -12 -27q0 -11 9.5 -18t23.5 -7q12 0 25 6.5t24 20.5q24 34 52.5 68.5t58 67.5t57 63t50.5 54q24 5 54.5 11t63.5 11.5t67 11
t66 9.5q-11 -19 -29 -51.5t-40 -71t-46.5 -80t-48.5 -78.5q-12 -20 -12 -33q0 -14 10 -21.5t24 -7.5q16 0 33 9.5t30 29.5zM383 316q41 39 88 82t89.5 79t74.5 60t44 24q4 0 5 -3.5t1 -7.5q0 -12 -6.5 -33.5t-17 -48t-24 -55t-27.5 -54.5q-58 -7 -119 -19.5t-108 -23.5z" />
    <glyph glyph-name="Atilde" unicode="&#xc3;" horiz-adv-x="668" 
d="M587 699q4 0 10 3q17 8 35 18t41 10q20 0 36 -6t29 -14t30.5 -15t38.5 -7q42 0 71 13t43 28q16 18 16 24q0 10 -9 10q-4 0 -10 -3q-20 -12 -41 -21t-63 -9q-26 0 -50 19q-12 9 -26 16t-36 7q-16 0 -33 -5t-32.5 -13t-28.5 -17t-22 -17q-3 -3 -5.5 -6t-2.5 -7q0 -8 9 -8z
M502 -1q18 28 41.5 67.5t48 82t46.5 84.5t37 76q13 1 27 1h33q27 0 41.5 9.5t14.5 25.5q0 8 -7.5 14t-23.5 6h-33q-14 0 -25 -1q14 31 31 68t31.5 73.5t24 69t9.5 53.5q0 24 -12 30t-22 6q-28 0 -70 -22.5t-89.5 -57.5t-97 -78.5t-94 -85.5t-79.5 -78t-54 -57
q-36 -10 -68.5 -19.5t-62.5 -21.5q-11 -5 -17 -12.5t-6 -14.5q0 -9 10 -9q4 0 16.5 3.5t27 7.5t28 8t19.5 6q-12 -12 -35 -36.5t-50 -53t-53.5 -58t-46.5 -53.5q-12 -15 -12 -27q0 -11 9.5 -18t23.5 -7q12 0 25 6.5t24 20.5q24 34 52.5 68.5t58 67.5t57 63t50.5 54
q24 5 54.5 11t63.5 11.5t67 11t66 9.5q-11 -19 -29 -51.5t-40 -71t-46.5 -80t-48.5 -78.5q-12 -20 -12 -33q0 -14 10 -21.5t24 -7.5q16 0 33 9.5t30 29.5zM383 316q41 39 88 82t89.5 79t74.5 60t44 24q4 0 5 -3.5t1 -7.5q0 -12 -6.5 -33.5t-17 -48t-24 -55t-27.5 -54.5
q-58 -7 -119 -19.5t-108 -23.5z" />
    <glyph glyph-name="Adieresis" unicode="&#xc4;" horiz-adv-x="668" 
d="M907 761q0 15 -6.5 26t-19.5 11q-20 0 -37 -17t-17 -36q0 -16 10.5 -25.5t30.5 -9.5q19 0 29 15.5t10 35.5zM755 761q0 15 -6.5 26t-19.5 11q-20 0 -37 -17t-17 -36q0 -16 10.5 -25.5t30.5 -9.5q19 0 29 15.5t10 35.5zM502 -1q18 28 41.5 67.5t48 82t46.5 84.5t37 76
q13 1 27 1h33q27 0 41.5 9.5t14.5 25.5q0 8 -7.5 14t-23.5 6h-33q-14 0 -25 -1q14 31 31 68t31.5 73.5t24 69t9.5 53.5q0 24 -12 30t-22 6q-28 0 -70 -22.5t-89.5 -57.5t-97 -78.5t-94 -85.5t-79.5 -78t-54 -57q-36 -10 -68.5 -19.5t-62.5 -21.5q-11 -5 -17 -12.5t-6 -14.5
q0 -9 10 -9q4 0 16.5 3.5t27 7.5t28 8t19.5 6q-12 -12 -35 -36.5t-50 -53t-53.5 -58t-46.5 -53.5q-12 -15 -12 -27q0 -11 9.5 -18t23.5 -7q12 0 25 6.5t24 20.5q24 34 52.5 68.5t58 67.5t57 63t50.5 54q24 5 54.5 11t63.5 11.5t67 11t66 9.5q-11 -19 -29 -51.5t-40 -71
t-46.5 -80t-48.5 -78.5q-12 -20 -12 -33q0 -14 10 -21.5t24 -7.5q16 0 33 9.5t30 29.5zM383 316q41 39 88 82t89.5 79t74.5 60t44 24q4 0 5 -3.5t1 -7.5q0 -12 -6.5 -33.5t-17 -48t-24 -55t-27.5 -54.5q-58 -7 -119 -19.5t-108 -23.5z" />
    <glyph glyph-name="Aring" unicode="&#xc5;" horiz-adv-x="668" 
d="M743 736q0 -23 14.5 -39t43.5 -16q26 0 45.5 7.5t32 20t19 27.5t6.5 30q0 25 -16.5 44t-46.5 19q-21 0 -38.5 -8.5t-31 -22t-21 -30t-7.5 -32.5zM767 736q0 8 6 18.5t16 19.5t23 15t28 6q17 0 26.5 -8.5t9.5 -22.5q0 -17 -17.5 -35.5t-49.5 -18.5q-23 0 -32.5 6.5
t-9.5 19.5zM502 -1q18 28 41.5 67.5t48 82t46.5 84.5t37 76q13 1 27 1h33q27 0 41.5 9.5t14.5 25.5q0 8 -7.5 14t-23.5 6h-33q-14 0 -25 -1q14 31 31 68t31.5 73.5t24 69t9.5 53.5q0 24 -12 30t-22 6q-28 0 -70 -22.5t-89.5 -57.5t-97 -78.5t-94 -85.5t-79.5 -78t-54 -57
q-36 -10 -68.5 -19.5t-62.5 -21.5q-11 -5 -17 -12.5t-6 -14.5q0 -9 10 -9q4 0 16.5 3.5t27 7.5t28 8t19.5 6q-12 -12 -35 -36.5t-50 -53t-53.5 -58t-46.5 -53.5q-12 -15 -12 -27q0 -11 9.5 -18t23.5 -7q12 0 25 6.5t24 20.5q24 34 52.5 68.5t58 67.5t57 63t50.5 54
q24 5 54.5 11t63.5 11.5t67 11t66 9.5q-11 -19 -29 -51.5t-40 -71t-46.5 -80t-48.5 -78.5q-12 -20 -12 -33q0 -14 10 -21.5t24 -7.5q16 0 33 9.5t30 29.5zM383 316q41 39 88 82t89.5 79t74.5 60t44 24q4 0 5 -3.5t1 -7.5q0 -12 -6.5 -33.5t-17 -48t-24 -55t-27.5 -54.5
q-58 -7 -119 -19.5t-108 -23.5z" />
    <glyph glyph-name="AE" unicode="&#xc6;" horiz-adv-x="945" 
d="M1036 511q57 15 88.5 39.5t31.5 52.5q0 18 -17 28t-40 14.5t-48 5t-40 0.5q-29 0 -72 -3.5t-93.5 -9.5t-106 -14t-109.5 -18t-103.5 -21.5t-88.5 -23.5q-17 -5 -26 -20t-9 -27q0 -15 12 -15q7 0 13.5 2t14.5 4q28 9 67.5 15t92.5 14q-30 -14 -69 -38.5t-81.5 -57
t-86.5 -71.5t-86 -82q-36 -10 -65.5 -19.5t-65.5 -21.5q-23 -8 -23 -26q0 -10 10 -10q3 0 6.5 1t13.5 4q13 5 33 10t38 10q-12 -12 -35 -36.5t-50 -53t-53.5 -58t-46.5 -53.5q-10 -13 -10 -23q0 -13 12 -20.5t29 -7.5q14 0 29 6.5t26 21.5q21 29 50.5 63.5t60.5 68.5t61 66
t53 56q24 5 54.5 11t61.5 11.5t61 10.5t53 8q-9 -17 -25 -43t-36 -56t-41.5 -61t-41.5 -59.5t-37.5 -51t-28.5 -34.5q-7 -8 -7 -20q0 -11 6 -18.5t17 -7.5q8 0 46 9t92 19.5t118 19.5t124 9q32 0 48.5 13.5t16.5 33.5q0 12 -10 21.5t-32 9.5q-80 0 -156.5 -14t-133.5 -30
q21 25 46 59t50 70.5t47.5 72.5t38.5 66q25 4 54 6.5t56 4t48.5 2t30.5 0.5q27 0 41.5 10t14.5 25q0 8 -7.5 14t-23.5 6q-9 0 -32.5 -1t-51.5 -3t-56.5 -4.5t-46.5 -4.5q21 42 49.5 91t57.5 94q12 2 31 6t41.5 7.5t46.5 6t48 2.5q27 0 42.5 -1.5t24 -4.5t11 -7t2.5 -8
q0 -10 -9 -22t-20 -20zM406 319q100 83 177 134t128 77q-9 -14 -21.5 -34t-26 -43.5t-27 -47.5t-24.5 -45q-26 -3 -53.5 -8t-54.5 -10t-52 -11t-46 -12z" />
    <glyph glyph-name="Ccedilla" unicode="&#xc7;" horiz-adv-x="566" 
d="M307 42q-47 0 -71 28t-24 70q0 45 26.5 95t68 98t93 92.5t102 77.5t93.5 53t69 20q43 0 43 -37q0 -17 -9 -32.5t-23.5 -30t-33.5 -27.5t-38 -24q-19 -2 -37.5 -5.5t-33.5 -9t-24 -14.5t-9 -22q0 -15 25 -15q14 0 33.5 5.5t39.5 14.5q33 15 65 38t57.5 51t41.5 58.5
t16 62.5q0 27 -23 41t-56 14q-46 0 -107 -22.5t-126 -61t-128.5 -90t-113 -109t-80.5 -117.5t-31 -116q0 -28 7.5 -51t19.5 -40.5t27 -28.5t30 -16q5 -12 5 -22q0 -21 -14.5 -38t-37.5 -29t-50.5 -18.5t-53.5 -6.5q-23 0 -31.5 -5.5t-8.5 -13.5t7.5 -12t18 -6t20.5 -2h17
q48 0 84 12.5t60 31.5t36 40t12 38q0 9 -3 18q66 0 128.5 22t111 50.5t78 57t29.5 41.5q0 9 -8 9t-20 -12q-21 -22 -51 -41t-65 -33.5t-74 -22.5t-79 -8z" />
    <glyph glyph-name="Egrave" unicode="&#xc8;" horiz-adv-x="552" 
d="M564 773q0 -9 10 -18q8 -7 25.5 -20.5t36 -27t34 -23.5t18.5 -10q8 0 8 8q0 4 -13.5 20.5t-30 35t-31.5 34.5t-18 19q-7 7 -16 7t-16 -7.5t-7 -17.5zM364 260q38 62 75.5 114.5t82.5 94.5q21 20 21 39q0 12 -9 19.5t-23 7.5q-13 0 -28 -7t-30 -23q-39 -41 -77.5 -96.5
t-83.5 -124.5q-24 -38 -54.5 -80.5t-60.5 -82t-56.5 -72t-42.5 -50.5q-7 -8 -7 -20q0 -11 6 -18.5t17 -7.5q12 0 49.5 9t90.5 19.5t115.5 19.5t124.5 9q65 0 65 47q0 12 -10 21.5t-32 9.5q-80 0 -156.5 -14t-133.5 -30q32 38 72.5 92t84.5 124zM248 454q6 0 13 3.5t16 8.5
q43 24 98 43.5t112 34t111 22t96 7.5q25 0 40 -1.5t23.5 -4t11 -6.5t2.5 -9q0 -10 -9.5 -21.5t-20.5 -19.5q57 15 89 37.5t32 55.5q0 26 -31.5 35t-86.5 9q-53 0 -116 -11.5t-127.5 -31t-127.5 -46.5t-117 -57q-12 -7 -17.5 -15.5t-5.5 -16.5q0 -16 15 -16zM596 377
q-19 0 -38 -3t-35.5 -6.5t-29 -7.5t-17.5 -5q-31 -9 -46.5 -26t-15.5 -28t12 -11q10 0 27.5 4.5t34.5 8.5q22 5 41.5 9.5t51.5 4.5q25 0 40 13t15 27t-11.5 17t-28.5 3z" />
    <glyph glyph-name="Eacute" unicode="&#xc9;" horiz-adv-x="552" 
d="M743 789q-9 -9 -19.5 -21t-21.5 -24t-21 -23.5t-17 -19.5q-3 -3 -3.5 -5.5t-0.5 -4.5q0 -7 7 -7q3 0 8 3q8 6 22 15t29.5 19.5t30 20.5t23.5 18q5 4 5 11q0 9 -9 16t-20 7q-8 0 -13 -5zM364 260q38 62 75.5 114.5t82.5 94.5q21 20 21 39q0 12 -9 19.5t-23 7.5
q-13 0 -28 -7t-30 -23q-39 -41 -77.5 -96.5t-83.5 -124.5q-24 -38 -54.5 -80.5t-60.5 -82t-56.5 -72t-42.5 -50.5q-7 -8 -7 -20q0 -11 6 -18.5t17 -7.5q12 0 49.5 9t90.5 19.5t115.5 19.5t124.5 9q65 0 65 47q0 12 -10 21.5t-32 9.5q-80 0 -156.5 -14t-133.5 -30
q32 38 72.5 92t84.5 124zM248 454q6 0 13 3.5t16 8.5q43 24 98 43.5t112 34t111 22t96 7.5q25 0 40 -1.5t23.5 -4t11 -6.5t2.5 -9q0 -10 -9.5 -21.5t-20.5 -19.5q57 15 89 37.5t32 55.5q0 26 -31.5 35t-86.5 9q-53 0 -116 -11.5t-127.5 -31t-127.5 -46.5t-117 -57
q-12 -7 -17.5 -15.5t-5.5 -16.5q0 -16 15 -16zM596 377q-19 0 -38 -3t-35.5 -6.5t-29 -7.5t-17.5 -5q-31 -9 -46.5 -26t-15.5 -28t12 -11q10 0 27.5 4.5t34.5 8.5q22 5 41.5 9.5t51.5 4.5q25 0 40 13t15 27t-11.5 17t-28.5 3z" />
    <glyph glyph-name="Ecircumflex" unicode="&#xca;" horiz-adv-x="552" 
d="M727 753q4 0 9 -6q12 -14 25 -31t28 -34q4 -4 6 -4q4 0 4 5v4q0 3 -1 8q-2 6 -7 24t-12.5 37t-15 34t-13.5 15q-11 0 -35.5 -13.5t-52.5 -31.5t-52.5 -36.5t-34.5 -27.5q-7 -6 -7 -9q0 -2 2 -2q1 0 9 3q12 5 30.5 13.5t37.5 17t36.5 17t29.5 13.5q9 4 14 4zM364 260
q38 62 75.5 114.5t82.5 94.5q21 20 21 39q0 12 -9 19.5t-23 7.5q-13 0 -28 -7t-30 -23q-39 -41 -77.5 -96.5t-83.5 -124.5q-24 -38 -54.5 -80.5t-60.5 -82t-56.5 -72t-42.5 -50.5q-7 -8 -7 -20q0 -11 6 -18.5t17 -7.5q12 0 49.5 9t90.5 19.5t115.5 19.5t124.5 9q65 0 65 47
q0 12 -10 21.5t-32 9.5q-80 0 -156.5 -14t-133.5 -30q32 38 72.5 92t84.5 124zM248 454q6 0 13 3.5t16 8.5q43 24 98 43.5t112 34t111 22t96 7.5q25 0 40 -1.5t23.5 -4t11 -6.5t2.5 -9q0 -10 -9.5 -21.5t-20.5 -19.5q57 15 89 37.5t32 55.5q0 26 -31.5 35t-86.5 9
q-53 0 -116 -11.5t-127.5 -31t-127.5 -46.5t-117 -57q-12 -7 -17.5 -15.5t-5.5 -16.5q0 -16 15 -16zM596 377q-19 0 -38 -3t-35.5 -6.5t-29 -7.5t-17.5 -5q-31 -9 -46.5 -26t-15.5 -28t12 -11q10 0 27.5 4.5t34.5 8.5q22 5 41.5 9.5t51.5 4.5q25 0 40 13t15 27t-11.5 17
t-28.5 3z" />
    <glyph glyph-name="Edieresis" unicode="&#xcb;" horiz-adv-x="552" 
d="M834 721q0 15 -6.5 26t-19.5 11q-20 0 -37 -17t-17 -36q0 -16 10.5 -25.5t30.5 -9.5q19 0 29 15.5t10 35.5zM699 721q0 15 -6.5 26t-19.5 11q-20 0 -37 -17t-17 -36q0 -16 10.5 -25.5t30.5 -9.5q19 0 29 15.5t10 35.5zM364 260q38 62 75.5 114.5t82.5 94.5q21 20 21 39
q0 12 -9 19.5t-23 7.5q-13 0 -28 -7t-30 -23q-39 -41 -77.5 -96.5t-83.5 -124.5q-24 -38 -54.5 -80.5t-60.5 -82t-56.5 -72t-42.5 -50.5q-7 -8 -7 -20q0 -11 6 -18.5t17 -7.5q12 0 49.5 9t90.5 19.5t115.5 19.5t124.5 9q65 0 65 47q0 12 -10 21.5t-32 9.5q-80 0 -156.5 -14
t-133.5 -30q32 38 72.5 92t84.5 124zM248 454q6 0 13 3.5t16 8.5q43 24 98 43.5t112 34t111 22t96 7.5q25 0 40 -1.5t23.5 -4t11 -6.5t2.5 -9q0 -10 -9.5 -21.5t-20.5 -19.5q57 15 89 37.5t32 55.5q0 26 -31.5 35t-86.5 9q-53 0 -116 -11.5t-127.5 -31t-127.5 -46.5
t-117 -57q-12 -7 -17.5 -15.5t-5.5 -16.5q0 -16 15 -16zM596 377q-19 0 -38 -3t-35.5 -6.5t-29 -7.5t-17.5 -5q-31 -9 -46.5 -26t-15.5 -28t12 -11q10 0 27.5 4.5t34.5 8.5q22 5 41.5 9.5t51.5 4.5q25 0 40 13t15 27t-11.5 17t-28.5 3z" />
    <glyph glyph-name="Igrave" unicode="&#xcc;" horiz-adv-x="507" 
d="M371 78q-30 0 -59 -3t-49 -7q37 56 79 117t86 123t89 124t90 119q-6 8 -7 9q12 2 28 3t32 1q29 0 37 -2.5t8 -7.5q0 -7 -3.5 -12.5t-8.5 -10.5q27 9 44.5 28t17.5 46q0 20 -14.5 28t-36.5 8q-33 0 -76 -6t-85.5 -15t-79 -20t-57.5 -21q-18 -8 -26.5 -21.5t-8.5 -26.5
q0 -18 14 -18q4 0 8.5 1t14.5 7q9 5 23 9t29 7t29 5t23 2q-39 -53 -81.5 -111.5t-86 -119t-86 -123t-82.5 -124.5l7 -6q-10 -2 -24.5 -4t-30.5 -4.5t-31.5 -5.5t-27.5 -6q-14 -4 -21.5 -16t-7.5 -26q0 -11 5.5 -19t19.5 -8q7 0 41.5 6.5t81 14.5t99 16.5t95.5 12.5
q27 3 27 28q0 18 -9.5 23.5t-28.5 5.5zM515 773q0 -9 10 -18q8 -7 25.5 -20.5t36 -27t34 -23.5t18.5 -10q8 0 8 8q0 4 -13.5 20.5t-30 35t-31.5 34.5t-18 19q-7 7 -16 7t-16 -7.5t-7 -17.5z" />
    <glyph glyph-name="Iacute" unicode="&#xcd;" horiz-adv-x="507" 
d="M371 78q-30 0 -59 -3t-49 -7q37 56 79 117t86 123t89 124t90 119q-6 8 -7 9q12 2 28 3t32 1q29 0 37 -2.5t8 -7.5q0 -7 -3.5 -12.5t-8.5 -10.5q27 9 44.5 28t17.5 46q0 20 -14.5 28t-36.5 8q-33 0 -76 -6t-85.5 -15t-79 -20t-57.5 -21q-18 -8 -26.5 -21.5t-8.5 -26.5
q0 -18 14 -18q4 0 8.5 1t14.5 7q9 5 23 9t29 7t29 5t23 2q-39 -53 -81.5 -111.5t-86 -119t-86 -123t-82.5 -124.5l7 -6q-10 -2 -24.5 -4t-30.5 -4.5t-31.5 -5.5t-27.5 -6q-14 -4 -21.5 -16t-7.5 -26q0 -11 5.5 -19t19.5 -8q7 0 41.5 6.5t81 14.5t99 16.5t95.5 12.5
q27 3 27 28q0 18 -9.5 23.5t-28.5 5.5zM699 789q-9 -9 -19.5 -21t-21.5 -24t-21 -23.5t-17 -19.5q-3 -3 -3.5 -5.5t-0.5 -4.5q0 -7 7 -7q3 0 8 3q8 6 22 15t29.5 19.5t30 20.5t23.5 18q5 4 5 11q0 9 -9 16t-20 7q-8 0 -13 -5z" />
    <glyph glyph-name="Icircumflex" unicode="&#xce;" horiz-adv-x="507" 
d="M371 78q-30 0 -59 -3t-49 -7q37 56 79 117t86 123t89 124t90 119q-6 8 -7 9q12 2 28 3t32 1q29 0 37 -2.5t8 -7.5q0 -7 -3.5 -12.5t-8.5 -10.5q27 9 44.5 28t17.5 46q0 20 -14.5 28t-36.5 8q-33 0 -76 -6t-85.5 -15t-79 -20t-57.5 -21q-18 -8 -26.5 -21.5t-8.5 -26.5
q0 -18 14 -18q4 0 8.5 1t14.5 7q9 5 23 9t29 7t29 5t23 2q-39 -53 -81.5 -111.5t-86 -119t-86 -123t-82.5 -124.5l7 -6q-10 -2 -24.5 -4t-30.5 -4.5t-31.5 -5.5t-27.5 -6q-14 -4 -21.5 -16t-7.5 -26q0 -11 5.5 -19t19.5 -8q7 0 41.5 6.5t81 14.5t99 16.5t95.5 12.5
q27 3 27 28q0 18 -9.5 23.5t-28.5 5.5zM682 753q4 0 9 -6q12 -14 25 -31t28 -34q4 -4 6 -4q4 0 4 5v4q0 3 -1 8q-2 6 -7 24t-12.5 37t-15 34t-13.5 15q-11 0 -35.5 -13.5t-52.5 -31.5t-52.5 -36.5t-34.5 -27.5q-7 -6 -7 -9q0 -2 2 -2q1 0 9 3q12 5 30.5 13.5t37.5 17
t36.5 17t29.5 13.5q9 4 14 4z" />
    <glyph glyph-name="Idieresis" unicode="&#xcf;" horiz-adv-x="507" 
d="M371 78q-30 0 -59 -3t-49 -7q37 56 79 117t86 123t89 124t90 119q-6 8 -7 9q12 2 28 3t32 1q29 0 37 -2.5t8 -7.5q0 -7 -3.5 -12.5t-8.5 -10.5q27 9 44.5 28t17.5 46q0 20 -14.5 28t-36.5 8q-33 0 -76 -6t-85.5 -15t-79 -20t-57.5 -21q-18 -8 -26.5 -21.5t-8.5 -26.5
q0 -18 14 -18q4 0 8.5 1t14.5 7q9 5 23 9t29 7t29 5t23 2q-39 -53 -81.5 -111.5t-86 -119t-86 -123t-82.5 -124.5l7 -6q-10 -2 -24.5 -4t-30.5 -4.5t-31.5 -5.5t-27.5 -6q-14 -4 -21.5 -16t-7.5 -26q0 -11 5.5 -19t19.5 -8q7 0 41.5 6.5t81 14.5t99 16.5t95.5 12.5
q27 3 27 28q0 18 -9.5 23.5t-28.5 5.5zM750 721q0 15 -6.5 26t-19.5 11q-20 0 -37 -17t-17 -36q0 -16 10.5 -25.5t30.5 -9.5q19 0 29 15.5t10 35.5zM598 721q0 15 -6.5 26t-19.5 11q-20 0 -37 -17t-17 -36q0 -16 10.5 -25.5t30.5 -9.5q19 0 29 15.5t10 35.5z" />
    <glyph glyph-name="Eth" unicode="&#xd0;" horiz-adv-x="664" 
d="M327 278q12 1 23 1h24q23 0 42 -1t31 -2q4 -1 7 -1h7q15 0 26 10t11 21q0 16 -24 19q-20 2 -42 3.5t-45 1.5h-23q40 55 80.5 108.5t74.5 97.5q7 10 7 17q0 8 -7 12.5t-18 4.5q-14 0 -23 -9q-40 -42 -91.5 -104.5t-108.5 -132.5q-34 -4 -63 -9t-51 -10q-14 -4 -22 -13
t-8 -17q0 -10 13 -10q5 0 29.5 2.5t61.5 5.5q-51 -65 -97.5 -126.5t-82.5 -111.5q-7 -10 -7 -18t4.5 -16t11 -14.5t15 -11t17.5 -4.5q16 0 28 16q5 6 17 24.5t23 36.5q9 -33 38 -55t71 -22q52 0 108 18t109 51t101 78.5t84 100.5t57 118t21 130q0 44 -16.5 79.5t-47.5 60
t-75 38t-98 13.5q-33 0 -69.5 -6.5t-71.5 -18.5t-66.5 -28.5t-56.5 -37.5q-17 -14 -24.5 -26t-7.5 -20q0 -10 11 -10q14 0 36 15q44 29 100.5 51.5t119.5 22.5q39 0 75.5 -9t64 -27.5t44.5 -46t17 -63.5q0 -49 -20 -98.5t-52.5 -95t-74.5 -84.5t-86 -68.5t-86.5 -46
t-75.5 -16.5q-62 0 -75 80q18 29 46 68.5t60 84.5z" />
    <glyph glyph-name="Ntilde" unicode="&#xd1;" horiz-adv-x="686" 
d="M535 689q4 0 10 3q17 8 35 18t41 10q20 0 36 -6t29 -14t30.5 -15t38.5 -7q42 0 71 13t43 28q16 18 16 24q0 10 -9 10q-4 0 -10 -3q-20 -12 -41 -21t-63 -9q-26 0 -50 19q-12 9 -26 16t-36 7q-16 0 -33 -5t-32.5 -13t-28.5 -17t-22 -17q-3 -3 -5.5 -6t-2.5 -7q0 -8 9 -8z
M495 620q-22 0 -41 -16t-36 -43q-14 -22 -41 -60t-62 -86t-74 -101.5t-75.5 -104.5t-68.5 -96.5t-52 -77.5q-7 -11 -7 -24q0 -16 12 -26t24 -10q19 0 27 12q56 81 106.5 150.5t91 125.5t70 96.5t43.5 61.5q-9 -24 -22.5 -62t-25.5 -82t-21 -90t-9 -85q0 -63 16.5 -94
t58.5 -31q32 0 79 33.5t98.5 88.5t103 124.5t92 141t66 139t25.5 117.5q0 16 -8.5 23t-19.5 7q-34 0 -40 -34q-8 -42 -32.5 -99.5t-58.5 -119.5t-74.5 -123t-80 -109t-74.5 -78t-58 -30q-18 0 -25.5 15.5t-7.5 40.5q0 45 13 102t32.5 116t41 115t39.5 101q7 17 7 35
q0 19 -9 28t-23 9z" />
    <glyph glyph-name="Ograve" unicode="&#xd2;" 
d="M564 773q0 -9 10 -18q8 -7 25.5 -20.5t36 -27t34 -23.5t18.5 -10q8 0 8 8q0 4 -13.5 20.5t-30 35t-31.5 34.5t-18 19q-7 7 -16 7t-16 -7.5t-7 -17.5zM254 -16q68 0 133.5 24.5t123 65.5t106 94.5t83.5 111.5t54.5 116.5t19.5 109.5q0 41 -14 70.5t-37.5 48.5t-54.5 28
t-66 9q-76 0 -128.5 -35t-69.5 -91q-54 -24 -107 -73.5t-95 -110.5t-68 -125.5t-26 -117.5q0 -69 38.5 -97t107.5 -28zM459 427q0 5 -1 8q-1 5 -1.5 11t-0.5 12q0 11 1.5 23t6.5 22q15 11 28 17t30 14q8 3 13 11t5 16q0 6 -4 10.5t-13 4.5q-12 0 -24.5 -5.5t-18.5 -8.5
q2 6 10.5 16t23.5 20.5t37 18t50 7.5q52 0 76 -24t24 -66q0 -40 -19.5 -93t-52.5 -109t-77 -110.5t-93 -97t-99.5 -68.5t-97.5 -26q-35 0 -50 13.5t-15 50.5t18.5 89.5t49 105.5t69 100t78.5 74q5 -24 15.5 -36t21.5 -12q10 0 10 12z" />
    <glyph glyph-name="Oacute" unicode="&#xd3;" 
d="M743 789q-9 -9 -19.5 -21t-21.5 -24t-21 -23.5t-17 -19.5q-3 -3 -3.5 -5.5t-0.5 -4.5q0 -7 7 -7q3 0 8 3q8 6 22 15t29.5 19.5t30 20.5t23.5 18q5 4 5 11q0 9 -9 16t-20 7q-8 0 -13 -5zM254 -16q68 0 133.5 24.5t123 65.5t106 94.5t83.5 111.5t54.5 116.5t19.5 109.5
q0 41 -14 70.5t-37.5 48.5t-54.5 28t-66 9q-76 0 -128.5 -35t-69.5 -91q-54 -24 -107 -73.5t-95 -110.5t-68 -125.5t-26 -117.5q0 -69 38.5 -97t107.5 -28zM459 427q0 5 -1 8q-1 5 -1.5 11t-0.5 12q0 11 1.5 23t6.5 22q15 11 28 17t30 14q8 3 13 11t5 16q0 6 -4 10.5
t-13 4.5q-12 0 -24.5 -5.5t-18.5 -8.5q2 6 10.5 16t23.5 20.5t37 18t50 7.5q52 0 76 -24t24 -66q0 -40 -19.5 -93t-52.5 -109t-77 -110.5t-93 -97t-99.5 -68.5t-97.5 -26q-35 0 -50 13.5t-15 50.5t18.5 89.5t49 105.5t69 100t78.5 74q5 -24 15.5 -36t21.5 -12q10 0 10 12z
" />
    <glyph glyph-name="Ocircumflex" unicode="&#xd4;" 
d="M697 753q4 0 9 -6q12 -14 25 -31t28 -34q4 -4 6 -4q4 0 4 5v4q0 3 -1 8q-2 6 -7 24t-12.5 37t-15 34t-13.5 15q-11 0 -35.5 -13.5t-52.5 -31.5t-52.5 -36.5t-34.5 -27.5q-7 -6 -7 -9q0 -2 2 -2q1 0 9 3q12 5 30.5 13.5t37.5 17t36.5 17t29.5 13.5q9 4 14 4zM254 -16
q68 0 133.5 24.5t123 65.5t106 94.5t83.5 111.5t54.5 116.5t19.5 109.5q0 41 -14 70.5t-37.5 48.5t-54.5 28t-66 9q-76 0 -128.5 -35t-69.5 -91q-54 -24 -107 -73.5t-95 -110.5t-68 -125.5t-26 -117.5q0 -69 38.5 -97t107.5 -28zM459 427q0 5 -1 8q-1 5 -1.5 11t-0.5 12
q0 11 1.5 23t6.5 22q15 11 28 17t30 14q8 3 13 11t5 16q0 6 -4 10.5t-13 4.5q-12 0 -24.5 -5.5t-18.5 -8.5q2 6 10.5 16t23.5 20.5t37 18t50 7.5q52 0 76 -24t24 -66q0 -40 -19.5 -93t-52.5 -109t-77 -110.5t-93 -97t-99.5 -68.5t-97.5 -26q-35 0 -50 13.5t-15 50.5
t18.5 89.5t49 105.5t69 100t78.5 74q5 -24 15.5 -36t21.5 -12q10 0 10 12z" />
    <glyph glyph-name="Otilde" unicode="&#xd5;" 
d="M517 715q4 0 10 3q17 8 35 18t41 10q20 0 36 -6t29 -14t30.5 -15t38.5 -7q42 0 71 13t43 28q16 18 16 24q0 10 -9 10q-4 0 -10 -3q-20 -12 -41 -21t-63 -9q-26 0 -50 19q-12 9 -26 16t-36 7q-16 0 -33 -5t-32.5 -13t-28.5 -17t-22 -17q-3 -3 -5.5 -6t-2.5 -7q0 -8 9 -8z
M254 -16q68 0 133.5 24.5t123 65.5t106 94.5t83.5 111.5t54.5 116.5t19.5 109.5q0 41 -14 70.5t-37.5 48.5t-54.5 28t-66 9q-76 0 -128.5 -35t-69.5 -91q-54 -24 -107 -73.5t-95 -110.5t-68 -125.5t-26 -117.5q0 -69 38.5 -97t107.5 -28zM459 427q0 5 -1 8q-1 5 -1.5 11
t-0.5 12q0 11 1.5 23t6.5 22q15 11 28 17t30 14q8 3 13 11t5 16q0 6 -4 10.5t-13 4.5q-12 0 -24.5 -5.5t-18.5 -8.5q2 6 10.5 16t23.5 20.5t37 18t50 7.5q52 0 76 -24t24 -66q0 -40 -19.5 -93t-52.5 -109t-77 -110.5t-93 -97t-99.5 -68.5t-97.5 -26q-35 0 -50 13.5t-15 50.5
t18.5 89.5t49 105.5t69 100t78.5 74q5 -24 15.5 -36t21.5 -12q10 0 10 12z" />
    <glyph glyph-name="Odieresis" unicode="&#xd6;" 
d="M832 761q0 15 -6.5 26t-19.5 11q-20 0 -37 -17t-17 -36q0 -16 10.5 -25.5t30.5 -9.5q19 0 29 15.5t10 35.5zM680 761q0 15 -6.5 26t-19.5 11q-20 0 -37 -17t-17 -36q0 -16 10.5 -25.5t30.5 -9.5q19 0 29 15.5t10 35.5zM254 -16q68 0 133.5 24.5t123 65.5t106 94.5
t83.5 111.5t54.5 116.5t19.5 109.5q0 41 -14 70.5t-37.5 48.5t-54.5 28t-66 9q-76 0 -128.5 -35t-69.5 -91q-54 -24 -107 -73.5t-95 -110.5t-68 -125.5t-26 -117.5q0 -69 38.5 -97t107.5 -28zM459 427q0 5 -1 8q-1 5 -1.5 11t-0.5 12q0 11 1.5 23t6.5 22q15 11 28 17t30 14
q8 3 13 11t5 16q0 6 -4 10.5t-13 4.5q-12 0 -24.5 -5.5t-18.5 -8.5q2 6 10.5 16t23.5 20.5t37 18t50 7.5q52 0 76 -24t24 -66q0 -40 -19.5 -93t-52.5 -109t-77 -110.5t-93 -97t-99.5 -68.5t-97.5 -26q-35 0 -50 13.5t-15 50.5t18.5 89.5t49 105.5t69 100t78.5 74
q5 -24 15.5 -36t21.5 -12q10 0 10 12z" />
    <glyph glyph-name="multiply" unicode="&#xd7;" horiz-adv-x="564" 
d="M38 449l196 -196l-196 -197l48 -48l196 197l197 -197l48 48l-197 197l197 196l-48 48l-197 -197l-196 197z" />
    <glyph glyph-name="Oslash" unicode="&#xd8;" 
d="M746 676q-7 -8 -17.5 -19.5t-19.5 -22.5q-23 15 -49 21t-55 6q-36 0 -68.5 -8t-59 -24t-45.5 -39t-28 -54q-58 -26 -111.5 -77t-94.5 -111t-65.5 -123t-24.5 -113q0 -66 37 -99q-6 -5 -16 -16t-23 -24q-14 -14 -14 -25q0 -14 20 -14q11 0 25 5.5t27 18.5q9 9 17 16.5
t13 14.5q15 -2 29.5 -3.5t29.5 -1.5q60 0 116 19t106 50t93 71t78 82q72 88 100 167t28 135q0 31 -7 50.5t-15 33.5q19 19 34.5 36.5t29.5 31.5q8 8 8 17q0 10 -8.5 16.5t-22.5 6.5q-11 0 -23 -5.5t-24 -18.5zM523 576q-10 0 -23.5 -5t-18.5 -8q1 5 10.5 15.5t24.5 21t36 18
t45 7.5q20 0 41.5 -5.5t36.5 -19.5q-10 -11 -44 -49t-80.5 -90t-100 -112t-103 -115t-90 -99t-59.5 -64q-2 10 -2 18q0 37 19 90.5t54 116.5q29 53 65.5 96t77.5 71q5 -28 16 -38t21 -10q11 0 11 11q0 3 -2 9q-3 7 -3 19q0 26 10 49q17 12 28.5 17.5t28.5 13.5q8 3 13 11
t5 16q0 6 -4 10.5t-13 4.5zM248 30h-12q22 24 61.5 66t86 93.5t96.5 106t94.5 103.5t78.5 86.5t49 54.5q0 -49 -31 -125.5t-103 -171.5q-32 -42 -69.5 -80.5t-78.5 -68t-84.5 -47t-87.5 -17.5z" />
    <glyph glyph-name="Ugrave" unicode="&#xd9;" horiz-adv-x="685" 
d="M589 732q0 -4 1 -8.5t6 -11.5q7 -8 22 -24.5t30.5 -33t29 -29t16.5 -12.5q8 -2 10 6q1 4 -9.5 22.5t-24 40t-25.5 40t-14 21.5q-3 5 -6.5 6.5t-8.5 3.5q-8 2 -16.5 -4.5t-10.5 -16.5zM537 642q-16 0 -31.5 -4.5t-27.5 -15.5q-45 -38 -91 -85.5t-88.5 -99t-79 -105
t-64 -103.5t-43 -95t-15.5 -79q0 -37 21.5 -63t70.5 -26q39 0 83.5 18t89 48t87.5 70t80 85q-11 -29 -17.5 -57t-6.5 -54q0 -32 9 -50.5t31 -18.5q15 0 34.5 10.5t41 27t43.5 37t42 41.5q9 9 9 18q0 12 -10 12q-6 0 -12 -7q-12 -13 -26.5 -25t-29.5 -21.5t-29 -15.5t-24 -6
q-13 0 -16.5 7t-3.5 21q0 16 3.5 34t9 36t12 35t12.5 32q74 72 136 140t95 141q7 17 7 25q0 14 -10 22.5t-24 8.5q-10 0 -20.5 -4t-20.5 -13q-57 -50 -107.5 -121t-86.5 -148q-12 -15 -34.5 -40.5t-51.5 -55t-62.5 -60t-67 -55t-65.5 -40t-57 -15.5q-50 0 -50 45
q0 24 16 61.5t44 82t65.5 93.5t80 97t88 92.5t90.5 79.5q23 19 23 33t-15.5 22t-36.5 8z" />
    <glyph glyph-name="Uacute" unicode="&#xda;" horiz-adv-x="685" 
d="M762 758q-9 -9 -19.5 -21t-21.5 -24t-21 -23.5t-17 -19.5q-3 -3 -3.5 -5.5t-0.5 -4.5q0 -7 7 -7q3 0 8 3q8 6 22 15t29.5 19.5t30 20.5t23.5 18q5 4 5 11q0 9 -9 16t-20 7q-8 0 -13 -5zM537 642q-16 0 -31.5 -4.5t-27.5 -15.5q-45 -38 -91 -85.5t-88.5 -99t-79 -105
t-64 -103.5t-43 -95t-15.5 -79q0 -37 21.5 -63t70.5 -26q39 0 83.5 18t89 48t87.5 70t80 85q-11 -29 -17.5 -57t-6.5 -54q0 -32 9 -50.5t31 -18.5q15 0 34.5 10.5t41 27t43.5 37t42 41.5q9 9 9 18q0 12 -10 12q-6 0 -12 -7q-12 -13 -26.5 -25t-29.5 -21.5t-29 -15.5t-24 -6
q-13 0 -16.5 7t-3.5 21q0 16 3.5 34t9 36t12 35t12.5 32q74 72 136 140t95 141q7 17 7 25q0 14 -10 22.5t-24 8.5q-10 0 -20.5 -4t-20.5 -13q-57 -50 -107.5 -121t-86.5 -148q-12 -15 -34.5 -40.5t-51.5 -55t-62.5 -60t-67 -55t-65.5 -40t-57 -15.5q-50 0 -50 45
q0 24 16 61.5t44 82t65.5 93.5t80 97t88 92.5t90.5 79.5q23 19 23 33t-15.5 22t-36.5 8z" />
    <glyph glyph-name="Ucircumflex" unicode="&#xdb;" horiz-adv-x="685" 
d="M769 735q4 0 9 -6q12 -14 25 -31t28 -34q4 -4 6 -4q4 0 4 5v4q0 3 -1 8q-2 6 -7 24t-12.5 37t-15 34t-13.5 15q-11 0 -35.5 -13.5t-52.5 -31.5t-52.5 -36.5t-34.5 -27.5q-7 -6 -7 -9q0 -2 2 -2q1 0 9 3q12 5 30.5 13.5t37.5 17t36.5 17t29.5 13.5q9 4 14 4zM537 642
q-16 0 -31.5 -4.5t-27.5 -15.5q-45 -38 -91 -85.5t-88.5 -99t-79 -105t-64 -103.5t-43 -95t-15.5 -79q0 -37 21.5 -63t70.5 -26q39 0 83.5 18t89 48t87.5 70t80 85q-11 -29 -17.5 -57t-6.5 -54q0 -32 9 -50.5t31 -18.5q15 0 34.5 10.5t41 27t43.5 37t42 41.5q9 9 9 18
q0 12 -10 12q-6 0 -12 -7q-12 -13 -26.5 -25t-29.5 -21.5t-29 -15.5t-24 -6q-13 0 -16.5 7t-3.5 21q0 16 3.5 34t9 36t12 35t12.5 32q74 72 136 140t95 141q7 17 7 25q0 14 -10 22.5t-24 8.5q-10 0 -20.5 -4t-20.5 -13q-57 -50 -107.5 -121t-86.5 -148q-12 -15 -34.5 -40.5
t-51.5 -55t-62.5 -60t-67 -55t-65.5 -40t-57 -15.5q-50 0 -50 45q0 24 16 61.5t44 82t65.5 93.5t80 97t88 92.5t90.5 79.5q23 19 23 33t-15.5 22t-36.5 8z" />
    <glyph glyph-name="Udieresis" unicode="&#xdc;" horiz-adv-x="685" 
d="M865 721q0 15 -6.5 26t-19.5 11q-20 0 -37 -17t-17 -36q0 -16 10.5 -25.5t30.5 -9.5q19 0 29 15.5t10 35.5zM730 721q0 15 -6.5 26t-19.5 11q-20 0 -37 -17t-17 -36q0 -16 10.5 -25.5t30.5 -9.5q19 0 29 15.5t10 35.5zM537 642q-16 0 -31.5 -4.5t-27.5 -15.5
q-45 -38 -91 -85.5t-88.5 -99t-79 -105t-64 -103.5t-43 -95t-15.5 -79q0 -37 21.5 -63t70.5 -26q39 0 83.5 18t89 48t87.5 70t80 85q-11 -29 -17.5 -57t-6.5 -54q0 -32 9 -50.5t31 -18.5q15 0 34.5 10.5t41 27t43.5 37t42 41.5q9 9 9 18q0 12 -10 12q-6 0 -12 -7
q-12 -13 -26.5 -25t-29.5 -21.5t-29 -15.5t-24 -6q-13 0 -16.5 7t-3.5 21q0 16 3.5 34t9 36t12 35t12.5 32q74 72 136 140t95 141q7 17 7 25q0 14 -10 22.5t-24 8.5q-10 0 -20.5 -4t-20.5 -13q-57 -50 -107.5 -121t-86.5 -148q-12 -15 -34.5 -40.5t-51.5 -55t-62.5 -60
t-67 -55t-65.5 -40t-57 -15.5q-50 0 -50 45q0 24 16 61.5t44 82t65.5 93.5t80 97t88 92.5t90.5 79.5q23 19 23 33t-15.5 22t-36.5 8z" />
    <glyph glyph-name="Yacute" unicode="&#xdd;" horiz-adv-x="730" 
d="M122 -196q-22 0 -31 10t-9 31q0 14 5.5 28.5t12 28t12 24.5t5.5 17q0 18 -24 18q-13 0 -30.5 -12t-33 -32t-26.5 -45.5t-11 -53.5q0 -47 27.5 -72.5t78.5 -25.5q60 0 124.5 38.5t130 100t128.5 139.5t119 156q87 121 154.5 218.5t115.5 154.5q8 9 8 20q0 12 -11 20t-25 8
q-9 0 -18 -4t-16 -13q-41 -51 -88.5 -99.5t-97 -91.5t-98 -79.5t-90.5 -63t-74.5 -41t-50.5 -14.5q-46 0 -46 57q0 35 26.5 83t66.5 98t87 95.5t89 76.5q32 24 32 52q0 21 -17 29t-29 8q-25 0 -48 -14.5t-37 -26.5q-48 -44 -96 -98t-86.5 -111.5t-62.5 -115t-24 -106.5
q0 -45 23.5 -67.5t65.5 -22.5q44 0 98.5 22.5t107.5 55t99.5 69t75.5 65.5q-19 -26 -55 -74.5t-82 -105.5t-98.5 -116.5t-103 -107.5t-96 -79t-77.5 -31zM768 734q-9 -9 -19.5 -21t-21.5 -24t-21 -23.5t-17 -19.5q-3 -3 -3.5 -5.5t-0.5 -4.5q0 -7 7 -7q3 0 8 3q8 6 22 15
t29.5 19.5t30 20.5t23.5 18q5 4 5 11q0 9 -9 16t-20 7q-8 0 -13 -5z" />
    <glyph glyph-name="Thorn" unicode="&#xde;" horiz-adv-x="597" 
d="M480 496q55 -4 79.5 -31t24.5 -73q0 -56 -27 -99t-69 -72.5t-93 -45t-99 -15.5q-23 0 -35 3q13 20 37.5 58t55 84t63.5 96t63 95zM513 546q21 31 35.5 53.5t20.5 31.5q7 11 7 20q0 13 -12 19.5t-27 6.5q-12 0 -23 -4t-17 -12q-9 -12 -31 -45.5t-51 -78.5
q-63 -14 -120 -43.5t-91 -74.5q-12 -16 -12 -29q0 -9 7 -9q6 0 20 12q33 32 75.5 56t87.5 36q-29 -45 -59 -92t-57 -89t-48.5 -75t-32.5 -49q-8 4 -17 7.5t-16 3.5q-8 0 -11.5 -5.5t-3.5 -10.5q0 -9 9 -16.5t17 -12.5q-11 -17 -19.5 -28t-17 -22.5t-18.5 -25.5t-25 -36
q-5 -8 -6.5 -12.5t-1.5 -10.5q0 -11 12.5 -20.5t26.5 -9.5q17 0 27 15q17 25 30 42.5t23.5 31.5l19.5 26t19 26q11 -4 30 -8.5t46 -4.5q62 0 127 22.5t118.5 62.5t87.5 95t34 119q0 59 -39 96.5t-124 41.5z" />
    <glyph glyph-name="germandbls" unicode="&#xdf;" horiz-adv-x="676" 
d="M579 419q-6 0 -12 -3t-14 -12q-21 -25 -63.5 -64.5t-95 -83t-108.5 -85t-104 -69.5q20 29 45.5 66t51 75.5t49 74.5t41.5 63q81 51 128.5 89t71.5 66.5t31 49.5t7 36q0 26 -17.5 40t-43.5 14q-22 0 -46 -10t-47 -31q-28 -26 -51 -54t-44.5 -58.5t-42 -64t-44.5 -69.5
q-29 -24 -68 -59.5t-78 -72t-73 -69t-52 -50.5q-12 -12 -12 -22q0 -9 9 -9q7 0 15 8q14 13 41.5 36.5t56.5 47.5t52.5 43.5t29.5 23.5q-20 -34 -41.5 -69t-40.5 -65.5t-34.5 -55.5t-24.5 -40q-72 -53 -113 -94.5t-61.5 -73t-25 -53t-4.5 -33.5q0 -39 31 -39q40 0 111 66
q13 12 32.5 39t42.5 61t47 72t47 73q97 49 185.5 117t165.5 151q0 -11 -3.5 -43.5t-10 -71.5t-15.5 -76t-20 -57q-10 2 -25.5 5.5t-33.5 6.5t-35.5 5.5t-31.5 2.5q-11 0 -14 -4t-3 -14q0 -15 9 -38t25 -44.5t36.5 -37t44.5 -15.5q19 0 34.5 9.5t27 23.5t20.5 31t17 32
q4 -1 12 -1q22 0 46 10.5t45 24.5t37 28t22 21q10 11 10 22q0 9 -8 9q-6 0 -12 -7q-20 -21 -40 -35.5t-37.5 -24t-31.5 -13.5t-23 -4h-7q2 6 7 24t11.5 44t13.5 58.5t13 68t10 71t4 67.5q0 19 -24 19zM361 49q0 10 8 10q3 0 13 -2t22 -5t23 -6t16 -4q-2 -5 -6.5 -14t-10 -18
t-11 -15.5t-10.5 -6.5q-6 0 -14 7t-14.5 16.5t-11 20t-4.5 17.5zM550 603q0 -12 -6 -25t-23 -31t-46.5 -42.5t-75.5 -58.5q13 18 33.5 46t42.5 54.5t40.5 46t27.5 19.5q7 0 7 -9zM-107 -185q0 20 31.5 67.5t107.5 104.5q-15 -24 -31.5 -49t-31.5 -48t-28.5 -41t-22.5 -28
q-13 -13 -19 -13t-6 7z" />
    <glyph glyph-name="agrave" unicode="&#xe0;" horiz-adv-x="465" 
d="M300 591q0 -5 2 -9.5t9 -10.5q9 -8 28.5 -23t40 -30t37.5 -26t21 -11q8 0 8 9q0 4 -15 22.5t-33.5 39t-35 38.5t-19.5 21q-8 8 -18 8t-17.5 -8.5t-7.5 -19.5zM299 46q0 15 19.5 46.5t50.5 71t69.5 83.5t76.5 84q-11 14 -41 22.5t-78 8.5q-44 0 -92 -13t-94 -36t-87 -53.5
t-72.5 -65.5t-50 -73t-18.5 -75q0 -24 13 -40t44 -16q22 0 55.5 19t68 45t66.5 53t51 44q-15 -19 -29.5 -42.5t-14.5 -58.5q0 -25 15 -41t44 -16q25 0 54.5 16.5t56.5 39t50 45t35 34.5q14 14 14 24q0 8 -8 8t-15 -7q-17 -16 -39.5 -37t-46 -40.5t-45 -33t-34.5 -13.5
q-18 0 -18 17zM95 97q0 20 24 52.5t81 80.5q64 53 115.5 71t80.5 18q14 0 24 -4q-27 -25 -68 -62.5t-83 -74.5q-24 -20 -48 -38.5t-45.5 -32.5t-38.5 -22.5t-27 -8.5q-8 0 -11.5 6.5t-3.5 14.5z" />
    <glyph glyph-name="aacute" unicode="&#xe1;" horiz-adv-x="465" 
d="M518 612q-11 -11 -24.5 -26l-27 -30t-26 -29.5t-21.5 -24.5q-5 -5 -5 -12q0 -9 9 -9q5 0 10 4q10 7 28 18.5t37 24.5t37 25.5t29 22.5q7 6 7 14q0 11 -11.5 20t-24.5 9q-10 0 -17 -7zM299 46q0 15 19.5 46.5t50.5 71t69.5 83.5t76.5 84q-11 14 -41 22.5t-78 8.5
q-44 0 -92 -13t-94 -36t-87 -53.5t-72.5 -65.5t-50 -73t-18.5 -75q0 -24 13 -40t44 -16q22 0 55.5 19t68 45t66.5 53t51 44q-15 -19 -29.5 -42.5t-14.5 -58.5q0 -25 15 -41t44 -16q25 0 54.5 16.5t56.5 39t50 45t35 34.5q14 14 14 24q0 8 -8 8t-15 -7q-17 -16 -39.5 -37
t-46 -40.5t-45 -33t-34.5 -13.5q-18 0 -18 17zM95 97q0 20 24 52.5t81 80.5q64 53 115.5 71t80.5 18q14 0 24 -4q-27 -25 -68 -62.5t-83 -74.5q-24 -20 -48 -38.5t-45.5 -32.5t-38.5 -22.5t-27 -8.5q-8 0 -11.5 6.5t-3.5 14.5z" />
    <glyph glyph-name="acircumflex" unicode="&#xe2;" horiz-adv-x="465" 
d="M466 519q4 0 9 -6q12 -14 25 -31t28 -34q4 -4 6 -4q4 0 4 5v4q0 3 -1 8q-2 6 -7 24t-12.5 37t-15 34t-13.5 15q-11 0 -35.5 -13.5t-52.5 -31.5t-52.5 -36.5t-34.5 -27.5q-7 -6 -7 -9q0 -2 2 -2q1 0 9 3q12 5 30.5 13.5t37.5 17t36.5 17t29.5 13.5q9 4 14 4zM299 46
q0 15 19.5 46.5t50.5 71t69.5 83.5t76.5 84q-11 14 -41 22.5t-78 8.5q-44 0 -92 -13t-94 -36t-87 -53.5t-72.5 -65.5t-50 -73t-18.5 -75q0 -24 13 -40t44 -16q22 0 55.5 19t68 45t66.5 53t51 44q-15 -19 -29.5 -42.5t-14.5 -58.5q0 -25 15 -41t44 -16q25 0 54.5 16.5
t56.5 39t50 45t35 34.5q14 14 14 24q0 8 -8 8t-15 -7q-17 -16 -39.5 -37t-46 -40.5t-45 -33t-34.5 -13.5q-18 0 -18 17zM95 97q0 20 24 52.5t81 80.5q64 53 115.5 71t80.5 18q14 0 24 -4q-27 -25 -68 -62.5t-83 -74.5q-24 -20 -48 -38.5t-45.5 -32.5t-38.5 -22.5t-27 -8.5
q-8 0 -11.5 6.5t-3.5 14.5z" />
    <glyph glyph-name="atilde" unicode="&#xe3;" horiz-adv-x="465" 
d="M262 439q4 0 10 3q17 8 35 18t41 10q20 0 36 -6t29 -14t30.5 -15t38.5 -7q42 0 71 13t43 28q16 18 16 24q0 10 -9 10q-4 0 -10 -3q-20 -12 -41 -21t-63 -9q-26 0 -50 19q-12 9 -26 16t-36 7q-16 0 -33 -5t-32.5 -13t-28.5 -17t-22 -17q-3 -3 -5.5 -6t-2.5 -7q0 -8 9 -8z
M299 46q0 15 19.5 46.5t50.5 71t69.5 83.5t76.5 84q-11 14 -41 22.5t-78 8.5q-44 0 -92 -13t-94 -36t-87 -53.5t-72.5 -65.5t-50 -73t-18.5 -75q0 -24 13 -40t44 -16q22 0 55.5 19t68 45t66.5 53t51 44q-15 -19 -29.5 -42.5t-14.5 -58.5q0 -25 15 -41t44 -16q25 0 54.5 16.5
t56.5 39t50 45t35 34.5q14 14 14 24q0 8 -8 8t-15 -7q-17 -16 -39.5 -37t-46 -40.5t-45 -33t-34.5 -13.5q-18 0 -18 17zM95 97q0 20 24 52.5t81 80.5q64 53 115.5 71t80.5 18q14 0 24 -4q-27 -25 -68 -62.5t-83 -74.5q-24 -20 -48 -38.5t-45.5 -32.5t-38.5 -22.5t-27 -8.5
q-8 0 -11.5 6.5t-3.5 14.5z" />
    <glyph glyph-name="adieresis" unicode="&#xe4;" horiz-adv-x="465" 
d="M571 531q0 15 -6.5 26t-19.5 11q-20 0 -37 -17t-17 -36q0 -16 10.5 -25.5t30.5 -9.5q19 0 29 15.5t10 35.5zM436 531q0 15 -6.5 26t-19.5 11q-20 0 -37 -17t-17 -36q0 -16 10.5 -25.5t30.5 -9.5q19 0 29 15.5t10 35.5zM299 46q0 15 19.5 46.5t50.5 71t69.5 83.5t76.5 84
q-11 14 -41 22.5t-78 8.5q-44 0 -92 -13t-94 -36t-87 -53.5t-72.5 -65.5t-50 -73t-18.5 -75q0 -24 13 -40t44 -16q22 0 55.5 19t68 45t66.5 53t51 44q-15 -19 -29.5 -42.5t-14.5 -58.5q0 -25 15 -41t44 -16q25 0 54.5 16.5t56.5 39t50 45t35 34.5q14 14 14 24q0 8 -8 8
t-15 -7q-17 -16 -39.5 -37t-46 -40.5t-45 -33t-34.5 -13.5q-18 0 -18 17zM95 97q0 20 24 52.5t81 80.5q64 53 115.5 71t80.5 18q14 0 24 -4q-27 -25 -68 -62.5t-83 -74.5q-24 -20 -48 -38.5t-45.5 -32.5t-38.5 -22.5t-27 -8.5q-8 0 -11.5 6.5t-3.5 14.5z" />
    <glyph glyph-name="aring" unicode="&#xe5;" horiz-adv-x="465" 
d="M344 463q0 -29 18 -49t55 -20q33 0 57 9.5t39.5 25t23.5 34.5t8 37q0 32 -20.5 55.5t-57.5 23.5q-26 0 -48.5 -10.5t-39 -27t-26 -37.5t-9.5 -41zM374 463q0 10 7.5 23t20 24t29 19t34.5 8q21 0 33 -11t12 -28q0 -11 -5.5 -23t-16 -21.5t-26.5 -16t-36 -6.5q-28 0 -40 8
t-12 24zM299 46q0 15 19.5 46.5t50.5 71t69.5 83.5t76.5 84q-11 14 -41 22.5t-78 8.5q-44 0 -92 -13t-94 -36t-87 -53.5t-72.5 -65.5t-50 -73t-18.5 -75q0 -24 13 -40t44 -16q22 0 55.5 19t68 45t66.5 53t51 44q-15 -19 -29.5 -42.5t-14.5 -58.5q0 -25 15 -41t44 -16
q25 0 54.5 16.5t56.5 39t50 45t35 34.5q14 14 14 24q0 8 -8 8t-15 -7q-17 -16 -39.5 -37t-46 -40.5t-45 -33t-34.5 -13.5q-18 0 -18 17zM95 97q0 20 24 52.5t81 80.5q64 53 115.5 71t80.5 18q14 0 24 -4q-27 -25 -68 -62.5t-83 -74.5q-24 -20 -48 -38.5t-45.5 -32.5
t-38.5 -22.5t-27 -8.5q-8 0 -11.5 6.5t-3.5 14.5z" />
    <glyph glyph-name="ae" unicode="&#xe6;" horiz-adv-x="615" 
d="M566 366q-17 0 -37.5 -3t-43.5 -11q-16 4 -38 7t-49 3q-59 0 -112.5 -16t-100 -42.5t-84 -60.5t-64 -69t-41 -69t-14.5 -61q0 -25 12 -40t30 -15q24 0 60 19t73 45t70.5 53.5t52.5 44.5q-11 -22 -17.5 -43.5t-6.5 -41.5q0 -35 23.5 -58.5t80.5 -23.5q38 0 79 14t79 35.5
t71 47.5t56 50q14 15 14 25q0 9 -8 9t-15 -9q-21 -23 -51.5 -46t-63 -41.5t-64 -30t-55.5 -11.5q-26 0 -35 8.5t-9 24.5t8 36.5t21 41.5q49 5 96 25.5t83 47.5t58 55.5t22 49.5q0 16 -8 26t-20 15t-26 7t-26 2zM575 326q19 0 19 -13q0 -6 -10.5 -23t-31.5 -36t-52.5 -34.5
t-73.5 -19.5q42 64 81 95t68 31zM111 76q-10 0 -13.5 6t-3.5 13q0 14 12.5 35.5t34.5 46t51.5 49.5t63 45t70 32.5t71.5 12.5q13 0 21 -2q-19 -18 -45.5 -42.5t-56 -51t-60 -52.5t-58.5 -46.5t-50.5 -33t-36.5 -12.5z" />
    <glyph glyph-name="ccedilla" unicode="&#xe7;" horiz-adv-x="359" 
d="M146 -28q0 9 -0.5 13t-1.5 7q35 3 70.5 19t68 37t60.5 44.5t48 42.5q15 14 15 26q0 9 -7 9t-14 -7q-21 -21 -48.5 -43t-59 -40t-64.5 -29.5t-63 -11.5q-26 0 -41 12.5t-15 38.5q0 38 25 78.5t59.5 73.5t72 54t61.5 21q9 0 16 -2t9 -7q3 -12 8 -20.5t16 -8.5
q10 0 22.5 5.5t23.5 14t18 19t7 21.5t-8.5 18t-22 11.5t-30.5 6t-35 1.5q-40 0 -80 -13t-76.5 -34.5t-68.5 -50t-55 -59t-36.5 -61.5t-13.5 -58q0 -44 23.5 -71t63.5 -35q1 -4 1.5 -7t0.5 -7q0 -17 -8.5 -27.5t-21 -16.5t-26.5 -8.5t-24 -2.5q-7 0 -11.5 1t-13.5 1
q-11 0 -18 -5t-7 -12q0 -11 18 -17t39 -6q31 0 54.5 8.5t39 21t23 27.5t7.5 28z" />
    <glyph glyph-name="egrave" unicode="&#xe8;" horiz-adv-x="351" 
d="M230 591q0 -5 2 -9.5t9 -10.5q9 -8 28.5 -23t40 -30t37.5 -26t21 -11q8 0 8 9q0 4 -15 22.5t-33.5 39t-35 38.5t-19.5 21q-8 8 -18 8t-17.5 -8.5t-7.5 -19.5zM410 335q0 23 -16 37t-53 14q-42 0 -84 -15t-80 -40t-71.5 -57.5t-57.5 -68t-38 -70.5t-14 -66q0 -85 94 -85
q38 0 79.5 14t80.5 35.5t73 47.5t57 50q14 15 14 25q0 9 -8 9t-15 -9q-21 -23 -50.5 -45.5t-61.5 -41.5t-64 -30.5t-58 -11.5q-44 0 -44 30q0 17 8 38.5t21 42.5q52 6 103.5 26.5t92.5 48.5t66.5 60.5t25.5 61.5zM336 342q12 0 14.5 -3.5t2.5 -12.5q0 -16 -19 -38t-48 -41.5
t-63.5 -33.5t-64.5 -14q18 26 42 51.5t49 46t48 33t39 12.5z" />
    <glyph glyph-name="eacute" unicode="&#xe9;" horiz-adv-x="351" 
d="M462 612q-11 -11 -24.5 -26l-27 -30t-26 -29.5t-21.5 -24.5q-5 -5 -5 -12q0 -9 9 -9q5 0 10 4q10 7 28 18.5t37 24.5t37 25.5t29 22.5q7 6 7 14q0 11 -11.5 20t-24.5 9q-10 0 -17 -7zM410 335q0 23 -16 37t-53 14q-42 0 -84 -15t-80 -40t-71.5 -57.5t-57.5 -68t-38 -70.5
t-14 -66q0 -85 94 -85q38 0 79.5 14t80.5 35.5t73 47.5t57 50q14 15 14 25q0 9 -8 9t-15 -9q-21 -23 -50.5 -45.5t-61.5 -41.5t-64 -30.5t-58 -11.5q-44 0 -44 30q0 17 8 38.5t21 42.5q52 6 103.5 26.5t92.5 48.5t66.5 60.5t25.5 61.5zM336 342q12 0 14.5 -3.5t2.5 -12.5
q0 -16 -19 -38t-48 -41.5t-63.5 -33.5t-64.5 -14q18 26 42 51.5t49 46t48 33t39 12.5z" />
    <glyph glyph-name="ecircumflex" unicode="&#xea;" horiz-adv-x="351" 
d="M400 519q4 0 9 -6q12 -14 25 -31t28 -34q4 -4 6 -4q4 0 4 5v4q0 3 -1 8q-2 6 -7 24t-12.5 37t-15 34t-13.5 15q-11 0 -35.5 -13.5t-52.5 -31.5t-52.5 -36.5t-34.5 -27.5q-7 -6 -7 -9q0 -2 2 -2q1 0 9 3q12 5 30.5 13.5t37.5 17t36.5 17t29.5 13.5q9 4 14 4zM410 335
q0 23 -16 37t-53 14q-42 0 -84 -15t-80 -40t-71.5 -57.5t-57.5 -68t-38 -70.5t-14 -66q0 -85 94 -85q38 0 79.5 14t80.5 35.5t73 47.5t57 50q14 15 14 25q0 9 -8 9t-15 -9q-21 -23 -50.5 -45.5t-61.5 -41.5t-64 -30.5t-58 -11.5q-44 0 -44 30q0 17 8 38.5t21 42.5
q52 6 103.5 26.5t92.5 48.5t66.5 60.5t25.5 61.5zM336 342q12 0 14.5 -3.5t2.5 -12.5q0 -16 -19 -38t-48 -41.5t-63.5 -33.5t-64.5 -14q18 26 42 51.5t49 46t48 33t39 12.5z" />
    <glyph glyph-name="edieresis" unicode="&#xeb;" horiz-adv-x="351" 
d="M504 531q0 15 -6.5 26t-19.5 11q-20 0 -37 -17t-17 -36q0 -16 10.5 -25.5t30.5 -9.5q19 0 29 15.5t10 35.5zM369 531q0 15 -6.5 26t-19.5 11q-20 0 -37 -17t-17 -36q0 -16 10.5 -25.5t30.5 -9.5q19 0 29 15.5t10 35.5zM410 335q0 23 -16 37t-53 14q-42 0 -84 -15t-80 -40
t-71.5 -57.5t-57.5 -68t-38 -70.5t-14 -66q0 -85 94 -85q38 0 79.5 14t80.5 35.5t73 47.5t57 50q14 15 14 25q0 9 -8 9t-15 -9q-21 -23 -50.5 -45.5t-61.5 -41.5t-64 -30.5t-58 -11.5q-44 0 -44 30q0 17 8 38.5t21 42.5q52 6 103.5 26.5t92.5 48.5t66.5 60.5t25.5 61.5z
M336 342q12 0 14.5 -3.5t2.5 -12.5q0 -16 -19 -38t-48 -41.5t-63.5 -33.5t-64.5 -14q18 26 42 51.5t49 46t48 33t39 12.5z" />
    <glyph glyph-name="igrave" unicode="&#xec;" horiz-adv-x="341" 
d="M212 591q0 -5 2 -9.5t9 -10.5q9 -8 28.5 -23t40 -30t37.5 -26t21 -11q8 0 8 9q0 4 -15 22.5t-33.5 39t-35 38.5t-19.5 21q-8 8 -18 8t-17.5 -8.5t-7.5 -19.5zM301 376q-8 0 -18 -5q-26 -15 -61 -40.5t-72.5 -57t-75.5 -65.5t-71 -67q-10 -10 -10 -18q0 -5 3.5 -7.5
t7.5 -2.5q6 0 12 6q63 60 107.5 97t62.5 51q-19 -26 -37 -54t-32 -56t-22.5 -54.5t-8.5 -50.5q0 -36 14.5 -58.5t41.5 -22.5q26 0 57 16.5t60.5 40t55.5 49t43 42.5q6 6 8.5 12t2.5 11q0 9 -8 9q-7 0 -14 -8q-17 -18 -39 -38.5t-43.5 -37.5t-41.5 -28t-33 -11
q-11 0 -15.5 10t-4.5 21q0 23 18 58.5t43 74.5t51.5 78t43.5 69q5 10 5 18q0 6 -9 12.5t-21 6.5z" />
    <glyph glyph-name="iacute" unicode="&#xed;" horiz-adv-x="341" 
d="M462 612q-11 -11 -24.5 -26l-27 -30t-26 -29.5t-21.5 -24.5q-5 -5 -5 -12q0 -9 9 -9q5 0 10 4q10 7 28 18.5t37 24.5t37 25.5t29 22.5q7 6 7 14q0 11 -11.5 20t-24.5 9q-10 0 -17 -7zM301 376q-8 0 -18 -5q-26 -15 -61 -40.5t-72.5 -57t-75.5 -65.5t-71 -67
q-10 -10 -10 -18q0 -5 3.5 -7.5t7.5 -2.5q6 0 12 6q63 60 107.5 97t62.5 51q-19 -26 -37 -54t-32 -56t-22.5 -54.5t-8.5 -50.5q0 -36 14.5 -58.5t41.5 -22.5q26 0 57 16.5t60.5 40t55.5 49t43 42.5q6 6 8.5 12t2.5 11q0 9 -8 9q-7 0 -14 -8q-17 -18 -39 -38.5t-43.5 -37.5
t-41.5 -28t-33 -11q-11 0 -15.5 10t-4.5 21q0 23 18 58.5t43 74.5t51.5 78t43.5 69q5 10 5 18q0 6 -9 12.5t-21 6.5z" />
    <glyph glyph-name="icircumflex" unicode="&#xee;" horiz-adv-x="341" 
d="M388 519q4 0 9 -6q12 -14 25 -31t28 -34q4 -4 6 -4q4 0 4 5v4q0 3 -1 8q-2 6 -7 24t-12.5 37t-15 34t-13.5 15q-11 0 -35.5 -13.5t-52.5 -31.5t-52.5 -36.5t-34.5 -27.5q-7 -6 -7 -9q0 -2 2 -2q1 0 9 3q12 5 30.5 13.5t37.5 17t36.5 17t29.5 13.5q9 4 14 4zM301 376
q-8 0 -18 -5q-26 -15 -61 -40.5t-72.5 -57t-75.5 -65.5t-71 -67q-10 -10 -10 -18q0 -5 3.5 -7.5t7.5 -2.5q6 0 12 6q63 60 107.5 97t62.5 51q-19 -26 -37 -54t-32 -56t-22.5 -54.5t-8.5 -50.5q0 -36 14.5 -58.5t41.5 -22.5q26 0 57 16.5t60.5 40t55.5 49t43 42.5q6 6 8.5 12
t2.5 11q0 9 -8 9q-7 0 -14 -8q-17 -18 -39 -38.5t-43.5 -37.5t-41.5 -28t-33 -11q-11 0 -15.5 10t-4.5 21q0 23 18 58.5t43 74.5t51.5 78t43.5 69q5 10 5 18q0 6 -9 12.5t-21 6.5z" />
    <glyph glyph-name="idieresis" unicode="&#xef;" horiz-adv-x="341" 
d="M473 531q0 15 -6.5 26t-19.5 11q-20 0 -37 -17t-17 -36q0 -16 10.5 -25.5t30.5 -9.5q19 0 29 15.5t10 35.5zM338 531q0 15 -6.5 26t-19.5 11q-20 0 -37 -17t-17 -36q0 -16 10.5 -25.5t30.5 -9.5q19 0 29 15.5t10 35.5zM301 376q-8 0 -18 -5q-26 -15 -61 -40.5t-72.5 -57
t-75.5 -65.5t-71 -67q-10 -10 -10 -18q0 -5 3.5 -7.5t7.5 -2.5q6 0 12 6q63 60 107.5 97t62.5 51q-19 -26 -37 -54t-32 -56t-22.5 -54.5t-8.5 -50.5q0 -36 14.5 -58.5t41.5 -22.5q26 0 57 16.5t60.5 40t55.5 49t43 42.5q6 6 8.5 12t2.5 11q0 9 -8 9q-7 0 -14 -8
q-17 -18 -39 -38.5t-43.5 -37.5t-41.5 -28t-33 -11q-11 0 -15.5 10t-4.5 21q0 23 18 58.5t43 74.5t51.5 78t43.5 69q5 10 5 18q0 6 -9 12.5t-21 6.5z" />
    <glyph glyph-name="eth" unicode="&#xf0;" horiz-adv-x="510" 
d="M313 87q-27 -27 -56 -42t-52 -15q-61 0 -61 69q0 37 17 69.5t39 58t44 42.5t32 25q-16 -21 -24.5 -44.5t-8.5 -61.5q0 -23 6 -39.5t15.5 -28t22 -19.5t26.5 -14zM423 286q0 -32 -20 -77t-53 -88q-12 6 -23 13.5t-20 18t-14.5 25t-5.5 34.5q0 26 7.5 48.5t20.5 39.5
t29.5 27t34.5 10q44 0 44 -51zM422 560q20 12 37 22.5t28 18.5q10 6 11.5 10.5t1.5 9.5q0 14 -25 14q-11 0 -23.5 -7t-26.5 -16q-7 -5 -14 -9.5t-15 -9.5q-20 23 -45 40t-54 31q-10 5 -19 5q-11 0 -11 -8q0 -10 18 -21q25 -14 44 -32t33 -38q-51 -34 -87 -61
q-13 -10 -13 -19q0 -7 4.5 -8.5t12.5 -1.5q11 0 24 7.5t28 16.5q8 5 21.5 13t30.5 19q17 -34 25.5 -72.5t12.5 -81.5q-4 1 -7.5 1.5t-8.5 0.5q-22 0 -40 -6.5t-39 -20.5q-3 0 -6 0.5t-6 0.5q-23 0 -45 -7.5t-43 -19.5t-41 -27t-38 -31q-36 -32 -72.5 -65.5t-71.5 -67.5
q-12 -11 -12 -22q0 -10 9 -10q6 0 12 6q20 19 40 39.5t37 34.5q-17 -25 -23.5 -49t-6.5 -47q0 -43 29 -73.5t94 -30.5q73 0 124.5 25t78.5 56q4 -1 10 -1.5t16 -0.5q34 0 63 14t55 40q10 10 10 18q0 11 -10 11q-5 0 -10 -5q-23 -24 -41.5 -35.5t-40.5 -11.5q-15 0 -24 3
q44 42 63 86.5t19 86.5q0 100 -20 169t-53 117z" />
    <glyph glyph-name="ntilde" unicode="&#xf1;" horiz-adv-x="610" 
d="M319 453q4 0 10 3q17 8 35 18t41 10q20 0 36 -6t29 -14t30.5 -15t38.5 -7q42 0 71 13t43 28q16 18 16 24q0 10 -9 10q-4 0 -10 -3q-20 -12 -41 -21t-63 -9q-26 0 -50 19q-12 9 -26 16t-36 7q-16 0 -33 -5t-32.5 -13t-28.5 -17t-22 -17q-3 -3 -5.5 -6t-2.5 -7q0 -8 9 -8z
M387 368q0 14 -10.5 19.5t-26.5 5.5q-27 0 -71.5 -26t-93.5 -64.5t-96.5 -81t-79.5 -75.5q-17 -17 -17 -29q0 -8 8 -8q7 0 14 7q34 33 70 65t70.5 59.5t64.5 49.5t53 35q10 5 14 5q6 0 6 -5q0 -9 -13 -32.5t-33 -54.5t-43.5 -65.5t-45.5 -66t-38.5 -56t-22.5 -35.5
q-1 -2 -1.5 -4.5t-0.5 -7.5q0 -11 14.5 -23t31.5 -12q14 0 22 11q27 36 68 81t86 88t87.5 79t72.5 54q5 2 8.5 4t7.5 2t4 -3q0 -2 -1 -5q-3 -9 -17.5 -27t-34 -42.5t-41 -52t-40 -54t-30.5 -50t-12 -39.5q0 -20 17.5 -30t40.5 -10q33 0 73 19.5t77 45.5t66.5 51.5t41.5 37.5
q8 8 8 17q0 10 -10 10q-6 0 -12 -6q-15 -16 -41 -34.5t-53 -35t-51 -27.5t-37 -11q-14 0 -14 8q0 10 13.5 30.5t33.5 47.5t43 57.5t43 59.5t33.5 55t13.5 43q0 14 -9 19t-25 5q-21 0 -48 -12.5t-57.5 -32.5t-61.5 -45t-59.5 -50t-52.5 -47t-39 -37q6 8 18.5 25t27.5 38
t30.5 44.5t28 45.5t20.5 41.5t8 31.5z" />
    <glyph glyph-name="ograve" unicode="&#xf2;" horiz-adv-x="510" 
d="M310 591q0 -5 2 -9.5t9 -10.5q9 -8 28.5 -23t40 -30t37.5 -26t21 -11q8 0 8 9q0 4 -15 22.5t-33.5 39t-35 38.5t-19.5 21q-8 8 -18 8t-17.5 -8.5t-7.5 -19.5zM182 -12q73 0 124.5 25t78.5 56q4 -1 10 -1.5t16 -0.5q34 0 63 14t55 40q10 10 10 18q0 11 -10 11q-5 0 -10 -5
q-23 -24 -41.5 -35.5t-40.5 -11.5q-15 0 -24 3q44 42 63 86.5t19 86.5q0 22 -6.5 42t-18.5 35t-28.5 24t-36.5 9q-22 0 -40 -6.5t-39 -20.5q-3 0 -6 0.5t-6 0.5q-23 0 -45 -7.5t-43 -19.5t-41 -27t-38 -31q-36 -32 -72.5 -65.5t-71.5 -67.5q-12 -11 -12 -22q0 -10 9 -10
q6 0 12 6q20 19 40 39.5t37 34.5q-17 -25 -23.5 -49t-6.5 -47q0 -43 29 -73.5t94 -30.5zM144 99q0 37 17 69.5t39 58t44 42.5t32 25q-16 -21 -24.5 -44.5t-8.5 -61.5q0 -23 6 -39.5t15.5 -28t22 -19.5t26.5 -14q-27 -27 -56 -42t-52 -15q-61 0 -61 69zM423 286
q0 -32 -20 -77t-53 -88q-12 6 -23 13.5t-20 18t-14.5 25t-5.5 34.5q0 26 7.5 48.5t20.5 39.5t29.5 27t34.5 10q44 0 44 -51z" />
    <glyph glyph-name="oacute" unicode="&#xf3;" horiz-adv-x="510" 
d="M538 612q-11 -11 -24.5 -26l-27 -30t-26 -29.5t-21.5 -24.5q-5 -5 -5 -12q0 -9 9 -9q5 0 10 4q10 7 28 18.5t37 24.5t37 25.5t29 22.5q7 6 7 14q0 11 -11.5 20t-24.5 9q-10 0 -17 -7zM182 -12q73 0 124.5 25t78.5 56q4 -1 10 -1.5t16 -0.5q34 0 63 14t55 40q10 10 10 18
q0 11 -10 11q-5 0 -10 -5q-23 -24 -41.5 -35.5t-40.5 -11.5q-15 0 -24 3q44 42 63 86.5t19 86.5q0 22 -6.5 42t-18.5 35t-28.5 24t-36.5 9q-22 0 -40 -6.5t-39 -20.5q-3 0 -6 0.5t-6 0.5q-23 0 -45 -7.5t-43 -19.5t-41 -27t-38 -31q-36 -32 -72.5 -65.5t-71.5 -67.5
q-12 -11 -12 -22q0 -10 9 -10q6 0 12 6q20 19 40 39.5t37 34.5q-17 -25 -23.5 -49t-6.5 -47q0 -43 29 -73.5t94 -30.5zM144 99q0 37 17 69.5t39 58t44 42.5t32 25q-16 -21 -24.5 -44.5t-8.5 -61.5q0 -23 6 -39.5t15.5 -28t22 -19.5t26.5 -14q-27 -27 -56 -42t-52 -15
q-61 0 -61 69zM423 286q0 -32 -20 -77t-53 -88q-12 6 -23 13.5t-20 18t-14.5 25t-5.5 34.5q0 26 7.5 48.5t20.5 39.5t29.5 27t34.5 10q44 0 44 -51z" />
    <glyph glyph-name="ocircumflex" unicode="&#xf4;" horiz-adv-x="510" 
d="M466 519q4 0 9 -6q12 -14 25 -31t28 -34q4 -4 6 -4q4 0 4 5v4q0 3 -1 8q-2 6 -7 24t-12.5 37t-15 34t-13.5 15q-11 0 -35.5 -13.5t-52.5 -31.5t-52.5 -36.5t-34.5 -27.5q-7 -6 -7 -9q0 -2 2 -2q1 0 9 3q12 5 30.5 13.5t37.5 17t36.5 17t29.5 13.5q9 4 14 4zM182 -12
q73 0 124.5 25t78.5 56q4 -1 10 -1.5t16 -0.5q34 0 63 14t55 40q10 10 10 18q0 11 -10 11q-5 0 -10 -5q-23 -24 -41.5 -35.5t-40.5 -11.5q-15 0 -24 3q44 42 63 86.5t19 86.5q0 22 -6.5 42t-18.5 35t-28.5 24t-36.5 9q-22 0 -40 -6.5t-39 -20.5q-3 0 -6 0.5t-6 0.5
q-23 0 -45 -7.5t-43 -19.5t-41 -27t-38 -31q-36 -32 -72.5 -65.5t-71.5 -67.5q-12 -11 -12 -22q0 -10 9 -10q6 0 12 6q20 19 40 39.5t37 34.5q-17 -25 -23.5 -49t-6.5 -47q0 -43 29 -73.5t94 -30.5zM144 99q0 37 17 69.5t39 58t44 42.5t32 25q-16 -21 -24.5 -44.5
t-8.5 -61.5q0 -23 6 -39.5t15.5 -28t22 -19.5t26.5 -14q-27 -27 -56 -42t-52 -15q-61 0 -61 69zM423 286q0 -32 -20 -77t-53 -88q-12 6 -23 13.5t-20 18t-14.5 25t-5.5 34.5q0 26 7.5 48.5t20.5 39.5t29.5 27t34.5 10q44 0 44 -51z" />
    <glyph glyph-name="otilde" unicode="&#xf5;" horiz-adv-x="510" 
d="M261 439q4 0 10 3q17 8 35 18t41 10q20 0 36 -6t29 -14t30.5 -15t38.5 -7q42 0 71 13t43 28q16 18 16 24q0 10 -9 10q-4 0 -10 -3q-20 -12 -41 -21t-63 -9q-26 0 -50 19q-12 9 -26 16t-36 7q-16 0 -33 -5t-32.5 -13t-28.5 -17t-22 -17q-3 -3 -5.5 -6t-2.5 -7q0 -8 9 -8z
M182 -12q73 0 124.5 25t78.5 56q4 -1 10 -1.5t16 -0.5q34 0 63 14t55 40q10 10 10 18q0 11 -10 11q-5 0 -10 -5q-23 -24 -41.5 -35.5t-40.5 -11.5q-15 0 -24 3q44 42 63 86.5t19 86.5q0 22 -6.5 42t-18.5 35t-28.5 24t-36.5 9q-22 0 -40 -6.5t-39 -20.5q-3 0 -6 0.5t-6 0.5
q-23 0 -45 -7.5t-43 -19.5t-41 -27t-38 -31q-36 -32 -72.5 -65.5t-71.5 -67.5q-12 -11 -12 -22q0 -10 9 -10q6 0 12 6q20 19 40 39.5t37 34.5q-17 -25 -23.5 -49t-6.5 -47q0 -43 29 -73.5t94 -30.5zM144 99q0 37 17 69.5t39 58t44 42.5t32 25q-16 -21 -24.5 -44.5
t-8.5 -61.5q0 -23 6 -39.5t15.5 -28t22 -19.5t26.5 -14q-27 -27 -56 -42t-52 -15q-61 0 -61 69zM423 286q0 -32 -20 -77t-53 -88q-12 6 -23 13.5t-20 18t-14.5 25t-5.5 34.5q0 26 7.5 48.5t20.5 39.5t29.5 27t34.5 10q44 0 44 -51z" />
    <glyph glyph-name="odieresis" unicode="&#xf6;" horiz-adv-x="510" 
d="M591 531q0 15 -6.5 26t-19.5 11q-20 0 -37 -17t-17 -36q0 -16 10.5 -25.5t30.5 -9.5q19 0 29 15.5t10 35.5zM456 531q0 15 -6.5 26t-19.5 11q-20 0 -37 -17t-17 -36q0 -16 10.5 -25.5t30.5 -9.5q19 0 29 15.5t10 35.5zM182 -12q73 0 124.5 25t78.5 56q4 -1 10 -1.5
t16 -0.5q34 0 63 14t55 40q10 10 10 18q0 11 -10 11q-5 0 -10 -5q-23 -24 -41.5 -35.5t-40.5 -11.5q-15 0 -24 3q44 42 63 86.5t19 86.5q0 22 -6.5 42t-18.5 35t-28.5 24t-36.5 9q-22 0 -40 -6.5t-39 -20.5q-3 0 -6 0.5t-6 0.5q-23 0 -45 -7.5t-43 -19.5t-41 -27t-38 -31
q-36 -32 -72.5 -65.5t-71.5 -67.5q-12 -11 -12 -22q0 -10 9 -10q6 0 12 6q20 19 40 39.5t37 34.5q-17 -25 -23.5 -49t-6.5 -47q0 -43 29 -73.5t94 -30.5zM144 99q0 37 17 69.5t39 58t44 42.5t32 25q-16 -21 -24.5 -44.5t-8.5 -61.5q0 -23 6 -39.5t15.5 -28t22 -19.5
t26.5 -14q-27 -27 -56 -42t-52 -15q-61 0 -61 69zM423 286q0 -32 -20 -77t-53 -88q-12 6 -23 13.5t-20 18t-14.5 25t-5.5 34.5q0 26 7.5 48.5t20.5 39.5t29.5 27t34.5 10q44 0 44 -51z" />
    <glyph glyph-name="oslash" unicode="&#xf8;" horiz-adv-x="510" 
d="M59 92q0 -17 4 -29.5t9 -22.5q-10 -8 -23 -17.5t-24 -17.5q-13 -9 -13 -19q0 -13 17 -13q10 0 20 7t21 14.5t25 17.5q12 -8 31.5 -16t54.5 -8q31 0 62 6.5t58 18t49 26t35 30.5q6 -1 12 -1.5t12 -0.5q40 0 69.5 16.5t50.5 37.5q10 10 10 19q0 11 -10 11q-5 0 -10 -5
q-7 -7 -16 -15t-20 -15t-23.5 -12t-27.5 -5h-10q-4 0 -9 2q49 48 65.5 92t16.5 78q0 23 -5 43q11 10 28 21t33 22q9 6 9 15q0 8 -5.5 13.5t-14.5 5.5q-10 0 -20 -7q-14 -8 -24.5 -17t-23.5 -17q-11 13 -27.5 24t-40.5 11q-17 0 -36 -6.5t-42 -21.5q-3 0 -6 0.5t-6 0.5
q-27 0 -53.5 -11t-49 -25t-40 -28.5t-24.5 -20.5q-36 -32 -72.5 -65.5t-71.5 -67.5q-12 -11 -12 -22q0 -10 9 -10q6 0 12 6q20 19 38 36.5t39 37.5q-17 -30 -23.5 -53.5t-6.5 -42.5zM204 30q-22 0 -33.5 9t-17.5 18l273 209q-7 -50 -34 -93t-61.5 -75t-69.5 -50t-57 -18z
M382 336q29 0 38 -25q-23 -18 -63 -49.5t-82 -64.5t-78.5 -61.5t-52.5 -40.5q0 35 14 66.5t36.5 58t49.5 48.5t53.5 37t49 23t35.5 8z" />
    <glyph glyph-name="ugrave" unicode="&#xf9;" horiz-adv-x="463" 
d="M278 591q0 -5 2 -9.5t9 -10.5q9 -8 28.5 -23t40 -30t37.5 -26t21 -11q8 0 8 9q0 4 -15 22.5t-33.5 39t-35 38.5t-19.5 21q-8 8 -18 8t-17.5 -8.5t-7.5 -19.5zM270 394q-12 0 -16 -6q-20 -24 -55.5 -59.5t-73 -71.5t-71 -67.5t-50.5 -48.5q-11 -11 -11 -21q0 -9 9 -9
q7 0 14 7l20 20t31.5 30.5t29 28l12.5 12.5q-7 -10 -21 -29.5t-28 -43.5t-24.5 -48.5t-10.5 -45.5q0 -45 49 -45q24 0 54.5 15t60 35.5t52.5 40.5t32 30q-8 -16 -15 -34t-7 -36q0 -21 10.5 -32t35.5 -11q23 0 50.5 13.5t53.5 32t48 38.5t33 33q9 10 9 19t-8 9q-7 0 -14 -8
q-9 -12 -26.5 -27.5t-36.5 -29.5t-36 -23.5t-26 -9.5q-7 0 -9.5 3.5t-2.5 8.5q0 12 15 37.5t39 58t53.5 70t58.5 74.5q4 6 4 9q0 5 -5 11t-13 11.5t-17.5 9t-17.5 3.5q-12 0 -18 -9q-14 -21 -38 -51t-53 -62t-60 -63.5t-60 -56.5t-53 -40.5t-38 -15.5q-16 0 -16 16
q0 19 23 58t55 82t64.5 83.5t52.5 62.5q5 5 6 8.5t1 5.5q0 11 -15.5 19.5t-29.5 8.5z" />
    <glyph glyph-name="uacute" unicode="&#xfa;" horiz-adv-x="463" 
d="M550 612q-11 -11 -24.5 -26l-27 -30t-26 -29.5t-21.5 -24.5q-5 -5 -5 -12q0 -9 9 -9q5 0 10 4q10 7 28 18.5t37 24.5t37 25.5t29 22.5q7 6 7 14q0 11 -11.5 20t-24.5 9q-10 0 -17 -7zM270 394q-12 0 -16 -6q-20 -24 -55.5 -59.5t-73 -71.5t-71 -67.5t-50.5 -48.5
q-11 -11 -11 -21q0 -9 9 -9q7 0 14 7l20 20t31.5 30.5t29 28l12.5 12.5q-7 -10 -21 -29.5t-28 -43.5t-24.5 -48.5t-10.5 -45.5q0 -45 49 -45q24 0 54.5 15t60 35.5t52.5 40.5t32 30q-8 -16 -15 -34t-7 -36q0 -21 10.5 -32t35.5 -11q23 0 50.5 13.5t53.5 32t48 38.5t33 33
q9 10 9 19t-8 9q-7 0 -14 -8q-9 -12 -26.5 -27.5t-36.5 -29.5t-36 -23.5t-26 -9.5q-7 0 -9.5 3.5t-2.5 8.5q0 12 15 37.5t39 58t53.5 70t58.5 74.5q4 6 4 9q0 5 -5 11t-13 11.5t-17.5 9t-17.5 3.5q-12 0 -18 -9q-14 -21 -38 -51t-53 -62t-60 -63.5t-60 -56.5t-53 -40.5
t-38 -15.5q-16 0 -16 16q0 19 23 58t55 82t64.5 83.5t52.5 62.5q5 5 6 8.5t1 5.5q0 11 -15.5 19.5t-29.5 8.5z" />
    <glyph glyph-name="ucircumflex" unicode="&#xfb;" horiz-adv-x="463" 
d="M473 519q4 0 9 -6q11 -14 24.5 -31t28.5 -34q4 -4 6 -4q4 0 4 5v4q0 3 -1 8q-2 6 -7 24t-12.5 37t-15 34t-13.5 15q-11 0 -35.5 -13.5t-52.5 -31.5t-52.5 -36.5t-34.5 -27.5q-7 -6 -7 -9q0 -2 2 -2q1 0 9 3q12 5 30.5 13.5t37.5 17t36.5 17t29.5 13.5q9 4 14 4zM270 394
q-12 0 -16 -6q-20 -24 -55.5 -59.5t-73 -71.5t-71 -67.5t-50.5 -48.5q-11 -11 -11 -21q0 -9 9 -9q7 0 14 7l20 20t31.5 30.5t29 28l12.5 12.5q-7 -10 -21 -29.5t-28 -43.5t-24.5 -48.5t-10.5 -45.5q0 -45 49 -45q24 0 54.5 15t60 35.5t52.5 40.5t32 30q-8 -16 -15 -34
t-7 -36q0 -21 10.5 -32t35.5 -11q23 0 50.5 13.5t53.5 32t48 38.5t33 33q9 10 9 19t-8 9q-7 0 -14 -8q-9 -12 -26.5 -27.5t-36.5 -29.5t-36 -23.5t-26 -9.5q-7 0 -9.5 3.5t-2.5 8.5q0 12 15 37.5t39 58t53.5 70t58.5 74.5q4 6 4 9q0 5 -5 11t-13 11.5t-17.5 9t-17.5 3.5
q-12 0 -18 -9q-14 -21 -38 -51t-53 -62t-60 -63.5t-60 -56.5t-53 -40.5t-38 -15.5q-16 0 -16 16q0 19 23 58t55 82t64.5 83.5t52.5 62.5q5 5 6 8.5t1 5.5q0 11 -15.5 19.5t-29.5 8.5z" />
    <glyph glyph-name="udieresis" unicode="&#xfc;" horiz-adv-x="463" 
d="M579 531q0 15 -6.5 26t-19.5 11q-20 0 -37 -17t-17 -36q0 -16 10.5 -25.5t30.5 -9.5q19 0 29 15.5t10 35.5zM444 531q0 15 -6.5 26t-19.5 11q-20 0 -37 -17t-17 -36q0 -16 10.5 -25.5t30.5 -9.5q19 0 29 15.5t10 35.5zM270 394q-12 0 -16 -6q-20 -24 -55.5 -59.5
t-73 -71.5t-71 -67.5t-50.5 -48.5q-11 -11 -11 -21q0 -9 9 -9q7 0 14 7l20 20t31.5 30.5t29 28l12.5 12.5q-7 -10 -21 -29.5t-28 -43.5t-24.5 -48.5t-10.5 -45.5q0 -45 49 -45q24 0 54.5 15t60 35.5t52.5 40.5t32 30q-8 -16 -15 -34t-7 -36q0 -21 10.5 -32t35.5 -11
q23 0 50.5 13.5t53.5 32t48 38.5t33 33q9 10 9 19t-8 9q-7 0 -14 -8q-9 -12 -26.5 -27.5t-36.5 -29.5t-36 -23.5t-26 -9.5q-7 0 -9.5 3.5t-2.5 8.5q0 12 15 37.5t39 58t53.5 70t58.5 74.5q4 6 4 9q0 5 -5 11t-13 11.5t-17.5 9t-17.5 3.5q-12 0 -18 -9q-14 -21 -38 -51
t-53 -62t-60 -63.5t-60 -56.5t-53 -40.5t-38 -15.5q-16 0 -16 16q0 19 23 58t55 82t64.5 83.5t52.5 62.5q5 5 6 8.5t1 5.5q0 11 -15.5 19.5t-29.5 8.5z" />
    <glyph glyph-name="yacute" unicode="&#xfd;" horiz-adv-x="490" 
d="M279 391q-9 0 -17.5 -3t-14.5 -11q-16 -21 -47.5 -52t-67 -64t-70 -64t-56.5 -53q-13 -13 -13 -20q0 -8 11 -8q7 0 15 6q32 31 66 61t57 52q-7 -11 -17.5 -28.5t-20 -38.5t-16.5 -43t-7 -43q0 -33 15.5 -52t50.5 -19q22 0 49.5 15.5t53.5 36.5t48 43.5t33 37.5
q-9 -14 -23.5 -35.5t-29 -44t-27.5 -42.5t-20 -31q-31 -15 -71.5 -39.5t-76.5 -55.5t-61 -68t-25 -79q0 -26 10.5 -35t29.5 -9q36 0 73 27.5t73 69.5t69 91.5t60 94.5q20 9 46.5 23.5t53.5 32t52 37t42 38.5q9 10 9 19q0 10 -9 10q-5 0 -10 -5q-16 -17 -36 -33.5
t-41.5 -30.5t-42.5 -26t-37 -19q8 11 23.5 32t35 47t40 54.5t40 55.5t35 49.5t23.5 35.5q3 5 5.5 9t2.5 7q0 9 -18 18t-36 9q-19 0 -26 -11q-14 -22 -37 -51.5t-51 -60.5t-58.5 -62t-58.5 -55t-51 -39t-37 -15q-12 0 -16.5 7t-4.5 19q0 14 9.5 35.5t24.5 46t34.5 51
t38.5 51.5t37 46.5t30 36.5q4 4 4 10q0 12 -15.5 21.5t-33.5 9.5zM202 -57q-11 -21 -32.5 -54.5t-45 -66t-43.5 -56t-29 -23.5t-9 16q0 15 13 37.5t35 48t51 51t60 47.5zM516 577q-11 -11 -24.5 -26l-27 -30t-26 -29.5t-21.5 -24.5q-5 -5 -5 -12q0 -9 9 -9q5 0 10 4
q10 7 28 18.5t37 24.5t37 25.5t29 22.5q7 6 7 14q0 11 -11.5 20t-24.5 9q-10 0 -17 -7z" />
    <glyph glyph-name="thorn" unicode="&#xfe;" horiz-adv-x="561" 
d="M-97 -290q12 0 26 7t27 22q26 30 58 80.5t64 107t61 111.5t50 95q10 12 37 41t61.5 59.5t72 53.5t68.5 23q23 0 36.5 -11.5t13.5 -32.5q0 -25 -13 -50.5t-34 -49t-48 -44t-54.5 -36t-53.5 -24t-46 -8.5h-5q-6 0 -12.5 -5t-12.5 -12t-10 -14.5t-4 -12.5q0 -6 6 -7
q23 -4 44 -5.5t41 -1.5q55 0 101 11.5t84.5 30t69.5 41.5t55 47q13 13 13 23q0 9 -9 9q-7 0 -15 -8q-53 -51 -114.5 -82.5t-117.5 -32.5q56 17 100 46t74 63t45.5 68.5t15.5 63.5q0 46 -28 77t-84 31q-29 0 -61.5 -16.5t-64 -40t-59 -50t-45.5 -46.5l16.5 26t41 65.5
t54.5 87t56.5 90t46.5 74.5l25 40q4 6 6 10t2 9q0 10 -9 16t-17 6t-11 -5q-3 -4 -16 -23.5t-30.5 -46t-37.5 -57t-38.5 -58t-32 -47t-18.5 -24.5q-30 -31 -67 -65.5t-73.5 -68t-71 -65t-60.5 -56.5q-12 -12 -12 -21t9 -9q5 0 13 6q26 24 56.5 51.5t59 54t53.5 49t41 36.5
q-8 -16 -20 -37t-25 -43t-26 -43.5t-23 -38.5q-77 -80 -127 -146t-80 -116.5t-42 -84t-12 -48.5q0 -19 10 -29t26 -10z" />
    <glyph glyph-name="ydieresis" unicode="&#xff;" horiz-adv-x="490" 
d="M588 531q0 15 -6.5 26t-19.5 11q-20 0 -37 -17t-17 -36q0 -16 10.5 -25.5t30.5 -9.5q19 0 29 15.5t10 35.5zM453 531q0 15 -6.5 26t-19.5 11q-20 0 -37 -17t-17 -36q0 -16 10.5 -25.5t30.5 -9.5q19 0 29 15.5t10 35.5zM279 391q-9 0 -17.5 -3t-14.5 -11
q-16 -21 -47.5 -52t-67 -64t-70 -64t-56.5 -53q-13 -13 -13 -20q0 -8 11 -8q7 0 15 6q32 31 66 61t57 52q-7 -11 -17.5 -28.5t-20 -38.5t-16.5 -43t-7 -43q0 -33 15.5 -52t50.5 -19q22 0 49.5 15.5t53.5 36.5t48 43.5t33 37.5q-9 -14 -23.5 -35.5t-29 -44t-27.5 -42.5
t-20 -31q-31 -15 -71.5 -39.5t-76.5 -55.5t-61 -68t-25 -79q0 -26 10.5 -35t29.5 -9q36 0 73 27.5t73 69.5t69 91.5t60 94.5q20 9 46.5 23.5t53.5 32t52 37t42 38.5q9 10 9 19q0 10 -9 10q-5 0 -10 -5q-16 -17 -36 -33.5t-41.5 -30.5t-42.5 -26t-37 -19q8 11 23.5 32t35 47
t40 54.5t40 55.5t35 49.5t23.5 35.5q3 5 5.5 9t2.5 7q0 9 -18 18t-36 9q-19 0 -26 -11q-14 -22 -37 -51.5t-51 -60.5t-58.5 -62t-58.5 -55t-51 -39t-37 -15q-12 0 -16.5 7t-4.5 19q0 14 9.5 35.5t24.5 46t34.5 51t38.5 51.5t37 46.5t30 36.5q4 4 4 10q0 12 -15.5 21.5
t-33.5 9.5zM202 -57q-11 -21 -32.5 -54.5t-45 -66t-43.5 -56t-29 -23.5t-9 16q0 15 13 37.5t35 48t51 51t60 47.5z" />
    <glyph glyph-name="minus" unicode="&#xe000;" horiz-adv-x="455" 
d="M400 298h-344v-54h344v54z" />
    <glyph glyph-name="partialdiff" unicode="&#xe001;" horiz-adv-x="765" 
d="M759 686q-11 0 -23.5 -5.5t-26.5 -17.5q-38 -35 -90.5 -91t-112 -122.5t-122 -138t-121 -137.5t-109 -122.5t-85.5 -91.5q-14 -14 -14 -25q0 -14 20 -14q11 0 25 6t27 18q27 26 73.5 76t104 114t122 135.5t128 141t121.5 131t103 104.5q9 9 9 18q0 8 -8 14.5t-21 6.5z
M297 546q2 0 6 2q30 23 66.5 45.5t61.5 36.5q-24 -37 -58 -84t-70.5 -97t-71.5 -100t-62 -92q-4 -7 -4 -13q0 -13 12.5 -22.5t25.5 -9.5q14 0 18 10q19 36 53.5 89.5t73.5 113.5t79 121t71 111q2 4 2 6q0 8 -8 13.5t-19 5.5q-10 0 -15 -4q-15 -11 -36.5 -25t-45 -30t-46 -33
t-39.5 -32q-2 -1 -2 -4q0 -2 3 -5t5 -3zM566 316q3 0 9 3q24 16 53.5 26.5t55.5 10.5q20 0 33.5 -7.5t13.5 -28.5q0 -25 -21.5 -49.5t-49 -45.5t-53 -36t-34.5 -20q-13 -9 -13 -13q0 -5 13 -5h9q10 3 21 3q23 0 38 -10t15 -27q0 -23 -23.5 -45.5t-59 -43t-76.5 -37
t-76 -26.5q-16 -4 -16 -14q0 -11 12 -11q4 0 6.5 0.5t4.5 0.5q41 10 92.5 27t97.5 40.5t77 51.5t31 61q0 18 -7.5 30t-19 19.5t-25 10.5t-24.5 5q9 6 34.5 21t51.5 36t46.5 46.5t20.5 52.5q0 26 -21.5 36.5t-55.5 10.5q-18 0 -39 -3.5t-41.5 -9.5t-39.5 -14.5t-33 -17.5
q-8 -5 -11 -10.5t-3 -9.5q0 -8 7 -8z" />
    <glyph glyph-name="summation" unicode="&#xe002;" horiz-adv-x="745" 
d="M759 686q-11 0 -23.5 -5.5t-26.5 -17.5q-38 -35 -90.5 -91t-112 -122.5t-122 -138t-121 -137.5t-109 -122.5t-85.5 -91.5q-14 -14 -14 -25q0 -14 20 -14q11 0 25 6t27 18q27 26 73.5 76t104 114t122 135.5t128 141t121.5 131t103 104.5q9 9 9 18q0 8 -8 14.5t-21 6.5z
M297 546q2 0 6 2q30 23 66.5 45.5t61.5 36.5q-24 -37 -58 -84t-70.5 -97t-71.5 -100t-62 -92q-4 -7 -4 -13q0 -13 12.5 -22.5t25.5 -9.5q14 0 18 10q19 36 53.5 89.5t73.5 113.5t79 121t71 111q2 4 2 6q0 8 -8 13.5t-19 5.5q-10 0 -15 -4q-15 -11 -36.5 -25t-45 -30t-46 -33
t-39.5 -32q-2 -1 -2 -4q0 -2 3 -5t5 -3zM489 143q21 19 46 42.5t54.5 54t63.5 70t73 90.5q7 8 7 18q0 9 -6 9q-5 0 -11 -9q-12 -15 -38 -40.5t-59 -56.5t-69 -64t-67.5 -62t-55 -51.5t-31.5 -31.5q-5 -5 -5 -7q0 -3 9 -4q14 -1 30.5 -1.5t33.5 -0.5q26 0 51 1.5t46 5.5
q-7 -11 -16 -25.5t-19 -30.5t-20 -31.5t-17 -28.5q-2 -4 -2 -10q0 -8 8.5 -12.5t19.5 -4.5t20.5 3.5t12.5 10.5q7 14 17.5 31.5t21.5 36.5t21.5 36.5t18.5 31.5q15 5 33 10.5t33 14.5q9 5 13 12.5t4 13.5q0 9 -7 9q-3 0 -7 -2q-11 -3 -20 -5.5t-22 -4.5q7 11 19 27.5
t25.5 36t28 41t26.5 42.5q2 4 3 6.5t1 4.5q0 6 -5 9t-12 3t-14 -3t-11 -9q-37 -51 -71.5 -96t-52.5 -71q-31 -6 -55 -7.5t-47 -1.5z" />
    <glyph glyph-name="product" unicode="&#xe003;" horiz-adv-x="840" 
d="M855 686q-11 0 -23.5 -5.5t-26.5 -17.5q-38 -35 -90.5 -91t-112 -122.5t-122 -138t-121 -137.5t-109 -122.5t-85.5 -91.5q-14 -14 -14 -25q0 -14 20 -14q11 0 25 6t27 18q27 26 73.5 76t104 114t122 135.5t128 141t121.5 131t103 104.5q9 9 9 18q0 8 -8 14.5t-21 6.5z
M397 440q37 27 63 49.5t43 42.5t25 39t8 40q0 65 -82 65q-28 0 -55.5 -6.5t-49 -17.5t-34.5 -26.5t-13 -33.5q0 -25 33 -25q6 0 9 1q-2 3 -4.5 7t-2.5 8q0 11 10.5 19.5t25.5 14.5t32 9t30 3q17 0 26 -6.5t9 -25.5q0 -35 -29 -69.5t-80 -76.5q-26 -21 -55.5 -42.5
t-59.5 -42.5t-59 -40.5t-53 -36.5q-8 -6 -8 -18q0 -7 5 -12t17 -5q21 0 52 4.5t66.5 11.5t72.5 16.5t70 18.5q16 5 16 18q0 5 -3.5 9.5t-9.5 4.5q-2 0 -10 -2q-19 -5 -43 -9.5t-49.5 -8t-51 -6t-49.5 -3.5q13 10 34.5 24.5t47 32t53 36.5t53.5 39zM631 316q3 0 9 3
q24 16 53.5 26.5t55.5 10.5q20 0 33.5 -7.5t13.5 -28.5q0 -25 -21.5 -49.5t-49 -45.5t-53 -36t-34.5 -20q-13 -9 -13 -13q0 -5 13 -5h9q10 3 21 3q23 0 38 -10t15 -27q0 -23 -23.5 -45.5t-59 -43t-76.5 -37t-76 -26.5q-16 -4 -16 -14q0 -11 12 -11q4 0 6.5 0.5t4.5 0.5
q41 10 92.5 27t97.5 40.5t77 51.5t31 61q0 18 -7.5 30t-19 19.5t-25 10.5t-24.5 5q9 6 34.5 21t51.5 36t46.5 46.5t20.5 52.5q0 26 -21.5 36.5t-55.5 10.5q-18 0 -39 -3.5t-41.5 -9.5t-39.5 -14.5t-33 -17.5q-8 -5 -11 -10.5t-3 -9.5q0 -8 7 -8z" />
    <glyph glyph-name="pi" unicode="&#xe004;" horiz-adv-x="830" 
d="M877 686q-11 0 -23.5 -5.5t-26.5 -17.5q-38 -35 -90.5 -91t-112 -122.5t-122 -138t-121 -137.5t-109 -122.5t-85.5 -91.5q-14 -14 -14 -25q0 -14 20 -14q11 0 25 6t27 18q27 26 73.5 76t104 114t122 135.5t128 141t121.5 131t103 104.5q9 9 9 18q0 8 -8 14.5t-21 6.5z
M316 595q3 0 9 3q24 16 53.5 26.5t55.5 10.5q20 0 33.5 -7.5t13.5 -28.5q0 -25 -21.5 -49.5t-49 -45.5t-53 -36t-34.5 -20q-13 -9 -13 -13q0 -5 13 -5h9q10 3 21 3q23 0 38 -10t15 -27q0 -23 -23.5 -45.5t-59 -43t-76.5 -37t-76 -26.5q-16 -4 -16 -14q0 -11 12 -11
q4 0 6.5 0.5t4.5 0.5q41 10 92.5 27t97.5 40.5t77 51.5t31 61q0 18 -7.5 30t-19 19.5t-25 10.5t-24.5 5q9 6 34.5 21t51.5 36t46.5 46.5t20.5 52.5q0 26 -21.5 36.5t-55.5 10.5q-18 0 -39 -3.5t-41.5 -9.5t-39.5 -14.5t-33 -17.5q-8 -5 -11 -10.5t-3 -9.5q0 -8 7 -8z
M579 143q21 19 46 42.5t54.5 54t63.5 70t73 90.5q7 8 7 18q0 9 -6 9q-5 0 -11 -9q-12 -15 -38 -40.5t-59 -56.5t-69 -64t-67.5 -62t-55 -51.5t-31.5 -31.5q-5 -5 -5 -7q0 -3 9 -4q14 -1 30.5 -1.5t33.5 -0.5q26 0 51 1.5t46 5.5q-7 -11 -16 -25.5t-19 -30.5t-20 -31.5
t-17 -28.5q-2 -4 -2 -10q0 -8 8.5 -12.5t19.5 -4.5t20.5 3.5t12.5 10.5q7 14 17.5 31.5t21.5 36.5t21.5 36.5t18.5 31.5q15 5 33 10.5t33 14.5q9 5 13 12.5t4 13.5q0 9 -7 9q-3 0 -7 -2q-11 -3 -20 -5.5t-22 -4.5q7 11 19 27.5t25.5 36t28 41t26.5 42.5q2 4 3 6.5t1 4.5
q0 6 -5 9t-12 3t-14 -3t-11 -9q-37 -51 -71.5 -96t-52.5 -71q-31 -6 -55 -7.5t-47 -1.5z" />
    <glyph glyph-name="integral" unicode="&#xe005;" horiz-adv-x="722" 
d="M25 0h594l206 594h-594zM798 574l-194 -555h-552l194 555h552z" />
    <glyph glyph-name="radical" unicode="&#xe006;" horiz-adv-x="471" 
d="M70 251l-53 -35q12 -11 21.5 -32.5t16.5 -48t11.5 -55.5t6.5 -55q40 72 80.5 127.5t89.5 101.5t108.5 85t137.5 77l13 109q-78 -50 -139 -98t-109 -96t-85 -97t-68 -101q2 6 3 12.5t1 16.5q0 17 -7 41t-28 48z" />
    <glyph glyph-name="approxequal" unicode="&#xe007;" horiz-adv-x="794" 
d="M251 387h94l-22 -126h-94q-39 0 -71 -13t-55 -35t-35.5 -51.5t-12.5 -62.5q0 -56 32.5 -90.5t87.5 -34.5q39 0 69 11t51 30.5t34 46t18 56.5l16 94h124l-16 -94q-3 -17 -3 -30q0 -56 35.5 -85t89.5 -29q39 0 70 13t52.5 34.5t33.5 51t12 62.5q0 26 -8.5 49t-25.5 40
t-41.5 27t-57.5 10h-83l22 126h94q41 0 73 13.5t54.5 36.5t34.5 52.5t12 61.5q0 25 -8.5 47t-24.5 39t-38.5 27t-50.5 10q-73 0 -116 -38t-54 -106l-16 -94h-124l16 94q2 7 2 14v14q0 51 -32 83.5t-90 32.5q-38 0 -69 -12.5t-53.5 -34.5t-35 -52t-12.5 -65q0 -60 33.5 -91.5
t88.5 -31.5zM370 528l-16 -92h-92q-42 0 -63 20.5t-21 53.5q0 23 7.5 44t22.5 36.5t36.5 25t49.5 9.5q40 0 59 -21.5t19 -53.5q0 -5 -0.5 -11t-1.5 -11zM372 261l22 126h124l-22 -126h-124zM785 551q0 -23 -8.5 -43.5t-24 -36.5t-37 -25.5t-47.5 -9.5h-92l16 92
q8 41 35.5 69t74.5 28q38 0 60.5 -20.5t22.5 -53.5zM520 120l16 92h92q38 0 61 -22t23 -55q0 -26 -9 -46.5t-25 -35t-36.5 -22.5t-43.5 -8q-38 0 -59 19t-21 55q0 5 0.5 11t1.5 12zM105 99q0 27 10.5 48t27.5 35.5t38 22t41 7.5h92l-16 -92q-7 -41 -35 -69t-75 -28
q-38 0 -60.5 20.5t-22.5 55.5z" />
    <glyph glyph-name="nonbreakingspace" unicode="&#xe008;" horiz-adv-x="375" 
 />
    <glyph glyph-name="apple" unicode="&#xe009;" horiz-adv-x="808" 
d="M268 530q-40 0 -74.5 -13t-60 -38.5t-40 -63t-14.5 -85.5q0 -55 24.5 -115.5t60.5 -111t76 -83.5t72 -33q40 0 67 33q8 9 19.5 14t22.5 5q13 0 22 -6t15 -13q28 -33 73 -33q40 0 73 24t58 56.5t42 66t25 51.5q-17 5 -35 17.5t-33 30t-24.5 39.5t-9.5 46q0 48 19 86.5
t61 58.5q-4 12 -15.5 24t-28.5 21.5t-39 15.5t-48 6q-25 0 -48.5 -5t-40.5 -19q-19 -16 -34.5 -21.5t-31.5 -5.5q-15 0 -27 6t-33 21q-17 12 -42.5 18t-50.5 6zM529 669q-20 0 -41.5 -12.5t-39.5 -32t-30 -43t-12 -46.5q0 -7 3 -11.5t14 -4.5q14 0 34 14t38.5 34t31 43.5
t12.5 42.5q0 8 -1 12t-9 4z" />
    </font>
</defs>
</svg>
